Coval-LightItalic.ufo
<glyph name="quotedbl" format="2">
  <advance width="525"/>
  <unicode hex="0022"/>
  <outline>
    <contour>
      <point x="477" y="695" type="line"/>
      <point x="542" y="695" type="line"/>
      <point x="464" y="386" type="line"/>
      <point x="413" y="386" type="line"/>
    </contour>
    <contour>
      <point x="302" y="695" type="line"/>
      <point x="367" y="695" type="line"/>
      <point x="289" y="386" type="line"/>
      <point x="238" y="386" type="line"/>
    </contour>
  </outline>
</glyph>
<glyph name="numbersign" format="2">
  <advance width="875"/>
  <unicode hex="0023"/>
  <outline>
    <contour>
      <point x="95" y="157" type="curve"/>
      <point x="92" y="155"/>
      <point x="89" y="153"/>
      <point x="86" y="151" type="curve"/>
      <point x="90" y="168"/>
      <point x="103" y="177"/>
      <point x="126" y="177" type="curve" smooth="yes"/>
      <point x="134" y="177"/>
      <point x="143" y="177"/>
      <point x="151" y="177" type="curve" smooth="yes"/>
      <point x="302" y="177" type="line"/>
      <point x="387" y="339" type="line"/>
      <point x="189" y="339" type="line" smooth="yes"/>
      <point x="150" y="339"/>
      <point x="129" y="339"/>
      <point x="134" y="364" type="curve" smooth="yes"/>
      <point x="139" y="389"/>
      <point x="161" y="390"/>
      <point x="200" y="390" type="curve" smooth="yes"/>
      <point x="412" y="390" type="line"/>
      <point x="492" y="544" type="line" smooth="yes"/>
      <point x="511" y="581"/>
      <point x="531" y="617"/>
      <point x="550" y="654" type="curve" name=".hr01"/>
      <point x="550" y="673"/>
      <point x="575" y="689"/>
      <point x="587" y="689" type="curve" smooth="yes"/>
      <point x="604" y="689"/>
      <point x="609" y="673"/>
      <point x="607" y="664" type="curve"/>
      <point x="561" y="573"/>
      <point x="512" y="482"/>
      <point x="465" y="391" type="curve"/>
      <point x="650" y="391" type="line"/>
      <point x="730" y="545" type="line" smooth="yes"/>
      <point x="749" y="582"/>
      <point x="769" y="618"/>
      <point x="788" y="655" type="curve"/>
      <point x="788" y="674"/>
      <point x="813" y="690"/>
      <point x="825" y="690" type="curve" smooth="yes"/>
      <point x="842" y="690"/>
      <point x="847" y="674"/>
      <point x="845" y="665" type="curve"/>
      <point x="819" y="612"/>
      <point x="792" y="561"/>
      <point x="765" y="509" type="curve" smooth="yes"/>
      <point x="704" y="392" type="line"/>
      <point x="865" y="392" type="line" smooth="yes"/>
      <point x="888" y="392"/>
      <point x="898" y="384"/>
      <point x="895" y="368" type="curve" name=".hr02"/>
      <point x="889" y="341"/>
      <point x="869" y="341"/>
      <point x="830" y="341" type="curve" smooth="yes"/>
      <point x="678" y="341" type="line"/>
      <point x="593" y="179" type="line"/>
      <point x="791" y="179" type="line" smooth="yes"/>
      <point x="830" y="179"/>
      <point x="851" y="179"/>
      <point x="846" y="155" type="curve" smooth="yes"/>
      <point x="840" y="128"/>
      <point x="817" y="128"/>
      <point x="779" y="128" type="curve" smooth="yes"/>
      <point x="567" y="128" type="line"/>
      <point x="485" y="-32" type="line" smooth="yes"/>
      <point x="462" y="-77"/>
      <point x="443" y="-112"/>
      <point x="431" y="-136" type="curve"/>
      <point x="431" y="-132"/>
      <point x="422" y="-169"/>
      <point x="395" y="-169" type="curve" smooth="yes"/>
      <point x="379" y="-169"/>
      <point x="374" y="-152"/>
      <point x="376" y="-143" type="curve"/>
      <point x="423" y="-51" type="line" smooth="yes"/>
      <point x="431" y="-35"/>
      <point x="441" y="-18"/>
      <point x="451" y="1" type="curve" smooth="yes"/>
      <point x="518" y="130" type="line"/>
      <point x="333" y="130" type="line"/>
      <point x="251" y="-30" type="line" smooth="yes"/>
      <point x="228" y="-75"/>
      <point x="209" y="-110"/>
      <point x="197" y="-134" type="curve"/>
      <point x="197" y="-130"/>
      <point x="188" y="-167" name=".hr03"/>
      <point x="161" y="-167" type="curve" smooth="yes"/>
      <point x="145" y="-167"/>
      <point x="140" y="-150"/>
      <point x="142" y="-141" type="curve"/>
      <point x="149" y="-126" type="line" smooth="yes"/>
      <point x="164" y="-95"/>
      <point x="183" y="-64"/>
      <point x="198" y="-32" type="curve"/>
      <point x="283" y="132" type="line"/>
      <point x="123" y="132" type="line" smooth="yes"/>
      <point x="100" y="132"/>
      <point x="91" y="140"/>
    </contour>
    <contour>
      <point x="354" y="177" type="line"/>
      <point x="539" y="177" type="line"/>
      <point x="624" y="339" type="line"/>
      <point x="439" y="339" type="line"/>
    </contour>
  </outline>
</glyph>
<glyph name="dollar" format="2">
  <advance width="525"/>
  <unicode hex="0024"/>
  <outline>
    <contour>
      <point x="60" y="61" type="curve"/>
      <point x="81" y="116" type="line"/>
      <point x="137" y="66"/>
      <point x="170" y="52"/>
      <point x="246" y="44" type="curve"/>
      <point x="311" y="329" type="line"/>
      <point x="219" y="350"/>
      <point x="183" y="399"/>
      <point x="175" y="446" type="curve" smooth="yes"/>
      <point x="172" y="463"/>
      <point x="171" y="476"/>
      <point x="172" y="486" type="curve" smooth="yes"/>
      <point x="181" y="580"/>
      <point x="263" y="683"/>
      <point x="397" y="699" type="curve"/>
      <point x="408" y="748" type="line"/>
      <point x="459" y="748" type="line"/>
      <point x="448" y="700" type="line" name=".hr01"/>
      <point x="501" y="697"/>
      <point x="550" y="679"/>
      <point x="596" y="645" type="curve"/>
      <point x="574" y="590" type="line"/>
      <point x="548" y="609" type="line" smooth="yes"/>
      <point x="517" y="631"/>
      <point x="480" y="644"/>
      <point x="436" y="647" type="curve"/>
      <point x="376" y="389" type="line"/>
      <point x="495" y="362"/>
      <point x="519" y="275"/>
      <point x="514" y="222" type="curve" smooth="yes"/>
      <point x="503" y="112"/>
      <point x="402" y="7"/>
      <point x="286" y="-6" type="curve"/>
      <point x="274" y="-55" type="line"/>
      <point x="223" y="-55" type="line"/>
      <point x="234" y="-7" type="line" name=".hr02"/>
      <point x="169" y="-4"/>
      <point x="111" y="19"/>
    </contour>
    <contour>
      <point x="236" y="522" type="curve"/>
      <point x="236" y="513"/>
      <point x="233" y="505"/>
      <point x="233" y="495" type="curve" smooth="yes"/>
      <point x="233" y="459"/>
      <point x="253" y="418"/>
      <point x="327" y="400" type="curve"/>
      <point x="346" y="482"/>
      <point x="365" y="563"/>
      <point x="384" y="645" type="curve"/>
      <point x="302" y="631"/>
      <point x="248" y="576"/>
    </contour>
    <contour>
      <point x="296" y="42" type="line"/>
      <point x="297" y="41"/>
      <point x="297" y="41"/>
      <point x="298" y="40" type="curve"/>
      <point x="367" y="52"/>
      <point x="431" y="107"/>
      <point x="447" y="177" type="curve" smooth="yes"/>
      <point x="461" y="239"/>
      <point x="435" y="294"/>
      <point x="359" y="314" type="curve"/>
    </contour>
  </outline>
</glyph>
<glyph name="percent" format="2">
  <advance width="875"/>
  <unicode hex="0025"/>
  <outline>
    <contour>
      <point x="185" y="549" type="curve"/>
      <point x="186" y="548"/>
      <point x="187" y="548"/>
      <point x="188" y="547" type="curve"/>
      <point x="213" y="657"/>
      <point x="301" y="749"/>
      <point x="381" y="749" type="curve" smooth="yes"/>
      <point x="453" y="749"/>
      <point x="507" y="664"/>
      <point x="480" y="547" type="curve" smooth="yes"/>
      <point x="455" y="439"/>
      <point x="366" y="347"/>
      <point x="287" y="347" type="curve" smooth="yes"/>
      <point x="209" y="347"/>
      <point x="159" y="432"/>
    </contour>
    <contour>
      <point x="249" y="547" type="curve" smooth="yes"/>
      <point x="226" y="446"/>
      <point x="243" y="396"/>
      <point x="300" y="396" type="curve" smooth="yes"/>
      <point x="350" y="396"/>
      <point x="402" y="467"/>
      <point x="420" y="547" type="curve" smooth="yes"/>
      <point x="430" y="590"/>
      <point x="430" y="626"/>
      <point x="419" y="654" type="curve" smooth="yes"/>
      <point x="408" y="682"/>
      <point x="391" y="696"/>
      <point x="367" y="696" type="curve" smooth="yes"/>
      <point x="312" y="696"/>
      <point x="269" y="632"/>
    </contour>
    <contour>
      <point x="181" y="-37" type="curve"/>
      <point x="180" y="-37"/>
      <point x="180" y="-36"/>
      <point x="179" y="-36" type="curve"/>
      <point x="180" y="-33"/>
      <point x="185" y="-26"/>
      <point x="194" y="-14" type="curve"/>
      <point x="202" y="-5"/>
      <point x="210" y="5"/>
      <point x="219" y="15" type="curve"/>
      <point x="824" y="734" type="line"/>
      <point x="824" y="734"/>
      <point x="824" y="734"/>
      <point x="824" y="734" type="curve"/>
      <point x="833" y="743"/>
      <point x="841" y="747"/>
      <point x="848" y="747" type="curve" smooth="yes"/>
      <point x="858" y="747"/>
      <point x="865" y="737"/>
      <point x="863" y="728" type="curve"/>
      <point x="861" y="725"/>
      <point x="856" y="714"/>
      <point x="842" y="698" type="curve" smooth="yes"/>
      <point x="217" y="-46" type="line"/>
      <point x="209" y="-53"/>
      <point x="202" y="-57"/>
      <point x="196" y="-57" type="curve" smooth="yes"/>
      <point x="185" y="-57"/>
      <point x="179" y="-47"/>
    </contour>
    <contour>
      <point x="559" y="145" type="curve"/>
      <point x="560" y="145"/>
      <point x="560" y="144"/>
      <point x="561" y="144" type="curve"/>
      <point x="586" y="252"/>
      <point x="674" y="344"/>
      <point x="754" y="344" type="curve" smooth="yes"/>
      <point x="817" y="344"/>
      <point x="868" y="281"/>
      <point x="859" y="185" type="curve" smooth="yes"/>
      <point x="850" y="59"/>
      <point x="751" y="-57"/>
      <point x="661" y="-57" type="curve" smooth="yes"/>
      <point x="583" y="-57"/>
      <point x="533" y="28"/>
    </contour>
    <contour>
      <point x="623" y="144" type="curve"/>
      <point x="623" y="145"/>
      <point x="622" y="145"/>
      <point x="622" y="146" type="curve"/>
      <point x="599" y="45"/>
      <point x="615" y="-5"/>
      <point x="671" y="-5" type="curve" smooth="yes"/>
      <point x="721" y="-5"/>
      <point x="777" y="66"/>
      <point x="795" y="146" type="curve" smooth="yes"/>
      <point x="805" y="190"/>
      <point x="805" y="226"/>
      <point x="794" y="254" type="curve" smooth="yes"/>
      <point x="783" y="282"/>
      <point x="766" y="296"/>
      <point x="742" y="296" type="curve" smooth="yes"/>
      <point x="672" y="296"/>
      <point x="638" y="207"/>
    </contour>
  </outline>
</glyph>
<glyph name="ampersand" format="2">
  <advance width="783"/>
  <unicode hex="0026"/>
  <outline>
    <contour>
      <point x="76" y="143" type="curve"/>
      <point x="77" y="141"/>
      <point x="78" y="140"/>
      <point x="79" y="138" type="curve"/>
      <point x="87" y="174"/>
      <point x="107" y="206"/>
      <point x="139" y="235" type="curve"/>
      <point x="143" y="238"/>
      <point x="194" y="274"/>
      <point x="296" y="350" type="curve"/>
      <point x="291" y="395"/>
      <point x="290" y="436"/>
      <point x="294" y="472" type="curve" smooth="yes"/>
      <point x="307" y="599"/>
      <point x="384" y="706"/>
      <point x="480" y="706" type="curve" smooth="yes"/>
      <point x="553" y="706"/>
      <point x="588" y="632"/>
      <point x="571" y="561" type="curve" smooth="yes"/>
      <point x="558" y="506"/>
      <point x="489" y="434"/>
      <point x="364" y="345" type="curve"/>
      <point x="373" y="310"/>
      <point x="385" y="275"/>
      <point x="399" y="247" type="curve" smooth="yes"/>
      <point x="418" y="208" type="line" smooth="yes"/>
      <point x="433" y="177"/>
      <point x="466" y="128"/>
      <point x="481" y="113" type="curve"/>
      <point x="589" y="184"/>
      <point x="678" y="289"/>
      <point x="748" y="429" type="curve"/>
      <point x="797" y="415" type="line"/>
      <point x="767" y="356"/>
      <point x="730" y="297"/>
      <point x="694" y="253" type="curve" smooth="yes"/>
      <point x="593" y="129"/>
      <point x="551" y="110"/>
      <point x="510" y="77" type="curve"/>
      <point x="560" y="38"/>
      <point x="587" y="35"/>
      <point x="623" y="35" type="curve" smooth="yes"/>
      <point x="678" y="35"/>
      <point x="735" y="56"/>
      <point x="737" y="56" type="curve"/>
      <point x="724" y="0" type="line"/>
      <point x="683" y="-12"/>
      <point x="645" y="-18"/>
      <point x="610" y="-18" type="curve"/>
      <point x="610" y="-18"/>
      <point x="610" y="-18"/>
      <point x="610" y="-18" type="curve"/>
      <point x="610" y="-18"/>
      <point x="610" y="-18"/>
      <point x="610" y="-18" type="curve"/>
      <point x="553" y="-18"/>
      <point x="501" y="3"/>
      <point x="454" y="44" type="curve"/>
      <point x="384" y="3"/>
      <point x="310" y="-18"/>
      <point x="233" y="-18" type="curve" smooth="yes"/>
      <point x="120" y="-18"/>
      <point x="56" y="53"/>
    </contour>
    <contour>
      <point x="145" y="144" type="curve"/>
      <point x="144" y="144"/>
      <point x="143" y="143"/>
      <point x="142" y="143" type="curve"/>
      <point x="128" y="86"/>
      <point x="166" y="31"/>
      <point x="244" y="31" type="curve" smooth="yes" name=".hr01"/>
      <point x="297" y="31"/>
      <point x="356" y="46"/>
      <point x="422" y="76" type="curve"/>
      <point x="363" y="158"/>
      <point x="333" y="209"/>
      <point x="304" y="302" type="curve"/>
      <point x="293" y="293"/>
      <point x="258" y="268"/>
      <point x="240" y="254" type="curve" smooth="yes"/>
      <point x="227" y="244" type="line" smooth="yes"/>
      <point x="200" y="223"/>
      <point x="159" y="202"/>
    </contour>
    <contour>
      <point x="359" y="551" type="curve"/>
      <point x="359" y="552"/>
      <point x="358" y="552"/>
      <point x="358" y="553" type="curve"/>
      <point x="347" y="504"/>
      <point x="344" y="451"/>
      <point x="350" y="394" type="curve"/>
      <point x="477" y="482"/>
      <point x="511" y="537"/>
      <point x="511" y="599" type="curve" smooth="yes"/>
      <point x="511" y="624"/>
      <point x="496" y="655"/>
      <point x="462" y="655" type="curve" smooth="yes"/>
      <point x="425" y="655"/>
      <point x="375" y="621"/>
    </contour>
  </outline>
</glyph>
<glyph name="quotesingle" format="2">
  <advance width="292"/>
  <unicode hex="0027"/>
  <outline>
    <contour>
      <point x="273" y="695" type="line"/>
      <point x="338" y="695" type="line"/>
      <point x="260" y="386" type="line"/>
      <point x="209" y="386" type="line"/>
    </contour>
  </outline>
</glyph>
<glyph name="parenleft" format="2">
  <advance width="408"/>
  <unicode hex="0028"/>
  <outline>
    <contour>
      <point x="152" y="264" type="curve"/>
      <point x="152" y="263"/>
      <point x="152" y="262"/>
      <point x="152" y="261" type="curve"/>
      <point x="201" y="474"/>
      <point x="308" y="636"/>
      <point x="472" y="747" type="curve"/>
      <point x="522" y="747" type="line"/>
      <point x="503" y="733"/>
      <point x="488" y="722"/>
      <point x="477" y="713" type="curve" smooth="yes"/>
      <point x="430" y="674"/>
      <point x="276" y="533"/>
      <point x="217" y="264" type="curve" smooth="yes"/>
      <point x="168" y="53"/>
      <point x="195" y="-109"/>
      <point x="298" y="-222" type="curve"/>
      <point x="248" y="-222" type="line"/>
      <point x="135" y="-111"/>
      <point x="103" y="51"/>
    </contour>
  </outline>
</glyph>
<glyph name="parenright" format="2">
  <advance width="408"/>
  <unicode hex="0029"/>
  <outline>
    <contour>
      <point x="7" y="-222" type="line"/>
      <point x="5" y="-222" type="line"/>
      <point x="24" y="-208"/>
      <point x="39" y="-196"/>
      <point x="50" y="-187" type="curve" smooth="yes"/>
      <point x="109" y="-138"/>
      <point x="250" y="-1"/>
      <point x="312" y="264" type="curve" smooth="yes"/>
      <point x="356" y="453"/>
      <point x="338" y="605"/>
      <point x="257" y="716" type="curve"/>
      <point x="257" y="716"/>
      <point x="257" y="716"/>
      <point x="257" y="716" type="curve"/>
      <point x="248" y="729"/>
      <point x="239" y="740"/>
      <point x="230" y="750" type="curve"/>
      <point x="280" y="750" type="line"/>
      <point x="393" y="639"/>
      <point x="425" y="477"/>
      <point x="376" y="264" type="curve" smooth="yes"/>
      <point x="327" y="51"/>
      <point x="221" y="-111"/>
      <point x="57" y="-222" type="curve"/>
    </contour>
  </outline>
</glyph>
<glyph name="asterisk" format="2">
  <advance width="525"/>
  <unicode hex="002A"/>
  <outline>
    <contour>
      <point x="179" y="441" type="curve"/>
      <point x="177" y="441"/>
      <point x="174" y="440"/>
      <point x="172" y="440" type="curve"/>
      <point x="173" y="443"/>
      <point x="174" y="445"/>
      <point x="175" y="447" type="curve" smooth="yes"/>
      <point x="176" y="449"/>
      <point x="178" y="451"/>
      <point x="181" y="453" type="curve" smooth="yes"/>
      <point x="190" y="459" type="line" smooth="yes"/>
      <point x="227" y="484"/>
      <point x="259" y="489"/>
      <point x="312" y="514" type="curve" smooth="yes"/>
      <point x="357" y="535" type="line"/>
      <point x="288" y="573" type="line" smooth="yes"/>
      <point x="253" y="592"/>
      <point x="232" y="605"/>
      <point x="226" y="610" type="curve" smooth="yes"/>
      <point x="220" y="615"/>
      <point x="218" y="621"/>
      <point x="220" y="628" type="curve"/>
      <point x="222" y="641"/>
      <point x="239" y="656"/>
      <point x="253" y="656" type="curve" smooth="yes"/>
      <point x="256" y="656"/>
      <point x="259" y="655"/>
      <point x="262" y="653" type="curve" smooth="yes"/>
      <point x="268" y="649"/>
      <point x="290" y="631"/>
      <point x="374" y="559" type="curve"/>
      <point x="389" y="647"/>
      <point x="387" y="750"/>
      <point x="432" y="750" type="curve" smooth="yes"/>
      <point x="449" y="750"/>
      <point x="454" y="737"/>
      <point x="448" y="710" type="curve"/>
      <point x="432" y="662"/>
      <point x="416" y="612"/>
      <point x="401" y="559" type="curve"/>
      <point x="485" y="609"/>
      <point x="551" y="649"/>
      <point x="563" y="655" type="curve" smooth="yes"/>
      <point x="565" y="656"/>
      <point x="566" y="656"/>
      <point x="567" y="656" type="curve" smooth="yes"/>
      <point x="584" y="656"/>
      <point x="589" y="642"/>
      <point x="589" y="629" type="curve"/>
      <point x="584" y="599"/>
      <point x="532" y="588"/>
      <point x="470" y="560" type="curve" smooth="yes"/>
      <point x="410" y="533" type="line"/>
      <point x="478" y="495" type="line" smooth="yes"/>
      <point x="552" y="453"/>
      <point x="549" y="455"/>
      <point x="547" y="440" type="curve" smooth="yes"/>
      <point x="545" y="426"/>
      <point x="529" y="414"/>
      <point x="516" y="414" type="curve" smooth="yes"/>
      <point x="514" y="414"/>
      <point x="510" y="416"/>
      <point x="505" y="419" type="curve" smooth="yes"/>
      <point x="492" y="427"/>
      <point x="425" y="481"/>
      <point x="393" y="510" type="curve"/>
      <point x="365" y="325"/>
      <point x="366" y="319"/>
      <point x="336" y="319" type="curve" smooth="yes"/>
      <point x="319" y="319"/>
      <point x="313" y="332"/>
      <point x="319" y="359" type="curve"/>
      <point x="320" y="365"/>
      <point x="332" y="395"/>
      <point x="336" y="409" type="curve" smooth="yes"/>
      <point x="367" y="510" type="line"/>
      <point x="201" y="409"/>
      <point x="206" y="414"/>
      <point x="201" y="414" type="curve" smooth="yes"/>
      <point x="193" y="414"/>
      <point x="187" y="417"/>
      <point x="183" y="423" type="curve" smooth="yes"/>
      <point x="179" y="429"/>
      <point x="178" y="435"/>
    </contour>
  </outline>
</glyph>
<glyph name="plus" format="2">
  <advance width="642"/>
  <unicode hex="002B"/>
  <outline>
    <contour>
      <point x="120" y="264" type="curve"/>
      <point x="121" y="264"/>
      <point x="122" y="264"/>
      <point x="123" y="264" type="curve"/>
      <point x="127" y="281"/>
      <point x="140" y="290"/>
      <point x="163" y="290" type="curve" smooth="yes"/>
      <point x="365" y="290" type="line"/>
      <point x="411" y="491" type="line" smooth="yes"/>
      <point x="416" y="514"/>
      <point x="427" y="526"/>
      <point x="444" y="526" type="curve" smooth="yes"/>
      <point x="461" y="526"/>
      <point x="467" y="515"/>
      <point x="462" y="492" type="curve" smooth="yes"/>
      <point x="415" y="290" type="line"/>
      <point x="600" y="290" type="line" smooth="yes"/>
      <point x="606" y="290"/>
      <point x="611" y="290"/>
      <point x="617" y="290" type="curve"/>
      <point x="617" y="290"/>
      <point x="617" y="290"/>
      <point x="617" y="290" type="curve"/>
      <point x="640" y="290"/>
      <point x="649" y="281"/>
      <point x="645" y="264" type="curve" smooth="yes"/>
      <point x="639" y="239"/>
      <point x="619" y="239"/>
      <point x="584" y="239" type="curve" smooth="yes"/>
      <point x="403" y="239" type="line"/>
      <point x="364" y="71" type="line"/>
      <point x="364" y="33"/>
      <point x="347" y="2"/>
      <point x="323" y="2" type="curve" smooth="yes"/>
      <point x="306" y="2"/>
      <point x="299" y="13"/>
      <point x="305" y="36" type="curve" smooth="yes"/>
      <point x="313" y="70" type="line"/>
      <point x="313" y="70"/>
      <point x="313" y="70"/>
      <point x="313" y="70" type="curve"/>
      <point x="352" y="239" type="line"/>
      <point x="167" y="239" type="line" smooth="yes"/>
      <point x="122" y="239"/>
      <point x="116" y="242"/>
    </contour>
  </outline>
</glyph>
<glyph name="comma" format="2">
  <advance width="292"/>
  <unicode hex="002C"/>
  <outline>
    <contour>
      <point x="106" y="0" type="line"/>
      <point x="123" y="78" type="line"/>
      <point x="202" y="78" type="line"/>
      <point x="191" y="29" type="line"/>
      <point x="190" y="26"/>
      <point x="189" y="21"/>
      <point x="187" y="15" type="curve"/>
      <point x="183" y="1" type="line"/>
      <point x="161" y="-34"/>
      <point x="130" y="-93"/>
      <point x="120" y="-111" type="curve"/>
      <point x="80" y="-111" type="line"/>
      <point x="130" y="0" type="line"/>
    </contour>
  </outline>
</glyph>
<glyph name="slash" format="2">
  <advance width="525"/>
  <unicode hex="002F"/>
  <outline>
    <contour>
      <point x="14" y="-197" type="curve"/>
      <point x="14" y="-198"/>
      <point x="14" y="-200"/>
      <point x="14" y="-201" type="curve"/>
      <point x="15" y="-199"/>
      <point x="18" y="-192"/>
      <point x="23" y="-180" type="curve"/>
      <point x="577" y="714" type="line"/>
      <point x="578" y="715"/>
      <point x="578" y="717"/>
      <point x="579" y="718" type="curve"/>
      <point x="584" y="725"/>
      <point x="596" y="746"/>
      <point x="615" y="746" type="curve" smooth="yes"/>
      <point x="628" y="746"/>
      <point x="638" y="737"/>
      <point x="634" y="723" type="curve"/>
      <point x="632" y="714"/>
      <point x="620" y="699"/>
      <point x="618" y="694" type="curve"/>
      <point x="73" y="-187" type="line" smooth="yes"/>
      <point x="56" y="-215"/>
      <point x="49" y="-222"/>
      <point x="33" y="-222" type="curve" smooth="yes"/>
      <point x="16" y="-222"/>
      <point x="10" y="-211"/>
    </contour>
  </outline>
</glyph>
<glyph name="zero" format="2">
  <advance width="525"/>
  <unicode hex="0030"/>
  <outline>
    <contour>
      <point x="130" y="337" type="curve"/>
      <point x="128" y="337" type="line"/>
      <point x="132" y="356"/>
      <point x="137" y="374"/>
      <point x="142" y="391" type="curve" smooth="yes"/>
      <point x="158" y="446"/>
      <point x="224" y="672"/>
      <point x="415" y="672" type="curve" smooth="yes"/>
      <point x="541" y="672"/>
      <point x="574" y="571"/>
      <point x="567" y="461" type="curve" smooth="yes"/>
      <point x="564" y="416"/>
      <point x="560" y="386"/>
      <point x="554" y="357" type="curve" smooth="yes"/>
      <point x="547" y="325" type="line" smooth="yes"/>
      <point x="494" y="97"/>
      <point x="398" y="-17"/>
      <point x="258" y="-17" type="curve" smooth="yes"/>
      <point x="118" y="-17"/>
      <point x="75" y="101"/>
    </contour>
    <contour>
      <point x="193" y="336" type="line" smooth="yes"/>
      <point x="173" y="255"/>
      <point x="164" y="226"/>
      <point x="164" y="158" type="curve" smooth="yes"/>
      <point x="164" y="126"/>
      <point x="168" y="101"/>
      <point x="177" y="83" type="curve"/>
      <point x="177" y="83"/>
      <point x="177" y="83"/>
      <point x="177" y="83" type="curve"/>
      <point x="189" y="61"/>
      <point x="207" y="46"/>
      <point x="229" y="39" type="curve"/>
      <point x="240" y="35"/>
      <point x="252" y="33"/>
      <point x="266" y="33" type="curve" smooth="yes"/>
      <point x="410" y="33"/>
      <point x="454" y="211"/>
      <point x="484" y="338" type="curve" smooth="yes"/>
      <point x="493" y="376" type="line" smooth="yes"/>
      <point x="527" y="519"/>
      <point x="506" y="600"/>
      <point x="437" y="618" type="curve"/>
      <point x="427" y="621"/>
      <point x="416" y="622"/>
      <point x="404" y="622" type="curve" smooth="yes"/>
      <point x="309" y="622"/>
      <point x="238" y="540"/>
      <point x="202" y="377" type="curve" smooth="yes"/>
    </contour>
  </outline>
</glyph>
<glyph name="one" format="2">
  <advance width="525"/>
  <unicode hex="0031"/>
  <outline>
    <contour>
      <point x="233" y="556" type="curve"/>
      <point x="245" y="607" type="line"/>
      <point x="324" y="607"/>
      <point x="391" y="629"/>
      <point x="446" y="672" type="curve"/>
      <point x="462" y="672" type="line"/>
      <point x="319" y="50" type="line"/>
      <point x="450" y="50" type="line"/>
      <point x="438" y="0" type="line"/>
      <point x="111" y="0" type="line"/>
      <point x="123" y="50" type="line"/>
      <point x="254" y="50" type="line"/>
      <point x="377" y="585" type="line"/>
      <point x="334" y="566"/>
      <point x="286" y="556"/>
    </contour>
  </outline>
</glyph>
<glyph name="two" format="2">
  <advance width="525"/>
  <unicode hex="0032"/>
  <outline>
    <contour>
      <point x="159" y="504" type="curve"/>
      <point x="159" y="503"/>
      <point x="159" y="503"/>
      <point x="159" y="502" type="curve"/>
      <point x="218" y="614"/>
      <point x="299" y="670"/>
      <point x="402" y="670" type="curve" smooth="yes"/>
      <point x="531" y="670"/>
      <point x="606" y="583"/>
      <point x="579" y="465" type="curve" smooth="yes"/>
      <point x="560" y="380"/>
      <point x="499" y="325"/>
      <point x="377" y="241" type="curve"/>
      <point x="377" y="241"/>
      <point x="377" y="241"/>
      <point x="377" y="241" type="curve"/>
      <point x="322" y="203"/>
      <point x="237" y="141"/>
      <point x="121" y="55" type="curve"/>
      <point x="242" y="55"/>
      <point x="363" y="55"/>
      <point x="484" y="55" type="curve"/>
      <point x="471" y="-1" type="line"/>
      <point x="51" y="-1" type="line"/>
      <point x="63" y="52" type="line"/>
      <point x="181" y="143"/>
      <point x="266" y="207"/>
      <point x="318" y="244" type="curve"/>
      <point x="318" y="244"/>
      <point x="318" y="244"/>
      <point x="318" y="244" type="curve"/>
      <point x="433" y="326"/>
      <point x="494" y="383"/>
      <point x="513" y="466" type="curve" smooth="yes"/>
      <point x="535" y="561"/>
      <point x="467" y="620"/>
      <point x="377" y="620" type="curve" smooth="yes"/>
      <point x="352" y="620"/>
      <point x="329" y="615"/>
      <point x="307" y="604" type="curve" smooth="yes"/>
      <point x="233" y="567"/>
      <point x="187" y="459"/>
      <point x="186" y="459" type="curve"/>
      <point x="171" y="482"/>
      <point x="162" y="497"/>
    </contour>
  </outline>
</glyph>
<glyph name="three" format="2">
  <advance width="525"/>
  <unicode hex="0033"/>
  <outline>
    <contour>
      <point x="68" y="102" type="curve"/>
      <point x="89" y="140" type="line"/>
      <point x="139" y="36"/>
      <point x="237" y="29"/>
      <point x="273" y="29" type="curve" smooth="yes"/>
      <point x="379" y="29"/>
      <point x="450" y="112"/>
      <point x="459" y="213" type="curve" name=".hr01"/>
      <point x="464" y="293"/>
      <point x="399" y="325"/>
      <point x="321" y="325" type="curve" smooth="yes"/>
      <point x="252" y="325" type="line"/>
      <point x="263" y="375" type="line"/>
      <point x="297" y="377" type="line"/>
      <point x="293" y="376"/>
      <point x="472" y="372"/>
      <point x="507" y="522" type="curve" smooth="yes"/>
      <point x="520" y="580"/>
      <point x="485" y="620"/>
      <point x="412" y="620" type="curve" smooth="yes"/>
      <point x="335" y="620"/>
      <point x="269" y="582"/>
      <point x="208" y="507" type="curve"/>
      <point x="187" y="551" type="line"/>
      <point x="254" y="630"/>
      <point x="332" y="670"/>
      <point x="421" y="670" type="curve" smooth="yes"/>
      <point x="520" y="670"/>
      <point x="592" y="607"/>
      <point x="572" y="523" type="curve" smooth="yes"/>
      <point x="556" y="459"/>
      <point x="505" y="392"/>
      <point x="411" y="353" type="curve"/>
      <point x="491" y="329"/>
      <point x="530" y="271"/>
      <point x="525" y="207" type="curve"/>
      <point x="513" y="97"/>
      <point x="401" y="-17"/>
      <point x="259" y="-17" type="curve" smooth="yes"/>
      <point x="137" y="-17"/>
      <point x="64" y="75"/>
    </contour>
  </outline>
</glyph>
<glyph name="four" format="2">
  <advance width="525"/>
  <unicode hex="0034"/>
  <outline>
    <contour>
      <point x="71" y="181" type="line"/>
      <point x="83" y="235" type="line"/>
      <point x="458" y="664" type="line"/>
      <point x="534" y="664" type="line"/>
      <point x="435" y="234" type="line"/>
      <point x="549" y="234" type="line"/>
      <point x="537" y="181" type="line"/>
      <point x="423" y="181" type="line"/>
      <point x="381" y="0" type="line"/>
      <point x="318" y="0" type="line"/>
      <point x="360" y="181" type="line"/>
    </contour>
    <contour>
      <point x="148" y="234" type="line"/>
      <point x="375" y="234" type="line"/>
      <point x="461" y="607" type="line"/>
      <point x="444" y="579"/>
      <point x="358" y="476"/>
      <point x="204" y="298" type="curve" smooth="yes"/>
    </contour>
  </outline>
</glyph>
<glyph name="five" format="2">
  <advance width="525"/>
  <unicode hex="0035"/>
  <outline>
    <contour>
      <point x="66" y="81" type="curve"/>
      <point x="105" y="128" type="line"/>
      <point x="134" y="66"/>
      <point x="184" y="35"/>
      <point x="254" y="35" type="curve"/>
      <point x="254" y="35"/>
      <point x="254" y="35"/>
      <point x="254" y="35" type="curve"/>
      <point x="254" y="35"/>
      <point x="254" y="35"/>
      <point x="254" y="35" type="curve"/>
      <point x="272" y="35"/>
      <point x="290" y="37"/>
      <point x="308" y="42" type="curve" smooth="yes"/>
      <point x="326" y="47"/>
      <point x="343" y="55"/>
      <point x="358" y="64" type="curve" smooth="yes"/>
      <point x="403" y="92"/>
      <point x="432" y="139"/>
      <point x="447" y="205" type="curve" smooth="yes"/>
      <point x="461" y="266"/>
      <point x="459" y="309"/>
      <point x="440" y="334" type="curve" smooth="yes"/>
      <point x="421" y="359"/>
      <point x="395" y="371"/>
      <point x="362" y="371" type="curve" smooth="yes"/>
      <point x="302" y="371"/>
      <point x="255" y="346"/>
      <point x="215" y="297" type="curve"/>
      <point x="159" y="297" type="line"/>
      <point x="241" y="655" type="line"/>
      <point x="587" y="655" type="line"/>
      <point x="575" y="602" type="line"/>
      <point x="290" y="602" type="line"/>
      <point x="237" y="372" type="line"/>
      <point x="282" y="405"/>
      <point x="328" y="422"/>
      <point x="374" y="422" type="curve" smooth="yes"/>
      <point x="480" y="422"/>
      <point x="546" y="323"/>
      <point x="519" y="204" type="curve" smooth="yes"/>
      <point x="491" y="83"/>
      <point x="366" y="-17"/>
      <point x="242" y="-17" type="curve" smooth="yes"/>
      <point x="163" y="-17"/>
      <point x="104" y="16"/>
    </contour>
  </outline>
</glyph>
<glyph name="six" format="2">
  <advance width="525"/>
  <unicode hex="0036"/>
  <outline>
    <contour>
      <point x="128" y="319" type="curve"/>
      <point x="129" y="319"/>
      <point x="129" y="320"/>
      <point x="130" y="320" type="curve"/>
      <point x="175" y="521"/>
      <point x="332" y="673"/>
      <point x="482" y="673" type="curve" smooth="yes"/>
      <point x="517" y="673"/>
      <point x="553" y="667"/>
      <point x="590" y="654" type="curve"/>
      <point x="578" y="602" type="line"/>
      <point x="540" y="616"/>
      <point x="503" y="623"/>
      <point x="468" y="623" type="curve" smooth="yes"/>
      <point x="306" y="623"/>
      <point x="212" y="434"/>
      <point x="198" y="333" type="curve"/>
      <point x="243" y="398"/>
      <point x="328" y="452"/>
      <point x="409" y="452" type="curve" smooth="yes"/>
      <point x="483" y="452"/>
      <point x="523" y="389"/>
      <point x="529" y="323" type="curve" smooth="yes"/>
      <point x="532" y="289"/>
      <point x="530" y="255"/>
      <point x="522" y="220" type="curve" smooth="yes"/>
      <point x="497" y="115"/>
      <point x="402" y="-18"/>
      <point x="261" y="-18" type="curve" smooth="yes"/>
      <point x="205" y="-18"/>
      <point x="119" y="8"/>
      <point x="110" y="151" type="curve" smooth="yes"/>
      <point x="107" y="198"/>
      <point x="113" y="254"/>
    </contour>
    <contour>
      <point x="183" y="244" type="curve"/>
      <point x="183" y="241" type="line"/>
      <point x="178" y="220"/>
      <point x="175" y="200"/>
      <point x="173" y="180" type="curve" smooth="yes"/>
      <point x="171" y="160"/>
      <point x="172" y="138"/>
      <point x="175" y="114" type="curve" smooth="yes"/>
      <point x="181" y="66"/>
      <point x="216" y="34"/>
      <point x="274" y="34" type="curve" smooth="yes"/>
      <point x="374" y="34"/>
      <point x="458" y="120"/>
      <point x="467" y="289" type="curve" smooth="yes"/>
      <point x="468" y="308"/>
      <point x="466" y="327"/>
      <point x="461" y="345" type="curve" smooth="yes"/>
      <point x="451" y="381"/>
      <point x="419" y="402"/>
      <point x="365" y="402" type="curve" smooth="yes"/>
      <point x="281" y="402"/>
      <point x="202" y="328"/>
    </contour>
  </outline>
</glyph>
<glyph name="seven" format="2">
  <advance width="525"/>
  <unicode hex="0037"/>
  <outline>
    <contour>
      <point x="182" y="600" type="curve"/>
      <point x="193" y="655" type="line"/>
      <point x="630" y="655" type="line"/>
      <point x="618" y="602" type="line"/>
      <point x="446" y="458"/>
      <point x="292" y="237"/>
      <point x="235" y="-8" type="curve"/>
      <point x="168" y="-8" type="line"/>
      <point x="220" y="216"/>
      <point x="366" y="439"/>
      <point x="576" y="600" type="curve"/>
      <point x="445" y="600"/>
      <point x="313" y="600"/>
    </contour>
  </outline>
</glyph>
<glyph name="eight" format="2">
  <advance width="525"/>
  <unicode hex="0038"/>
  <outline>
    <contour>
      <point x="85" y="181" type="curve"/>
      <point x="84" y="182"/>
      <point x="83" y="182"/>
      <point x="82" y="183" type="curve"/>
      <point x="100" y="256"/>
      <point x="165" y="324"/>
      <point x="275" y="354" type="curve"/>
      <point x="226" y="368"/>
      <point x="170" y="409"/>
      <point x="168" y="464" type="curve"/>
      <point x="159" y="565"/>
      <point x="289" y="671"/>
      <point x="416" y="671" type="curve" smooth="yes"/>
      <point x="528" y="671"/>
      <point x="602" y="594"/>
      <point x="581" y="501" type="curve" smooth="yes"/>
      <point x="564" y="429"/>
      <point x="494" y="376"/>
      <point x="409" y="353" type="curve"/>
      <point x="484" y="333"/>
      <point x="541" y="268"/>
      <point x="521" y="180" type="curve" smooth="yes"/>
      <point x="497" y="75"/>
      <point x="375" y="-17"/>
      <point x="256" y="-17" type="curve" smooth="yes"/>
      <point x="140" y="-17"/>
      <point x="59" y="69"/>
    </contour>
    <contour>
      <point x="148" y="183" type="curve"/>
      <point x="147" y="183"/>
      <point x="147" y="182"/>
      <point x="146" y="182" type="curve"/>
      <point x="124" y="87"/>
      <point x="174" y="37"/>
      <point x="264" y="37" type="curve" smooth="yes"/>
      <point x="357" y="37"/>
      <point x="429" y="91"/>
      <point x="452" y="185" type="curve" smooth="yes"/>
      <point x="463" y="232"/>
      <point x="457" y="268"/>
      <point x="434" y="293" type="curve" smooth="yes"/>
      <point x="411" y="318"/>
      <point x="378" y="331"/>
      <point x="334" y="331" type="curve" smooth="yes"/>
      <point x="256" y="331"/>
      <point x="172" y="285"/>
    </contour>
    <contour>
      <point x="229" y="502" type="curve"/>
      <point x="229" y="502"/>
      <point x="229" y="501"/>
      <point x="229" y="501" type="curve"/>
      <point x="213" y="436"/>
      <point x="245" y="379"/>
      <point x="343" y="379" type="curve" smooth="yes"/>
      <point x="430" y="379"/>
      <point x="498" y="426"/>
      <point x="516" y="502" type="curve" smooth="yes"/>
      <point x="523" y="533"/>
      <point x="519" y="561"/>
      <point x="503" y="586" type="curve" smooth="yes"/>
      <point x="487" y="611" name=".hr01"/>
      <point x="453" y="623"/>
      <point x="401" y="623" type="curve" smooth="yes"/>
      <point x="285" y="623"/>
      <point x="241" y="553"/>
    </contour>
  </outline>
</glyph>
<glyph name="nine" format="2">
  <advance width="525"/>
  <unicode hex="0039"/>
  <outline>
    <contour>
      <point x="155" y="438" type="curve"/>
      <point x="155" y="437"/>
      <point x="156" y="436"/>
      <point x="156" y="435" type="curve"/>
      <point x="186" y="568"/>
      <point x="308" y="670"/>
      <point x="421" y="670" type="curve" smooth="yes"/>
      <point x="500" y="670"/>
      <point x="568" y="629"/>
      <point x="568" y="476" type="curve" smooth="yes"/>
      <point x="568" y="221"/>
      <point x="393" y="-18"/>
      <point x="213" y="-18" type="curve" smooth="yes"/>
      <point x="164" y="-18"/>
      <point x="121" y="-3"/>
      <point x="84" y="28" type="curve"/>
      <point x="120" y="74" type="line"/>
      <point x="132" y="62"/>
      <point x="167" y="34"/>
      <point x="226" y="34" type="curve" smooth="yes"/>
      <point x="397" y="34"/>
      <point x="467" y="249"/>
      <point x="480" y="323" type="curve"/>
      <point x="433" y="258"/>
      <point x="350" y="204"/>
      <point x="267" y="204" type="curve" smooth="yes"/>
      <point x="222" y="204"/>
      <point x="189" y="225"/>
      <point x="168" y="267" type="curve"/>
      <point x="168" y="267"/>
      <point x="168" y="267"/>
      <point x="168" y="267" type="curve"/>
      <point x="144" y="314"/>
      <point x="140" y="371"/>
    </contour>
    <contour>
      <point x="220" y="424" type="curve"/>
      <point x="219" y="424"/>
      <point x="219" y="424"/>
      <point x="218" y="424" type="curve"/>
      <point x="195" y="325"/>
      <point x="215" y="269"/>
      <point x="278" y="255" type="curve" smooth="yes"/>
      <point x="288" y="253"/>
      <point x="300" y="252"/>
      <point x="313" y="252" type="curve" smooth="yes"/>
      <point x="433" y="252"/>
      <point x="499" y="369"/>
      <point x="504" y="480" type="curve" smooth="yes"/>
      <point x="505" y="502"/>
      <point x="503" y="524"/>
      <point x="499" y="546" type="curve" smooth="yes"/>
      <point x="491" y="590"/>
      <point x="459" y="619"/>
      <point x="410" y="619" type="curve" smooth="yes"/>
      <point x="313" y="619"/>
      <point x="250" y="554"/>
    </contour>
  </outline>
</glyph>
<glyph name="colon" format="2">
  <advance width="292"/>
  <unicode hex="003A"/>
  <outline>
    <contour>
      <point x="106" y="0" type="line"/>
      <point x="124" y="78" type="line"/>
      <point x="202" y="78" type="line"/>
      <point x="184" y="0" type="line"/>
    </contour>
    <contour>
      <point x="197" y="394" type="line"/>
      <point x="215" y="472" type="line"/>
      <point x="293" y="472" type="line"/>
      <point x="275" y="394" type="line"/>
    </contour>
  </outline>
</glyph>
<glyph name="less" format="2">
  <advance width="642"/>
  <unicode hex="003C"/>
  <outline>
    <contour>
      <point x="149" y="264" type="curve"/>
      <point x="148" y="263"/>
      <point x="147" y="262"/>
      <point x="146" y="261" type="curve"/>
      <point x="151" y="274"/>
      <point x="152" y="278"/>
      <point x="179" y="293" type="curve" smooth="yes"/>
      <point x="634" y="549" type="line" smooth="yes"/>
      <point x="643" y="554"/>
      <point x="650" y="556"/>
      <point x="655" y="556" type="curve" smooth="yes"/>
      <point x="662" y="556"/>
      <point x="667" y="554"/>
      <point x="670" y="549" type="curve" smooth="yes"/>
      <point x="673" y="544"/>
      <point x="674" y="538"/>
      <point x="673" y="531" type="curve"/>
      <point x="671" y="522"/>
      <point x="660" y="512"/>
      <point x="641" y="501" type="curve" smooth="yes"/>
      <point x="284" y="300" type="line"/>
      <point x="251" y="280"/>
      <point x="229" y="268"/>
      <point x="218" y="263" type="curve"/>
      <point x="247" y="240"/>
      <point x="268" y="224"/>
      <point x="282" y="213" type="curve" smooth="yes"/>
      <point x="532" y="23" type="line" smooth="yes"/>
      <point x="546" y="12"/>
      <point x="552" y="2"/>
      <point x="550" y="-7" type="curve"/>
      <point x="548" y="-21"/>
      <point x="533" y="-32"/>
      <point x="520" y="-32" type="curve" smooth="yes"/>
      <point x="515" y="-32"/>
      <point x="505" y="-26"/>
      <point x="490" y="-15" type="curve" smooth="yes"/>
      <point x="166" y="231" type="line"/>
      <point x="145" y="252"/>
      <point x="149" y="255"/>
    </contour>
  </outline>
</glyph>
<glyph name="equal" format="2">
  <advance width="642"/>
  <unicode hex="003D"/>
  <outline>
    <contour>
      <point x="97" y="166" type="curve" smooth="yes"/>
      <point x="101" y="183"/>
      <point x="114" y="192"/>
      <point x="136" y="192" type="curve" smooth="yes"/>
      <point x="596" y="192" type="line" smooth="yes"/>
      <point x="616" y="192"/>
      <point x="624" y="183"/>
      <point x="620" y="166" type="curve" smooth="yes"/>
      <point x="616" y="150"/>
      <point x="603" y="142"/>
      <point x="582" y="142" type="curve" smooth="yes"/>
      <point x="125" y="142" type="line" smooth="yes"/>
      <point x="102" y="142"/>
      <point x="93" y="150"/>
    </contour>
    <contour>
      <point x="142" y="360" type="curve"/>
      <point x="142" y="360"/>
      <point x="141" y="360"/>
      <point x="141" y="360" type="curve"/>
      <point x="147" y="384"/>
      <point x="163" y="386"/>
      <point x="231" y="386" type="curve" smooth="yes"/>
      <point x="641" y="386" type="line" smooth="yes"/>
      <point x="661" y="386"/>
      <point x="669" y="377"/>
      <point x="665" y="360" type="curve" smooth="yes"/>
      <point x="661" y="344"/>
      <point x="648" y="336"/>
      <point x="627" y="336" type="curve" smooth="yes"/>
      <point x="170" y="336" type="line" smooth="yes"/>
      <point x="147" y="336"/>
      <point x="138" y="344"/>
    </contour>
  </outline>
</glyph>
<glyph name="greater" format="2">
  <advance width="642"/>
  <unicode hex="003E"/>
  <outline>
    <contour>
      <point x="87" y="-5" type="curve"/>
      <point x="88" y="-6"/>
      <point x="89" y="-6"/>
      <point x="90" y="-7" type="curve"/>
      <point x="95" y="14"/>
      <point x="162" y="45"/>
      <point x="254" y="98" type="curve" smooth="yes"/>
      <point x="410" y="188" type="line" smooth="yes"/>
      <point x="457" y="215"/>
      <point x="502" y="239"/>
      <point x="544" y="261" type="curve"/>
      <point x="539" y="265"/>
      <point x="513" y="285"/>
      <point x="470" y="318" type="curve" smooth="yes"/>
      <point x="230" y="501" type="line" smooth="yes"/>
      <point x="216" y="512"/>
      <point x="210" y="522"/>
      <point x="212" y="531" type="curve"/>
      <point x="214" y="544"/>
      <point x="229" y="557" name=".hr01"/>
      <point x="242" y="557" type="curve" smooth="yes"/>
      <point x="251" y="557"/>
      <point x="269" y="543"/>
      <point x="284" y="532" type="curve" smooth="yes"/>
      <point x="596" y="294" type="line" smooth="yes"/>
      <point x="608" y="285"/>
      <point x="615" y="276"/>
      <point x="615" y="272" type="curve" smooth="yes"/>
      <point x="615" y="249"/>
      <point x="610" y="248"/>
      <point x="581" y="232" type="curve" smooth="yes"/>
      <point x="127" y="-24" type="line"/>
      <point x="116" y="-29"/>
      <point x="109" y="-31"/>
      <point x="105" y="-31" type="curve" smooth="yes"/>
      <point x="91" y="-31"/>
      <point x="85" y="-18"/>
    </contour>
  </outline>
</glyph>
<glyph name="question" format="2">
  <advance width="496"/>
  <unicode hex="003F"/>
  <outline>
    <contour>
      <point x="208" y="650" type="line"/>
      <point x="206" y="655" type="line"/>
      <point x="269" y="690"/>
      <point x="333" y="708"/>
      <point x="397" y="708" type="curve" smooth="yes"/>
      <point x="525" y="708"/>
      <point x="560" y="652"/>
      <point x="566" y="606" type="curve" smooth="yes"/>
      <point x="575" y="532"/>
      <point x="525" y="474"/>
      <point x="490" y="448" type="curve" smooth="yes"/>
      <point x="472" y="435" type="line" smooth="yes"/>
      <point x="385" y="373"/>
      <point x="331" y="304"/>
      <point x="311" y="213" type="curve" smooth="yes"/>
      <point x="303" y="177" type="line"/>
      <point x="241" y="177" type="line"/>
      <point x="273" y="306"/>
      <point x="318" y="396"/>
      <point x="436" y="473" type="curve"/>
      <point x="446" y="478"/>
      <point x="457" y="486"/>
      <point x="472" y="501" type="curve" smooth="yes"/>
      <point x="476" y="505"/>
      <point x="480" y="510"/>
      <point x="484" y="515" type="curve" smooth="yes"/>
      <point x="488" y="520"/>
      <point x="491" y="526"/>
      <point x="494" y="533" type="curve" smooth="yes"/>
      <point x="497" y="540"/>
      <point x="499" y="547"/>
      <point x="500" y="554" type="curve"/>
      <point x="518" y="630"/>
      <point x="472" y="652"/>
      <point x="393" y="652" type="curve" smooth="yes"/>
      <point x="333" y="652"/>
      <point x="274" y="634"/>
      <point x="215" y="597" type="curve"/>
    </contour>
    <contour>
      <point x="192" y="5" type="line"/>
      <point x="210" y="83" type="line"/>
      <point x="288" y="83" type="line"/>
      <point x="270" y="5" type="line"/>
    </contour>
  </outline>
</glyph>
<glyph name="at" format="2">
  <advance width="700"/>
  <unicode hex="0040"/>
  <outline>
    <contour>
      <point x="138" y="347" type="curve"/>
      <point x="137" y="347"/>
      <point x="137" y="347"/>
      <point x="136" y="347" type="curve"/>
      <point x="181" y="542"/>
      <point x="380" y="703"/>
      <point x="568" y="703" type="curve" smooth="yes"/>
      <point x="715" y="703"/>
      <point x="780" y="607"/>
      <point x="723" y="353" type="curve" smooth="yes"/>
      <point x="691" y="212"/>
      <point x="575" y="123"/>
      <point x="479" y="123" type="curve" smooth="yes"/>
      <point x="375" y="123"/>
      <point x="312" y="223"/>
      <point x="340" y="346" type="curve" smooth="yes"/>
      <point x="367" y="466"/>
      <point x="477" y="570"/>
      <point x="582" y="570" type="curve" smooth="yes"/>
      <point x="619" y="570"/>
      <point x="652" y="557"/>
      <point x="681" y="531" type="curve"/>
      <point x="672" y="612"/>
      <point x="630" y="652"/>
      <point x="556" y="652" type="curve" smooth="yes"/>
      <point x="408" y="652"/>
      <point x="238" y="519"/>
      <point x="198" y="347" type="curve" smooth="yes"/>
      <point x="179" y="266"/>
      <point x="190" y="195"/>
      <point x="231" y="134" type="curve" smooth="yes"/>
      <point x="272" y="73"/>
      <point x="335" y="42"/>
      <point x="420" y="42" type="curve" smooth="yes"/>
      <point x="462" y="42"/>
      <point x="516" y="51"/>
      <point x="545" y="61" type="curve" smooth="yes"/>
      <point x="560" y="66"/>
      <point x="574" y="71"/>
      <point x="586" y="76" type="curve" smooth="yes"/>
      <point x="614" y="88"/>
      <point x="602" y="84"/>
      <point x="627" y="84" type="curve" smooth="yes"/>
      <point x="660" y="84" type="line"/>
      <point x="581" y="23"/>
      <point x="497" y="-7"/>
      <point x="407" y="-7" type="curve" smooth="yes"/>
      <point x="216" y="-7"/>
      <point x="92" y="147"/>
    </contour>
    <contour>
      <point x="400" y="348" type="curve"/>
      <point x="400" y="347"/>
      <point x="399" y="347"/>
      <point x="399" y="346" type="curve"/>
      <point x="377" y="248"/>
      <point x="418" y="173"/>
      <point x="489" y="173" type="curve" smooth="yes"/>
      <point x="524" y="173"/>
      <point x="558" y="190"/>
      <point x="591" y="223" type="curve"/>
      <point x="591" y="223"/>
      <point x="591" y="223"/>
      <point x="591" y="223" type="curve"/>
      <point x="624" y="256"/>
      <point x="646" y="297"/>
      <point x="657" y="346" type="curve" smooth="yes"/>
      <point x="668" y="394"/>
      <point x="665" y="435"/>
      <point x="647" y="469" type="curve" smooth="yes"/>
      <point x="629" y="503"/>
      <point x="603" y="520"/>
      <point x="568" y="520" type="curve" smooth="yes"/>
      <point x="498" y="520"/>
      <point x="421" y="442"/>
    </contour>
  </outline>
</glyph>
<glyph name="A" format="2">
  <advance width="675"/>
  <unicode hex="0041"/>
  <outline>
    <contour>
      <point x="29" y="0" type="line"/>
      <point x="99" y="0" type="line"/>
      <point x="489" y="639" type="line"/>
      <point x="476" y="641" type="line"/>
      <point x="572" y="0" type="line"/>
      <point x="645" y="0" type="line"/>
      <point x="537" y="703" type="line"/>
      <point x="461" y="703" type="line"/>
    </contour>
    <contour>
      <point x="548" y="262" type="line"/>
      <point x="241" y="262" type="line"/>
      <point x="207" y="210" type="line"/>
      <point x="554" y="210" type="line"/>
    </contour>
  </outline>
</glyph>
<glyph name="B" format="2">
  <advance width="687"/>
  <unicode hex="0042"/>
  <outline>
    <contour>
      <point x="99" y="0" type="line"/>
      <point x="264" y="695" type="line"/>
      <point x="521" y="695" type="line" smooth="yes"/>
      <point x="643" y="695"/>
      <point x="728" y="633"/>
      <point x="728" y="543" type="curve" smooth="yes"/>
      <point x="728" y="460"/>
      <point x="645" y="395"/>
      <point x="504" y="365" type="curve"/>
      <point x="616" y="352"/>
      <point x="678" y="298"/>
      <point x="678" y="217" type="curve" smooth="yes"/>
      <point x="678" y="87"/>
      <point x="547" y="0"/>
      <point x="350" y="0" type="curve" smooth="yes"/>
    </contour>
    <contour>
      <point x="183" y="50" type="line"/>
      <point x="352" y="50" type="line" smooth="yes"/>
      <point x="510" y="50"/>
      <point x="613" y="114"/>
      <point x="613" y="212" type="curve" smooth="yes"/>
      <point x="613" y="288"/>
      <point x="517" y="336"/>
      <point x="366" y="336" type="curve" smooth="yes"/>
      <point x="249" y="336" type="line"/>
    </contour>
    <contour>
      <point x="260" y="385" type="line"/>
      <point x="367" y="385" type="line" smooth="yes"/>
      <point x="542" y="385"/>
      <point x="661" y="445"/>
      <point x="661" y="533" type="curve" smooth="yes"/>
      <point x="661" y="608"/>
      <point x="607" y="645"/>
      <point x="498" y="645" type="curve" smooth="yes"/>
      <point x="321" y="645" type="line"/>
    </contour>
  </outline>
  <guideline angle="256.759" x="320" y="640"/>
  <guideline angle="0" x="0" y="645"/>
</glyph>
<glyph name="D" format="2">
  <advance width="746"/>
  <unicode hex="0044"/>
  <outline>
    <contour>
      <point x="98" y="0" type="line"/>
      <point x="256" y="695" type="line"/>
      <point x="504" y="695" type="line" smooth="yes"/>
      <point x="690" y="695"/>
      <point x="813" y="549"/>
      <point x="765" y="341" type="curve" smooth="yes"/>
      <point x="719" y="144"/>
      <point x="537" y="0"/>
      <point x="348" y="0" type="curve" smooth="yes"/>
    </contour>
    <contour>
      <point x="177" y="53" type="line"/>
      <point x="302" y="53" type="line" smooth="yes"/>
      <point x="316" y="53"/>
      <point x="330" y="53"/>
      <point x="344" y="53" type="curve" smooth="yes"/>
      <point x="591" y="53"/>
      <point x="699" y="260"/>
      <point x="705" y="418" type="curve" smooth="yes"/>
      <point x="709" y="529"/>
      <point x="655" y="641"/>
      <point x="481" y="641" type="curve" smooth="yes"/>
      <point x="313" y="641" type="line"/>
    </contour>
  </outline>
</glyph>
<glyph name="G" format="2">
  <advance width="700"/>
  <unicode hex="0047"/>
  <outline>
    <contour>
      <point x="161" y="347" type="curve"/>
      <point x="161" y="347"/>
      <point x="160" y="346"/>
      <point x="160" y="346" type="curve"/>
      <point x="205" y="537"/>
      <point x="381" y="710"/>
      <point x="576" y="710" type="curve" smooth="yes"/>
      <point x="645" y="710"/>
      <point x="711" y="694"/>
      <point x="773" y="662" type="curve"/>
      <point x="745" y="593" type="line"/>
      <point x="693" y="636"/>
      <point x="633" y="657"/>
      <point x="566" y="657" type="curve" smooth="yes"/>
      <point x="411" y="657"/>
      <point x="268" y="511"/>
      <point x="231" y="346" type="curve" smooth="yes"/>
      <point x="192" y="173"/>
      <point x="275" y="35"/>
      <point x="418" y="35" type="curve" smooth="yes"/>
      <point x="504" y="35"/>
      <point x="573" y="59"/>
      <point x="579" y="62" type="curve"/>
      <point x="627" y="274" type="line"/>
      <point x="470" y="274" type="line"/>
      <point x="483" y="327" type="line"/>
      <point x="705" y="327" type="line"/>
      <point x="636" y="31" type="line"/>
      <point x="556" y="-2"/>
      <point x="480" y="-18"/>
      <point x="407" y="-18" type="curve" smooth="yes"/>
      <point x="221" y="-18"/>
      <point x="115" y="147"/>
    </contour>
  </outline>
</glyph>
<glyph name="L" format="2">
  <advance width="567"/>
  <unicode hex="004C"/>
  <outline>
    <contour>
      <point x="98" y="0" type="line"/>
      <point x="258" y="695" type="line"/>
      <point x="328" y="695" type="line"/>
      <point x="180" y="53" type="line"/>
      <point x="535" y="53" type="line"/>
      <point x="523" y="0" type="line"/>
    </contour>
  </outline>
</glyph>
<glyph name="R" format="2">
  <advance width="671"/>
  <unicode hex="0052"/>
  <outline>
    <contour>
      <point x="98" y="0" type="line"/>
      <point x="255" y="694" type="line"/>
      <point x="485" y="694" type="line" smooth="yes"/>
      <point x="651" y="694"/>
      <point x="706" y="627"/>
      <point x="724" y="567" type="curve" smooth="yes"/>
      <point x="730" y="546"/>
      <point x="731" y="526"/>
      <point x="726" y="506" type="curve" smooth="yes"/>
      <point x="706" y="422"/>
      <point x="603" y="348"/>
      <point x="493" y="330" type="curve"/>
      <point x="519" y="269"/>
      <point x="614" y="61"/>
      <point x="641" y="0" type="curve"/>
      <point x="571" y="0" type="line"/>
      <point x="429" y="322" type="line"/>
      <point x="241" y="322" type="line"/>
      <point x="167" y="0" type="line"/>
    </contour>
    <contour>
      <point x="250" y="372" type="line"/>
      <point x="396" y="372" type="line" smooth="yes"/>
      <point x="551" y="372"/>
      <point x="639" y="417"/>
      <point x="660" y="506" type="curve" smooth="yes"/>
      <point x="678" y="586"/>
      <point x="609" y="640"/>
      <point x="489" y="640" type="curve" smooth="yes"/>
      <point x="312" y="640" type="line"/>
    </contour>
  </outline>
</glyph>
<glyph name="U" format="2">
  <advance width="692"/>
  <unicode hex="0055"/>
  <outline>
    <contour>
      <point x="155" y="247" type="curve" smooth="yes"/>
      <point x="256" y="697" type="line"/>
      <point x="326" y="697" type="line"/>
      <point x="221" y="239" type="line" smooth="yes"/>
      <point x="212" y="201"/>
      <point x="210" y="168"/>
      <point x="215" y="140" type="curve" smooth="yes"/>
      <point x="225" y="83"/>
      <point x="261" y="59"/>
      <point x="297" y="47" type="curve" smooth="yes"/>
      <point x="315" y="41"/>
      <point x="334" y="38"/>
      <point x="355" y="38" type="curve" smooth="yes"/>
      <point x="436" y="38"/>
      <point x="548" y="80"/>
      <point x="583" y="241" type="curve" smooth="yes"/>
      <point x="688" y="696" type="line" name=".hr01"/>
      <point x="753" y="696" type="line"/>
      <point x="649" y="243" type="line" smooth="yes"/>
      <point x="612" y="81"/>
      <point x="466" y="-16"/>
      <point x="343" y="-16" type="curve" smooth="yes"/>
      <point x="198" y="-16"/>
      <point x="121" y="98"/>
    </contour>
  </outline>
</glyph>
<glyph name="Y" format="2">
  <advance width="675"/>
  <unicode hex="0059"/>
  <outline>
    <contour>
      <point x="162" y="695" type="line"/>
      <point x="247" y="695" type="line"/>
      <point x="282" y="624" type="line"/>
      <point x="285" y="616"/>
      <point x="291" y="604"/>
      <point x="299" y="589" type="curve" smooth="yes"/>
      <point x="307" y="574"/>
      <point x="313" y="562"/>
      <point x="317" y="554" type="curve" smooth="yes"/>
      <point x="368" y="448" type="line" smooth="yes"/>
      <point x="391" y="401"/>
      <point x="408" y="366"/>
      <point x="419" y="342" type="curve"/>
      <point x="440" y="364"/>
      <point x="552" y="482"/>
      <point x="755" y="695" type="curve"/>
      <point x="831" y="695" type="line"/>
      <point x="435" y="278" type="line"/>
      <point x="371" y="0" type="line"/>
      <point x="302" y="0" type="line"/>
      <point x="366" y="278" type="line"/>
    </contour>
  </outline>
</glyph>
<glyph name="Z" format="2">
  <advance width="642"/>
  <unicode hex="005A"/>
  <outline>
    <contour>
      <point x="58" y="0" type="line"/>
      <point x="66" y="36" type="line"/>
      <point x="637" y="643" type="line"/>
      <point x="221" y="643" type="line"/>
      <point x="233" y="695" type="line"/>
      <point x="743" y="695" type="line"/>
      <point x="735" y="660" type="line"/>
      <point x="164" y="53" type="line"/>
      <point x="601" y="53" type="line"/>
      <point x="589" y="0" type="line"/>
    </contour>
  </outline>
</glyph>
<glyph name="bracketleft" format="2">
  <advance width="294"/>
  <unicode hex="005B"/>
  <outline>
    <contour>
      <point x="62" y="-222" type="line"/>
      <point x="286" y="750" type="line"/>
      <point x="443" y="750" type="line"/>
      <point x="432" y="700" type="line"/>
      <point x="338" y="700" type="line"/>
      <point x="136" y="-172" type="line"/>
      <point x="230" y="-172" type="line"/>
      <point x="219" y="-222" type="line"/>
    </contour>
  </outline>
</glyph>
<glyph name="backslash" format="2">
  <advance width="525"/>
  <unicode hex="005C"/>
  <outline>
    <contour>
      <point x="226" y="724" type="curve"/>
      <point x="226" y="722"/>
      <point x="227" y="721"/>
      <point x="227" y="719" type="curve"/>
      <point x="230" y="734"/>
      <point x="239" y="742"/>
      <point x="254" y="744" type="curve"/>
      <point x="262" y="744"/>
      <point x="268" y="739"/>
      <point x="271" y="739" type="curve"/>
      <point x="272" y="738"/>
      <point x="276" y="728"/>
      <point x="276" y="727" type="curve" smooth="yes"/>
      <point x="276" y="726"/>
      <point x="277" y="723"/>
      <point x="278" y="718" type="curve" smooth="yes"/>
      <point x="290" y="658"/>
      <point x="334" y="360"/>
      <point x="418" y="-172" type="curve"/>
      <point x="421" y="-184" name=".hr01"/>
      <point x="422" y="-193"/>
      <point x="421" y="-200" type="curve"/>
      <point x="419" y="-209"/>
      <point x="415" y="-215"/>
      <point x="410" y="-219" type="curve" smooth="yes"/>
      <point x="405" y="-223"/>
      <point x="397" y="-225"/>
      <point x="389" y="-225" type="curve"/>
      <point x="385" y="-224"/>
      <point x="382" y="-223"/>
      <point x="379" y="-221" type="curve" smooth="yes"/>
      <point x="373" y="-217"/>
      <point x="372" y="-207"/>
      <point x="370" y="-203" type="curve" smooth="yes"/>
      <point x="369" y="-201"/>
      <point x="368" y="-197"/>
      <point x="367" y="-191" type="curve" smooth="yes"/>
      <point x="366" y="-185"/>
      <point x="366" y="-181"/>
      <point x="366" y="-179" type="curve"/>
      <point x="227" y="705" type="line"/>
      <point x="225" y="712"/>
      <point x="225" y="718"/>
    </contour>
  </outline>
</glyph>
<glyph name="bracketright" format="2">
  <advance width="294"/>
  <unicode hex="005D"/>
  <outline>
    <contour>
      <point x="-17" y="-172" type="line"/>
      <point x="77" y="-172" type="line"/>
      <point x="279" y="700" type="line"/>
      <point x="185" y="700" type="line"/>
      <point x="196" y="750" type="line"/>
      <point x="353" y="750" type="line"/>
      <point x="129" y="-222" type="line"/>
      <point x="-28" y="-222" type="line"/>
    </contour>
  </outline>
</glyph>
<glyph name="asciicircum" format="2">
  <advance width="642"/>
  <unicode hex="005E"/>
  <outline>
    <contour>
      <point x="247" y="472" type="line"/>
      <point x="437" y="619" type="line"/>
      <point x="488" y="619" type="line"/>
      <point x="611" y="471" type="line"/>
      <point x="561" y="471" type="line"/>
      <point x="455" y="590" type="line"/>
      <point x="425" y="568"/>
      <point x="327" y="493"/>
      <point x="297" y="472" type="curve"/>
    </contour>
  </outline>
</glyph>
<glyph name="underscore" format="2">
  <advance width="817"/>
  <unicode hex="005F"/>
  <outline>
    <contour>
      <point x="31" y="-244" type="curve"/>
      <point x="30" y="-245"/>
      <point x="28" y="-246"/>
      <point x="27" y="-247" type="curve"/>
      <point x="32" y="-226"/>
      <point x="54" y="-227"/>
      <point x="87" y="-227" type="curve" smooth="yes"/>
      <point x="637" y="-227" type="line" smooth="yes"/>
      <point x="639" y="-227"/>
      <point x="640" y="-227"/>
      <point x="642" y="-227" type="curve" smooth="yes"/>
      <point x="644" y="-227"/>
      <point x="645" y="-227"/>
      <point x="647" y="-227" type="curve" smooth="yes"/>
      <point x="649" y="-227"/>
      <point x="650" y="-227"/>
      <point x="652" y="-227" type="curve" smooth="yes"/>
      <point x="654" y="-227"/>
      <point x="656" y="-227"/>
      <point x="657" y="-227" type="curve" smooth="yes"/>
      <point x="658" y="-227"/>
      <point x="659" y="-227"/>
      <point x="661" y="-227" type="curve" smooth="yes"/>
      <point x="662" y="-227"/>
      <point x="672" y="-230"/>
      <point x="672" y="-238" type="curve" smooth="yes"/>
      <point x="672" y="-266"/>
      <point x="648" y="-264"/>
      <point x="611" y="-264" type="curve" smooth="yes"/>
      <point x="55" y="-264" type="line" smooth="yes"/>
      <point x="36" y="-264"/>
      <point x="28" y="-257"/>
    </contour>
  </outline>
</glyph>
<glyph name="grave" format="2">
  <advance width="525"/>
  <unicode hex="0060"/>
  <outline>
    <contour>
      <point x="336" y="589" type="curve" smooth="yes"/>
      <point x="255" y="667" type="line"/>
      <point x="277" y="667"/>
      <point x="298" y="666" name=".hr01"/>
      <point x="320" y="666" type="curve"/>
      <point x="440" y="537" type="line"/>
      <point x="402" y="537" type="line" smooth="yes"/>
      <point x="385" y="537"/>
      <point x="395" y="532"/>
    </contour>
  </outline>
</glyph>
<glyph name="b" format="2">
  <advance width="517"/>
  <unicode hex="0062"/>
  <outline>
    <contour>
      <point x="80" y="0" type="line"/>
      <point x="239" y="693" type="line"/>
      <point x="302" y="693" type="line"/>
      <point x="236" y="403" type="line"/>
      <point x="289" y="453"/>
      <point x="345" y="478"/>
      <point x="403" y="478" type="curve" smooth="yes"/>
      <point x="482" y="478"/>
      <point x="532" y="401"/>
      <point x="532" y="325" type="curve" smooth="yes"/>
      <point x="532" y="166"/>
      <point x="412" y="-8" name=".hr01"/>
      <point x="272" y="-8" type="curve" smooth="yes"/>
      <point x="220" y="-8"/>
      <point x="183" y="17"/>
      <point x="160" y="66" type="curve"/>
      <point x="145" y="0" type="line" name=".hr02"/>
    </contour>
    <contour>
      <point x="222" y="340" type="curve" smooth="yes"/>
      <point x="173" y="129" type="line"/>
      <point x="173" y="78"/>
      <point x="188" y="34" name=".hr03"/>
      <point x="251" y="34" type="curve" smooth="yes"/>
      <point x="381" y="34"/>
      <point x="468" y="175"/>
      <point x="468" y="300" type="curve" smooth="yes"/>
      <point x="468" y="379"/>
      <point x="428" y="426"/>
      <point x="353" y="426" type="curve" smooth="yes"/>
      <point x="282" y="426"/>
      <point x="229" y="373"/>
    </contour>
  </outline>
</glyph>
<glyph name="d" format="2">
  <advance width="517"/>
  <unicode hex="0064"/>
  <outline>
    <contour>
      <point x="91" y="155" type="curve" smooth="yes"/>
      <point x="91" y="283"/>
      <point x="188" y="480"/>
      <point x="346" y="480" type="curve" smooth="yes"/>
      <point x="399" y="480"/>
      <point x="439" y="457"/>
      <point x="467" y="410" type="curve"/>
      <point x="532" y="695" type="line"/>
      <point x="595" y="695" type="line"/>
      <point x="435" y="0" type="line"/>
      <point x="371" y="0" type="line"/>
      <point x="387" y="72" type="line"/>
      <point x="338" y="18"/>
      <point x="284" y="-9" name=".hr01"/>
      <point x="226" y="-9" type="curve" smooth="yes"/>
      <point x="148" y="-9"/>
      <point x="91" y="55"/>
    </contour>
    <contour>
      <point x="360" y="430" type="curve" smooth="yes"/>
      <point x="250" y="430"/>
      <point x="156" y="319"/>
      <point x="156" y="164" type="curve" smooth="yes"/>
      <point x="156" y="95"/>
      <point x="197" y="40"/>
      <point x="271" y="40" type="curve" smooth="yes"/>
      <point x="333" y="40"/>
      <point x="394" y="98"/>
      <point x="402" y="133" type="curve" smooth="yes"/>
      <point x="455" y="366" type="line"/>
      <point x="446" y="404"/>
      <point x="407" y="430"/>
    </contour>
  </outline>
</glyph>
<glyph name="f" format="2">
  <advance width="321"/>
  <unicode hex="0066"/>
  <outline>
    <contour>
      <point x="125" y="422" type="line"/>
      <point x="135" y="473" type="line"/>
      <point x="220" y="473" type="line"/>
      <point x="235" y="537" type="line" smooth="yes"/>
      <point x="239" y="554"/>
      <point x="243" y="567"/>
      <point x="246" y="576" type="curve" smooth="yes"/>
      <point x="269" y="645"/>
      <point x="355" y="704"/>
      <point x="442" y="704" type="curve" smooth="yes"/>
      <point x="466" y="704"/>
      <point x="493" y="701"/>
      <point x="522" y="696" type="curve" name=".hr01"/>
      <point x="509" y="639" type="line"/>
      <point x="480" y="648"/>
      <point x="453" y="653" name=".hr02"/>
      <point x="428" y="653" type="curve" smooth="yes"/>
      <point x="413" y="653"/>
      <point x="398" y="651"/>
      <point x="382" y="647" type="curve" smooth="yes"/>
      <point x="330" y="633"/>
      <point x="313" y="610"/>
      <point x="301" y="544" type="curve"/>
      <point x="284" y="472" type="line"/>
      <point x="409" y="472" type="line"/>
      <point x="397" y="422" type="line"/>
      <point x="274" y="422" type="line"/>
      <point x="177" y="0" type="line"/>
      <point x="113" y="0" type="line"/>
      <point x="210" y="422" type="line"/>
    </contour>
  </outline>
</glyph>
<glyph name="g" format="2">
  <advance width="517"/>
  <unicode hex="0067"/>
  <outline>
    <contour>
      <point x="236" y="16" type="curve" smooth="yes"/>
      <point x="137" y="16"/>
      <point x="71" y="115"/>
      <point x="98" y="235" type="curve" smooth="yes"/>
      <point x="123" y="347"/>
      <point x="222" y="479"/>
      <point x="353" y="479" type="curve" smooth="yes"/>
      <point x="407" y="479"/>
      <point x="443" y="450"/>
      <point x="461" y="392" type="curve"/>
      <point x="481" y="479" type="line"/>
      <point x="544" y="479" type="line"/>
      <point x="435" y="8" type="line" smooth="yes"/>
      <point x="409" y="-109"/>
      <point x="313" y="-185"/>
      <point x="214" y="-185" type="curve" smooth="yes"/>
      <point x="153" y="-185"/>
      <point x="95" y="-170"/>
      <point x="40" y="-140" type="curve"/>
      <point x="52" y="-86" type="line"/>
      <point x="115" y="-121"/>
      <point x="154" y="-135"/>
      <point x="226" y="-135" type="curve" smooth="yes"/>
      <point x="325" y="-135"/>
      <point x="360" y="-58"/>
      <point x="387" y="68" type="curve" smooth="yes"/>
      <point x="399" y="125" type="line"/>
      <point x="364" y="69"/>
      <point x="306" y="16"/>
    </contour>
    <contour>
      <point x="370" y="428" type="curve" smooth="yes"/>
      <point x="285" y="428"/>
      <point x="181" y="338"/>
      <point x="166" y="233" type="curve"/>
      <point x="149" y="158"/>
      <point x="182" y="63"/>
      <point x="275" y="63" type="curve" smooth="yes"/>
      <point x="363" y="63"/>
      <point x="406" y="167"/>
      <point x="429" y="247" type="curve"/>
      <point x="444" y="313" type="line" smooth="yes"/>
      <point x="450" y="338"/>
      <point x="447" y="363"/>
      <point x="436" y="389" type="curve" smooth="yes"/>
      <point x="425" y="415"/>
      <point x="403" y="428"/>
    </contour>
  </outline>
</glyph>
<glyph name="h" format="2">
  <advance width="517"/>
  <unicode hex="0068"/>
  <outline>
    <contour>
      <point x="80" y="0" type="line"/>
      <point x="239" y="695" type="line"/>
      <point x="302" y="695" type="line"/>
      <point x="239" y="421" type="line"/>
      <point x="238" y="416"/>
      <point x="237" y="409"/>
      <point x="235" y="399" type="curve" smooth="yes"/>
      <point x="231" y="377" type="line"/>
      <point x="264" y="426"/>
      <point x="324" y="478"/>
      <point x="402" y="478" type="curve" smooth="yes"/>
      <point x="487" y="478"/>
      <point x="513" y="441"/>
      <point x="516" y="396" type="curve" smooth="yes"/>
      <point x="518" y="360"/>
      <point x="513" y="348"/>
      <point x="507" y="314" type="curve"/>
      <point x="434" y="-1" type="line" name=".hr01"/>
      <point x="370" y="-1" type="line"/>
      <point x="442" y="310" type="line" smooth="yes"/>
      <point x="460" y="387"/>
      <point x="443" y="429"/>
      <point x="356" y="429" type="curve" smooth="yes"/>
      <point x="264" y="429"/>
      <point x="228" y="337"/>
      <point x="214" y="300" type="curve"/>
      <point x="145" y="0" type="line" name=".hr02"/>
    </contour>
  </outline>
</glyph>
<glyph name="j" format="2">
  <advance width="254"/>
  <unicode hex="006A"/>
  <outline>
    <contour>
      <point x="-110" y="-146" type="curve"/>
      <point x="-86" y="-96" type="line"/>
      <point x="-60" y="-114"/>
      <point x="-33" y="-123"/>
      <point x="-6" y="-123" type="curve" smooth="yes"/>
      <point x="47" y="-123"/>
      <point x="85" y="-98"/>
      <point x="95" y="-55" type="curve" smooth="yes"/>
      <point x="217" y="472" type="line"/>
      <point x="281" y="472" type="line"/>
      <point x="162" y="-45" type="line" smooth="yes"/>
      <point x="149" y="-101"/>
      <point x="101" y="-175"/>
      <point x="7" y="-175" type="curve" smooth="yes"/>
      <point x="-35" y="-175"/>
      <point x="-74" y="-165"/>
    </contour>
    <contour>
      <point x="254" y="630" type="line"/>
      <point x="268" y="693" type="line"/>
      <point x="331" y="693" type="line"/>
      <point x="317" y="630" type="line"/>
    </contour>
  </outline>
</glyph>
<glyph name="l" format="2">
  <advance width="225"/>
  <unicode hex="006C"/>
  <outline>
    <contour>
      <point x="80" y="0" type="line"/>
      <point x="240" y="695" type="line"/>
      <point x="303" y="695" type="line"/>
      <point x="143" y="0" type="line"/>
    </contour>
  </outline>
</glyph>
<glyph name="q" format="2">
  <advance width="517"/>
  <unicode hex="0071"/>
  <outline>
    <contour>
      <point x="100" y="235" type="curve"/>
      <point x="100" y="235"/>
      <point x="101" y="234"/>
      <point x="101" y="234" type="curve"/>
      <point x="133" y="375"/>
      <point x="250" y="479"/>
      <point x="353" y="479" type="curve" smooth="yes"/>
      <point x="370" y="479"/>
      <point x="386" y="476"/>
      <point x="400" y="470" type="curve" smooth="yes"/>
      <point x="437" y="454"/>
      <point x="465" y="393"/>
      <point x="464" y="393" type="curve"/>
      <point x="484" y="480" type="line"/>
      <point x="547" y="480" type="line"/>
      <point x="397" y="-167" type="line"/>
      <point x="333" y="-167" type="line"/>
      <point x="382" y="42" type="line" smooth="yes"/>
      <point x="383" y="46"/>
      <point x="384" y="52"/>
      <point x="385" y="60" type="curve"/>
      <point x="388" y="78" type="line"/>
      <point x="340" y="21"/>
      <point x="287" y="-7"/>
      <point x="229" y="-7" type="curve" smooth="yes"/>
      <point x="129" y="-7"/>
      <point x="68" y="98"/>
    </contour>
    <contour>
      <point x="166" y="234" type="curve"/>
      <point x="168" y="232" type="line"/>
      <point x="146" y="139"/>
      <point x="182" y="59"/>
      <point x="246" y="42" type="curve"/>
      <point x="255" y="40"/>
      <point x="264" y="39"/>
      <point x="274" y="39" type="curve" smooth="yes"/>
      <point x="333" y="39"/>
      <point x="396" y="95"/>
      <point x="408" y="146" type="curve" smooth="yes"/>
      <point x="447" y="312" type="line"/>
      <point x="449" y="322"/>
      <point x="449" y="331"/>
      <point x="449" y="340" type="curve"/>
      <point x="446" y="389"/>
      <point x="420" y="427"/>
      <point x="372" y="427" type="curve" smooth="yes"/>
      <point x="289" y="427"/>
      <point x="192" y="347"/>
    </contour>
  </outline>
</glyph>
<glyph name="r" format="2">
  <advance width="346"/>
  <unicode hex="0072"/>
  <outline>
    <contour>
      <point x="80" y="0" type="line"/>
      <point x="188" y="470" type="line"/>
      <point x="248" y="470" type="line"/>
      <point x="230" y="394" type="line"/>
      <point x="229" y="389"/>
      <point x="227" y="381"/>
      <point x="225" y="371" type="curve" smooth="yes"/>
      <point x="221" y="348" type="line"/>
      <point x="264" y="410"/>
      <point x="336" y="476"/>
      <point x="440" y="480" type="curve"/>
      <point x="427" y="424" type="line"/>
      <point x="306" y="422"/>
      <point x="219" y="332"/>
      <point x="197" y="236" type="curve" smooth="yes"/>
      <point x="143" y="0" type="line"/>
    </contour>
  </outline>
</glyph>
<glyph name="v" format="2">
  <advance width="458"/>
  <unicode hex="0076"/>
  <outline>
    <contour>
      <point x="123" y="472" type="line"/>
      <point x="187" y="472" type="line"/>
      <point x="244" y="65" type="line"/>
      <point x="489" y="472" type="line"/>
      <point x="552" y="472" type="line"/>
      <point x="264" y="-3" type="line"/>
      <point x="190" y="-3" type="line"/>
    </contour>
  </outline>
</glyph>
<glyph name="w" format="2">
  <advance width="692"/>
  <unicode hex="0077"/>
  <outline>
    <contour>
      <point x="123" y="472" type="line"/>
      <point x="184" y="470" type="line"/>
      <point x="199" y="266"/>
      <point x="207" y="130"/>
      <point x="209" y="63" type="curve"/>
      <point x="220" y="91"/>
      <point x="291" y="227"/>
      <point x="422" y="470" type="curve"/>
      <point x="480" y="470" type="line"/>
      <point x="497" y="235"/>
      <point x="506" y="99"/>
      <point x="507" y="63" type="curve"/>
      <point x="537" y="122" type="line" smooth="yes"/>
      <point x="547" y="141"/>
      <point x="558" y="161"/>
      <point x="568" y="180" type="curve" smooth="yes"/>
      <point x="722" y="470" type="line"/>
      <point x="783" y="470" type="line"/>
      <point x="528" y="-5" type="line"/>
      <point x="456" y="-5" type="line"/>
      <point x="439" y="238"/>
      <point x="431" y="375"/>
      <point x="433" y="406" type="curve"/>
      <point x="420" y="370"/>
      <point x="223" y="-4"/>
      <point x="223" y="-3" type="curve"/>
      <point x="158" y="-3" type="line"/>
    </contour>
  </outline>
</glyph>
<glyph name="braceleft" format="2">
  <advance width="525"/>
  <unicode hex="007B"/>
  <outline>
    <contour>
      <point x="117" y="239" type="curve"/>
      <point x="123" y="291" type="line"/>
      <point x="217" y="293"/>
      <point x="300" y="333"/>
      <point x="322" y="420" type="curve" smooth="yes"/>
      <point x="370" y="629" type="line" smooth="yes"/>
      <point x="390" y="718"/>
      <point x="483" y="753"/>
      <point x="594" y="753" type="curve" smooth="yes"/>
      <point x="631" y="753" type="line"/>
      <point x="620" y="703" type="line"/>
      <point x="595" y="703" type="line" smooth="yes"/>
      <point x="488" y="703"/>
      <point x="448" y="681"/>
      <point x="435" y="624" type="curve" smooth="yes"/>
      <point x="394" y="445" type="line" smooth="yes"/>
      <point x="392" y="436"/>
      <point x="390" y="427"/>
      <point x="388" y="419" type="curve" smooth="yes"/>
      <point x="360" y="306"/>
      <point x="236" y="266"/>
      <point x="183" y="266" type="curve"/>
      <point x="244" y="262"/>
      <point x="347" y="230"/>
      <point x="320" y="114" type="curve" smooth="yes"/>
      <point x="273" y="-91" type="line" smooth="yes"/>
      <point x="259" y="-153"/>
      <point x="276" y="-171"/>
      <point x="422" y="-171" type="curve"/>
      <point x="411" y="-221" type="line"/>
      <point x="374" y="-221" type="line" smooth="yes"/>
      <point x="234" y="-221"/>
      <point x="192" y="-165"/>
      <point x="206" y="-105" type="curve" smooth="yes"/>
      <point x="255" y="111" type="line"/>
      <point x="256" y="121"/>
      <point x="257" y="130" name=".hr01"/>
      <point x="257" y="138" type="curve" smooth="yes"/>
      <point x="257" y="154"/>
      <point x="255" y="167"/>
      <point x="252" y="176" type="curve"/>
      <point x="237" y="215"/>
      <point x="192" y="236"/>
    </contour>
  </outline>
</glyph>
<glyph name="bar" format="2">
  <advance width="292"/>
  <unicode hex="007C"/>
  <outline>
    <contour>
      <point x="80" y="-193" type="curve" smooth="yes"/>
      <point x="292" y="720" type="line"/>
      <point x="297" y="739"/>
      <point x="306" y="749"/>
      <point x="319" y="749" type="curve" smooth="yes"/>
      <point x="332" y="749"/>
      <point x="336" y="739"/>
      <point x="331" y="720" type="curve"/>
      <point x="120" y="-193" type="line" smooth="yes"/>
      <point x="116" y="-212"/>
      <point x="107" y="-221"/>
      <point x="94" y="-221" type="curve" smooth="yes"/>
      <point x="81" y="-221"/>
      <point x="76" y="-212"/>
    </contour>
  </outline>
</glyph>
<glyph name="braceright" format="2">
  <advance width="525"/>
  <unicode hex="007D"/>
  <outline>
    <contour>
      <point x="22" y="-172" type="line"/>
      <point x="41" y="-177" type="line"/>
      <point x="159" y="-177"/>
      <point x="187" y="-157"/>
      <point x="203" y="-97" type="curve"/>
      <point x="239" y="63" type="line" smooth="yes"/>
      <point x="242" y="78"/>
      <point x="246" y="93"/>
      <point x="250" y="108" type="curve" smooth="yes"/>
      <point x="254" y="124"/>
      <point x="260" y="139"/>
      <point x="267" y="152" type="curve" smooth="yes"/>
      <point x="300" y="213"/>
      <point x="345" y="231"/>
      <point x="384" y="246" type="curve" smooth="yes"/>
      <point x="394" y="250"/>
      <point x="404" y="253"/>
      <point x="413" y="255" type="curve" smooth="yes"/>
      <point x="422" y="257"/>
      <point x="430" y="258"/>
      <point x="437" y="259" type="curve" smooth="yes"/>
      <point x="444" y="260"/>
      <point x="449" y="261"/>
      <point x="453" y="262" type="curve"/>
      <point x="459" y="262" type="line"/>
      <point x="425" y="264"/>
      <point x="349" y="277"/>
      <point x="325" y="341" type="curve"/>
      <point x="325" y="341"/>
      <point x="325" y="341"/>
      <point x="325" y="341" type="curve"/>
      <point x="317" y="362"/>
      <point x="317" y="387"/>
      <point x="324" y="416" type="curve" smooth="yes"/>
      <point x="371" y="621" type="line" smooth="yes"/>
      <point x="373" y="630"/>
      <point x="374" y="639"/>
      <point x="374" y="647" type="curve" smooth="yes"/>
      <point x="374" y="667"/>
      <point x="359" y="684"/>
      <point x="337" y="691" type="curve" smooth="yes"/>
      <point x="280" y="710"/>
      <point x="252" y="701"/>
      <point x="224" y="701" type="curve"/>
      <point x="235" y="751" type="line"/>
      <point x="272" y="751" type="line" smooth="yes"/>
      <point x="402" y="751"/>
      <point x="457" y="708"/>
      <point x="437" y="621" type="curve" smooth="yes"/>
      <point x="391" y="419" type="line" smooth="yes"/>
      <point x="385" y="394"/>
      <point x="385" y="376"/>
      <point x="387" y="365" type="curve" name=".hr01"/>
      <point x="399" y="317"/>
      <point x="457" y="291"/>
      <point x="529" y="289" type="curve"/>
      <point x="517" y="239" type="line"/>
      <point x="468" y="238"/>
      <point x="425" y="227"/>
      <point x="388" y="206" type="curve" smooth="yes"/>
      <point x="351" y="185"/>
      <point x="328" y="153"/>
      <point x="318" y="110" type="curve" smooth="yes"/>
      <point x="281" y="-52" type="line"/>
      <point x="277" y="-67"/>
      <point x="273" y="-83"/>
      <point x="270" y="-98" type="curve"/>
      <point x="251" y="-181"/>
      <point x="177" y="-222"/>
      <point x="48" y="-222" type="curve" smooth="yes"/>
      <point x="11" y="-222" type="line"/>
    </contour>
  </outline>
</glyph>
<glyph name="asciitilde" format="2">
  <advance width="642"/>
  <unicode hex="007E"/>
  <outline>
    <contour>
      <point x="223" y="589" type="line"/>
      <point x="223" y="589"/>
      <point x="222" y="590"/>
      <point x="222" y="590" type="curve"/>
      <point x="240" y="656"/>
      <point x="309" y="694"/>
      <point x="374" y="694" type="curve" smooth="yes"/>
      <point x="420" y="694"/>
      <point x="529" y="640"/>
      <point x="571" y="640" type="curve" smooth="yes"/>
      <point x="588" y="640"/>
      <point x="645" y="645"/>
      <point x="662" y="696" type="curve"/>
      <point x="713" y="696" type="line"/>
      <point x="693" y="626"/>
      <point x="622" y="590"/>
      <point x="562" y="590" type="curve" smooth="yes"/>
      <point x="555" y="590"/>
      <point x="548" y="591"/>
      <point x="540" y="592" type="curve" smooth="yes"/>
      <point x="491" y="598"/>
      <point x="400" y="644"/>
      <point x="364" y="644" type="curve" smooth="yes"/>
      <point x="347" y="644"/>
      <point x="290" y="640"/>
      <point x="273" y="589" type="curve"/>
    </contour>
  </outline>
</glyph>
<glyph name="exclamdown" format="2">
  <advance width="325"/>
  <unicode hex="00A1"/>
  <outline>
    <contour>
      <point x="84" y="-167" type="line"/>
      <point x="200" y="298" type="line"/>
      <point x="206" y="326" type="line"/>
      <point x="209" y="338"/>
      <point x="211" y="346"/>
      <point x="212" y="350" type="curve"/>
      <point x="274" y="350" type="line"/>
      <point x="162" y="-167" type="line"/>
    </contour>
    <contour>
      <point x="228" y="450" type="line"/>
      <point x="246" y="528" type="line"/>
      <point x="324" y="528" type="line"/>
      <point x="306" y="450" type="line"/>
    </contour>
  </outline>
</glyph>
<glyph name="cent" format="2">
  <advance width="525"/>
  <unicode hex="00A2"/>
  <outline>
    <contour>
      <point x="100" y="236" type="curve"/>
      <point x="100" y="235"/>
      <point x="100" y="235"/>
      <point x="100" y="234" type="curve"/>
      <point x="128" y="354"/>
      <point x="241" y="467"/>
      <point x="378" y="481" type="curve"/>
      <point x="395" y="558" type="line"/>
      <point x="445" y="558" type="line"/>
      <point x="428" y="482" type="line"/>
      <point x="497" y="482"/>
      <point x="526" y="472"/>
      <point x="591" y="441" type="curve"/>
      <point x="569" y="386" type="line"/>
      <point x="502" y="421"/>
      <point x="483" y="429"/>
      <point x="417" y="431" type="curve"/>
      <point x="327" y="44" type="line"/>
      <point x="402" y="50"/>
      <point x="442" y="66"/>
      <point x="517" y="110" type="curve"/>
      <point x="509" y="54" type="line"/>
      <point x="444" y="16"/>
      <point x="379" y="-5"/>
      <point x="314" y="-8" type="curve"/>
      <point x="297" y="-84" type="line"/>
      <point x="247" y="-84" type="line"/>
      <point x="264" y="-8" type="line"/>
      <point x="144" y="6"/>
      <point x="70" y="109"/>
    </contour>
    <contour>
      <point x="166" y="235" type="curve"/>
      <point x="165" y="235"/>
      <point x="165" y="236"/>
      <point x="164" y="236" type="curve"/>
      <point x="142" y="140"/>
      <point x="181" y="58"/>
      <point x="275" y="44" type="curve"/>
      <point x="365" y="430" type="line"/>
      <point x="267" y="418"/>
      <point x="189" y="337"/>
    </contour>
  </outline>
</glyph>
<glyph name="sterling" format="2">
  <advance width="671"/>
  <unicode hex="00A3"/>
  <outline>
    <contour>
      <point x="71" y="57" type="curve"/>
      <point x="69" y="55"/>
      <point x="67" y="52"/>
      <point x="65" y="50" type="curve"/>
      <point x="75" y="98"/>
      <point x="140" y="132"/>
      <point x="213" y="132" type="curve" smooth="yes"/>
      <point x="234" y="132"/>
      <point x="255" y="129"/>
      <point x="278" y="122" type="curve"/>
      <point x="285" y="139"/>
      <point x="293" y="168"/>
      <point x="302" y="209" type="curve" smooth="yes"/>
      <point x="326" y="315" type="line"/>
      <point x="241" y="315" type="line"/>
      <point x="253" y="366" type="line"/>
      <point x="338" y="366" type="line"/>
      <point x="362" y="469" type="line" smooth="yes"/>
      <point x="365" y="481"/>
      <point x="367" y="492"/>
      <point x="370" y="504" type="curve" smooth="yes"/>
      <point x="402" y="644"/>
      <point x="512" y="721"/>
      <point x="598" y="721" type="curve" smooth="yes"/>
      <point x="670" y="721"/>
      <point x="717" y="669"/>
      <point x="729" y="610" type="curve" smooth="yes"/>
      <point x="735" y="580"/>
      <point x="734" y="550"/>
      <point x="728" y="520" type="curve" smooth="yes"/>
      <point x="721" y="486"/>
      <point x="703" y="487"/>
      <point x="689" y="485" type="curve"/>
      <point x="674" y="490"/>
      <point x="665" y="500"/>
      <point x="662" y="515" type="curve"/>
      <point x="663" y="523"/>
      <point x="665" y="530"/>
      <point x="666" y="537" type="curve"/>
      <point x="675" y="617"/>
      <point x="645" y="672"/>
      <point x="585" y="672" type="curve" smooth="yes"/>
      <point x="510" y="672"/>
      <point x="459" y="616"/>
      <point x="433" y="500" type="curve"/>
      <point x="433" y="500"/>
      <point x="433" y="500"/>
      <point x="433" y="500" type="curve"/>
      <point x="402" y="368" type="line"/>
      <point x="516" y="368" type="line"/>
      <point x="504" y="317" type="line"/>
      <point x="390" y="317" type="line"/>
      <point x="367" y="215" type="line" smooth="yes"/>
      <point x="366" y="211"/>
      <point x="365" y="205"/>
      <point x="363" y="196" type="curve" smooth="yes"/>
      <point x="361" y="187"/>
      <point x="360" y="181"/>
      <point x="359" y="178" type="curve"/>
      <point x="355" y="163" type="line" smooth="yes"/>
      <point x="350" y="144"/>
      <point x="345" y="126"/>
      <point x="333" y="106" type="curve"/>
      <point x="356" y="95" type="line" smooth="yes"/>
      <point x="378" y="84"/>
      <point x="395" y="69"/>
      <point x="420" y="64" type="curve"/>
      <point x="439" y="59"/>
      <point x="478" y="41"/>
      <point x="513" y="41" type="curve" smooth="yes"/>
      <point x="560" y="41"/>
      <point x="593" y="85"/>
      <point x="606" y="139" type="curve"/>
      <point x="670" y="139" type="line"/>
      <point x="644" y="49"/>
      <point x="560" y="-8"/>
      <point x="477" y="-8" type="curve" smooth="yes"/>
      <point x="469" y="-8"/>
      <point x="462" y="-8"/>
      <point x="455" y="-7" type="curve"/>
      <point x="420" y="-5"/>
      <point x="396" y="6"/>
      <point x="338" y="36" type="curve" smooth="yes"/>
      <point x="295" y="58" type="line"/>
      <point x="248" y="14"/>
      <point x="197" y="-8"/>
      <point x="143" y="-8" type="curve" smooth="yes"/>
      <point x="94" y="-8"/>
      <point x="61" y="18"/>
    </contour>
    <contour>
      <point x="128" y="52" type="curve"/>
      <point x="125" y="40"/>
      <point x="133" y="34"/>
      <point x="154" y="34" type="curve" smooth="yes" name=".hr01"/>
      <point x="183" y="34"/>
      <point x="218" y="49"/>
      <point x="232" y="61" type="curve" smooth="yes"/>
      <point x="243" y="70" type="line"/>
      <point x="216" y="77"/>
      <point x="195" y="81"/>
      <point x="180" y="81" type="curve" smooth="yes"/>
      <point x="141" y="81"/>
      <point x="130" y="59"/>
    </contour>
  </outline>
</glyph>
<glyph name="currency" format="2">
  <advance width="803"/>
  <unicode hex="00A4"/>
  <outline>
    <contour>
      <point x="46" y="-28" type="curve"/>
      <point x="46" y="-27"/>
      <point x="45" y="-26"/>
      <point x="45" y="-25" type="curve"/>
      <point x="47" y="-18"/>
      <point x="58" y="-6"/>
      <point x="78" y="11" type="curve"/>
      <point x="83" y="15"/>
      <point x="89" y="20"/>
      <point x="94" y="24" type="curve" smooth="yes"/>
      <point x="188" y="100" type="line"/>
      <point x="188" y="100"/>
      <point x="189" y="101"/>
      <point x="189" y="101" type="curve"/>
      <point x="150" y="158"/>
      <point x="140" y="226"/>
      <point x="158" y="305" type="curve" smooth="yes"/>
      <point x="176" y="384"/>
      <point x="218" y="453"/>
      <point x="284" y="511" type="curve"/>
      <point x="267" y="534"/>
      <point x="248" y="559"/>
      <point x="227" y="586" type="curve" smooth="yes"/>
      <point x="195" y="628"/>
      <point x="195" y="627"/>
      <point x="197" y="638" type="curve" smooth="yes"/>
      <point x="199" y="648"/>
      <point x="211" y="658"/>
      <point x="221" y="658" type="curve" smooth="yes"/>
      <point x="224" y="658"/>
      <point x="226" y="658"/>
      <point x="228" y="657" type="curve" smooth="yes"/>
      <point x="232" y="655"/>
      <point x="236" y="648"/>
      <point x="242" y="642" type="curve"/>
      <point x="254" y="627" type="line"/>
      <point x="265" y="612"/>
      <point x="271" y="602"/>
      <point x="290" y="578" type="curve"/>
      <point x="317" y="541" type="line"/>
      <point x="386" y="592"/>
      <point x="460" y="618"/>
      <point x="539" y="618" type="curve" smooth="yes"/>
      <point x="620" y="618"/>
      <point x="682" y="592"/>
      <point x="726" y="541" type="curve"/>
      <point x="813" y="612"/>
      <point x="860" y="649"/>
      <point x="866" y="652" type="curve" smooth="yes"/>
      <point x="870" y="654"/>
      <point x="874" y="656"/>
      <point x="878" y="656" type="curve" smooth="yes"/>
      <point x="888" y="656"/>
      <point x="895" y="647"/>
      <point x="893" y="634" type="curve"/>
      <point x="892" y="630"/>
      <point x="888" y="625"/>
      <point x="880" y="618" type="curve"/>
      <point x="876" y="615"/>
      <point x="788" y="544"/>
      <point x="750" y="511" type="curve"/>
      <point x="789" y="454"/>
      <point x="798" y="385"/>
      <point x="780" y="305" type="curve" smooth="yes"/>
      <point x="762" y="229"/>
      <point x="721" y="161"/>
      <point x="655" y="100" type="curve"/>
      <point x="707" y="35"/>
      <point x="742" y="-14"/>
      <point x="741" y="-25" type="curve"/>
      <point x="738" y="-39"/>
      <point x="724" y="-45"/>
      <point x="715" y="-45" type="curve" smooth="yes"/>
      <point x="714" y="-45"/>
      <point x="707" y="-44"/>
      <point x="691" y="-23" type="curve" smooth="yes"/>
      <point x="664" y="12" type="line"/>
      <point x="659" y="19"/>
      <point x="653" y="28"/>
      <point x="645" y="38" type="curve" smooth="yes"/>
      <point x="620" y="70" type="line"/>
      <point x="551" y="18"/>
      <point x="476" y="-8"/>
      <point x="396" y="-8" type="curve" smooth="yes"/>
      <point x="320" y="-8"/>
      <point x="258" y="18"/>
      <point x="209" y="70" type="curve"/>
      <point x="158" y="28" type="line" smooth="yes"/>
      <point x="65" y="-49"/>
      <point x="70" y="-46"/>
      <point x="58" y="-45" type="curve"/>
      <point x="48" y="-45"/>
      <point x="44" y="-34"/>
    </contour>
    <contour>
      <point x="198" y="307" type="curve"/>
      <point x="197" y="307"/>
      <point x="197" y="307"/>
      <point x="196" y="307" type="curve"/>
      <point x="162" y="160"/>
      <point x="256" y="34"/>
      <point x="406" y="34" type="curve" smooth="yes"/>
      <point x="554" y="34"/>
      <point x="708" y="156"/>
      <point x="742" y="306" type="curve" smooth="yes"/>
      <point x="775" y="454"/>
      <point x="681" y="578"/>
      <point x="534" y="578" type="curve" smooth="yes"/>
      <point x="386" y="578"/>
      <point x="231" y="455"/>
    </contour>
  </outline>
</glyph>
<glyph name="yen" format="2">
  <advance width="675"/>
  <unicode hex="00A5"/>
  <outline>
    <contour>
      <point x="31" y="225" type="curve"/>
      <point x="28" y="226"/>
      <point x="26" y="226"/>
      <point x="23" y="227" type="curve"/>
      <point x="27" y="244"/>
      <point x="40" y="252"/>
      <point x="62" y="252" type="curve" smooth="yes"/>
      <point x="353" y="252" type="line"/>
      <point x="355" y="260"/>
      <point x="357" y="271"/>
      <point x="359" y="280" type="curve"/>
      <point x="354" y="291"/>
      <point x="334" y="335"/>
      <point x="329" y="346" type="curve"/>
      <point x="296" y="413" type="line"/>
      <point x="108" y="413" type="line" smooth="yes"/>
      <point x="81" y="413"/>
      <point x="70" y="421"/>
      <point x="74" y="438" type="curve"/>
      <point x="75" y="443"/>
      <point x="78" y="447"/>
      <point x="81" y="451" type="curve"/>
      <point x="91" y="461"/>
      <point x="107" y="464"/>
      <point x="152" y="464" type="curve" smooth="yes"/>
      <point x="272" y="464" type="line"/>
      <point x="250" y="507"/>
      <point x="180" y="653"/>
      <point x="158" y="696" type="curve"/>
      <point x="243" y="696" type="line"/>
      <point x="357" y="464" type="line"/>
      <point x="531" y="464" type="line"/>
      <point x="753" y="696" type="line"/>
      <point x="829" y="696" type="line"/>
      <point x="609" y="464" type="line"/>
      <point x="729" y="464" type="line" smooth="yes"/>
      <point x="782" y="464"/>
      <point x="799" y="459"/>
      <point x="795" y="437" type="curve"/>
      <point x="791" y="420"/>
      <point x="777" y="412"/>
      <point x="754" y="412" type="curve" smooth="yes"/>
      <point x="561" y="412" type="line"/>
      <point x="434" y="278" type="line"/>
      <point x="428" y="250" type="line"/>
      <point x="712" y="250" type="line" smooth="yes"/>
      <point x="739" y="250"/>
      <point x="750" y="242"/>
      <point x="746" y="225" type="curve" smooth="yes"/>
      <point x="742" y="208"/>
      <point x="729" y="199"/>
      <point x="707" y="199" type="curve" smooth="yes"/>
      <point x="706" y="199"/>
      <point x="705" y="199"/>
      <point x="704" y="200" type="curve"/>
      <point x="417" y="200" type="line"/>
      <point x="371" y="0" type="line"/>
      <point x="302" y="0" type="line"/>
      <point x="348" y="200" type="line"/>
      <point x="63" y="200" type="line" smooth="yes"/>
      <point x="60" y="200"/>
      <point x="60" y="199"/>
      <point x="58" y="199" type="curve" smooth="yes"/>
      <point x="36" y="199"/>
      <point x="27" y="208"/>
    </contour>
    <contour>
      <point x="379" y="414" type="line"/>
      <point x="413" y="344" type="line"/>
      <point x="480" y="414" type="line"/>
    </contour>
  </outline>
</glyph>
<glyph name="brokenbar" format="2">
  <advance width="175"/>
  <unicode hex="00A6"/>
  <outline>
    <contour>
      <point x="101" y="149" type="line" name=".hr02"/>
      <point x="100" y="149"/>
      <point x="100" y="150"/>
      <point x="99" y="150" type="curve"/>
      <point x="103" y="169"/>
      <point x="112" y="178"/>
      <point x="126" y="178" type="curve" smooth="yes"/>
      <point x="140" y="178"/>
      <point x="145" y="169"/>
      <point x="141" y="151" type="curve"/>
      <point x="139" y="143"/>
      <point x="137" y="135"/>
      <point x="135" y="127" type="curve" smooth="yes"/>
      <point x="67" y="-168" type="line" smooth="yes"/>
      <point x="59" y="-202"/>
      <point x="55" y="-220" name=".hr01"/>
      <point x="35" y="-220" type="curve" smooth="yes"/>
      <point x="23" y="-220"/>
      <point x="19" y="-210"/>
      <point x="21" y="-202" type="curve"/>
      <point x="21" y="-200"/>
      <point x="22" y="-197"/>
      <point x="22" y="-195" type="curve"/>
      <point x="24" y="-187"/>
      <point x="26" y="-178"/>
      <point x="28" y="-170" type="curve" smooth="yes"/>
    </contour>
    <contour>
      <point x="152" y="379" type="curve"/>
      <point x="172" y="468"/>
      <point x="193" y="556"/>
      <point x="214" y="645" type="curve" smooth="yes"/>
      <point x="223" y="684"/>
      <point x="227" y="749" name=".hr03"/>
      <point x="258" y="749" type="curve" smooth="yes"/>
      <point x="270" y="749"/>
      <point x="274" y="738"/>
      <point x="272" y="731" type="curve"/>
      <point x="272" y="729"/>
      <point x="271" y="726"/>
      <point x="271" y="724" type="curve"/>
      <point x="209" y="457" type="line" smooth="yes"/>
      <point x="200" y="419"/>
      <point x="193" y="352"/>
      <point x="165" y="352" type="curve" smooth="yes"/>
      <point x="148" y="352"/>
      <point x="152" y="367"/>
    </contour>
  </outline>
</glyph>
<glyph name="section" format="2">
  <advance width="467"/>
  <unicode hex="00A7"/>
  <outline>
    <contour>
      <point x="22" y="-105" type="curve"/>
      <point x="48" y="-50" type="line"/>
      <point x="53" y="-58"/>
      <point x="60" y="-66"/>
      <point x="63" y="-70" type="curve"/>
      <point x="58" y="-63"/>
      <point x="86" y="-127"/>
      <point x="199" y="-127" type="curve" smooth="yes"/>
      <point x="206" y="-127"/>
      <point x="213" y="-126"/>
      <point x="220" y="-125" type="curve"/>
      <point x="275" y="-113"/>
      <point x="316" y="-72"/>
      <point x="327" y="-20" type="curve" smooth="yes"/>
      <point x="339" y="37"/>
      <point x="293" y="75"/>
      <point x="248" y="94" type="curve" smooth="yes"/>
      <point x="165" y="128"/>
      <point x="128" y="184"/>
      <point x="132" y="247" type="curve"/>
      <point x="142" y="316"/>
      <point x="176" y="367"/>
      <point x="249" y="406" type="curve"/>
      <point x="210" y="439"/>
      <point x="191" y="477"/>
      <point x="195" y="522" type="curve"/>
      <point x="206" y="601"/>
      <point x="277" y="692"/>
      <point x="376" y="702" type="curve" smooth="yes"/>
      <point x="384" y="703"/>
      <point x="392" y="703"/>
      <point x="400" y="703" type="curve" smooth="yes"/>
      <point x="455" y="703"/>
      <point x="502" y="684"/>
      <point x="541" y="647" type="curve"/>
      <point x="519" y="592" type="line"/>
      <point x="488" y="623"/>
      <point x="459" y="653"/>
      <point x="388" y="653" type="curve" smooth="yes"/>
      <point x="381" y="653"/>
      <point x="373" y="652"/>
      <point x="366" y="651" type="curve"/>
      <point x="312" y="639"/>
      <point x="245" y="574"/>
      <point x="261" y="511" type="curve" smooth="yes"/>
      <point x="269" y="478"/>
      <point x="295" y="458"/>
      <point x="346" y="432" type="curve" smooth="yes"/>
      <point x="364" y="423" type="line" smooth="yes"/>
      <point x="411" y="399"/>
      <point x="439" y="367"/>
      <point x="451" y="329" type="curve" smooth="yes"/>
      <point x="454" y="319"/>
      <point x="456" y="308"/>
      <point x="456" y="296" type="curve" smooth="yes"/>
      <point x="456" y="290"/>
      <point x="456" y="284"/>
      <point x="455" y="278" type="curve" smooth="yes"/>
      <point x="452" y="259" type="line"/>
      <point x="439" y="201"/>
      <point x="401" y="155"/>
      <point x="338" y="121" type="curve"/>
      <point x="377" y="89"/>
      <point x="396" y="51"/>
      <point x="392" y="6" type="curve"/>
      <point x="381" y="-73"/>
      <point x="311" y="-163"/>
      <point x="212" y="-173" type="curve" smooth="yes"/>
      <point x="204" y="-174"/>
      <point x="196" y="-174"/>
      <point x="188" y="-174" type="curve" smooth="yes"/>
      <point x="108" y="-174"/>
      <point x="64" y="-150"/>
    </contour>
    <contour>
      <point x="200" y="268" type="curve"/>
      <point x="200" y="269"/>
      <point x="201" y="270"/>
      <point x="201" y="271" type="curve"/>
      <point x="181" y="187"/>
      <point x="288" y="156"/>
      <point x="294" y="156" type="curve" smooth="yes"/>
      <point x="324" y="156"/>
      <point x="382" y="203"/>
      <point x="393" y="257" type="curve"/>
      <point x="416" y="348"/>
      <point x="299" y="371"/>
      <point x="301" y="371" type="curve"/>
      <point x="269" y="371"/>
      <point x="212" y="321"/>
    </contour>
  </outline>
</glyph>
<glyph name="copyright" format="2">
  <advance width="1091"/>
  <unicode hex="00A9"/>
  <outline>
    <contour>
      <point x="333" y="243" type="curve"/>
      <point x="332" y="243"/>
      <point x="332" y="242"/>
      <point x="331" y="242" type="curve"/>
      <point x="365" y="385"/>
      <point x="545" y="502"/>
      <point x="734" y="502" type="curve" smooth="yes"/>
      <point x="785" y="502"/>
      <point x="834" y="494"/>
      <point x="881" y="478" type="curve" name=".hr01"/>
      <point x="853" y="409" type="line"/>
      <point x="852" y="410"/>
      <point x="848" y="413"/>
      <point x="841" y="417" type="curve" smooth="yes"/>
      <point x="811" y="434"/>
      <point x="797" y="444"/>
      <point x="751" y="449" type="curve" smooth="yes"/>
      <point x="742" y="450" name=".hr02"/>
      <point x="733" y="450"/>
      <point x="723" y="450" type="curve" smooth="yes"/>
      <point x="572" y="450"/>
      <point x="430" y="353"/>
      <point x="404" y="243" type="curve" smooth="yes"/>
      <point x="378" y="136"/>
      <point x="467" y="36"/>
      <point x="631" y="36" type="curve" smooth="yes"/>
      <point x="719" y="36"/>
      <point x="735" y="47"/>
      <point x="798" y="80" type="curve"/>
      <point x="789" y="21" type="line"/>
      <point x="727" y="-7"/>
      <point x="715" y="-12"/>
      <point x="642" y="-16" type="curve"/>
      <point x="634" y="-16"/>
      <point x="625" y="-17"/>
      <point x="616" y="-17" type="curve" smooth="yes"/>
      <point x="420" y="-17"/>
      <point x="301" y="101"/>
    </contour>
    <contour>
      <point x="117" y="262" type="curve"/>
      <point x="116" y="262"/>
      <point x="115" y="262"/>
      <point x="114" y="262" type="curve"/>
      <point x="178" y="541"/>
      <point x="453" y="767"/>
      <point x="719" y="767" type="curve" smooth="yes"/>
      <point x="889" y="767"/>
      <point x="1029" y="674"/>
      <point x="1083" y="518" type="curve" smooth="yes"/>
      <point x="1110" y="440"/>
      <point x="1113" y="355"/>
      <point x="1092" y="262" type="curve" smooth="yes"/>
      <point x="1028" y="-14"/>
      <point x="754" y="-241"/>
      <point x="487" y="-241" type="curve" smooth="yes"/>
      <point x="315" y="-241"/>
      <point x="180" y="-147"/>
      <point x="126" y="7" type="curve" smooth="yes"/>
      <point x="99" y="84"/>
      <point x="96" y="169"/>
    </contour>
    <contour>
      <point x="154" y="262" type="curve"/>
      <point x="154" y="261"/>
      <point x="155" y="260"/>
      <point x="155" y="259" type="curve"/>
      <point x="140" y="194"/>
      <point x="138" y="132"/>
      <point x="150" y="74" type="curve" smooth="yes"/>
      <point x="185" y="-96"/>
      <point x="323" y="-201"/>
      <point x="496" y="-201" type="curve" smooth="yes"/>
      <point x="736" y="-201"/>
      <point x="991" y="4"/>
      <point x="1051" y="263" type="curve" smooth="yes"/>
      <point x="1071" y="350"/>
      <point x="1068" y="430"/>
      <point x="1042" y="502" type="curve" smooth="yes"/>
      <point x="990" y="646"/>
      <point x="863" y="727"/>
      <point x="711" y="727" type="curve" smooth="yes"/>
      <point x="471" y="727"/>
      <point x="215" y="525"/>
    </contour>
  </outline>
</glyph>
<glyph name="ordfeminine" format="2">
  <advance width="467"/>
  <unicode hex="00AA"/>
  <outline>
    <contour>
      <point x="104" y="309" type="curve"/>
      <point x="103" y="309"/>
      <point x="103" y="309"/>
      <point x="102" y="309" type="curve"/>
      <point x="108" y="334"/>
      <point x="128" y="335"/>
      <point x="170" y="335" type="curve" smooth="yes"/>
      <point x="473" y="335" type="line" smooth="yes"/>
      <point x="496" y="335"/>
      <point x="505" y="326"/>
      <point x="501" y="309" type="curve" smooth="yes"/>
      <point x="496" y="289"/>
      <point x="482" y="284"/>
      <point x="456" y="284" type="curve" smooth="yes"/>
      <point x="128" y="284" type="line" smooth="yes"/>
      <point x="110" y="284"/>
      <point x="103" y="295"/>
      <point x="103" y="300" type="curve" smooth="yes"/>
      <point x="103" y="303"/>
      <point x="103" y="306"/>
    </contour>
    <contour>
      <point x="156" y="447" type="curve"/>
      <point x="156" y="447"/>
      <point x="156" y="446"/>
      <point x="156" y="446" type="curve"/>
      <point x="167" y="491"/>
      <point x="250" y="514"/>
      <point x="405" y="514" type="curve"/>
      <point x="419" y="573" type="line" smooth="yes"/>
      <point x="428" y="610"/>
      <point x="430" y="643"/>
      <point x="425" y="671" type="curve" smooth="yes"/>
      <point x="420" y="699" name=".hr01"/>
      <point x="404" y="713"/>
      <point x="378" y="713" type="curve" smooth="yes"/>
      <point x="356" y="713"/>
      <point x="336" y="709"/>
      <point x="315" y="701" type="curve" smooth="yes"/>
      <point x="271" y="685"/>
      <point x="271" y="681"/>
      <point x="238" y="657" type="curve"/>
      <point x="246" y="713" type="line"/>
      <point x="295" y="744"/>
      <point x="344" y="760"/>
      <point x="392" y="760" type="curve" smooth="yes" name=".hr02"/>
      <point x="463" y="760"/>
      <point x="503" y="696"/>
      <point x="490" y="607" type="curve" smooth="yes"/>
      <point x="488" y="592"/>
      <point x="484" y="575"/>
      <point x="480" y="559" type="curve" smooth="yes"/>
      <point x="476" y="542" type="line" smooth="yes"/>
      <point x="463" y="486"/>
      <point x="451" y="430"/>
      <point x="438" y="374" type="curve"/>
      <point x="374" y="374" type="line"/>
      <point x="384" y="418" type="line"/>
      <point x="341" y="383"/>
      <point x="286" y="366"/>
      <point x="218" y="366" type="curve" smooth="yes"/>
      <point x="162" y="366"/>
      <point x="148" y="414"/>
    </contour>
    <contour>
      <point x="219" y="445" type="curve"/>
      <point x="218" y="445"/>
      <point x="218" y="446"/>
      <point x="217" y="446" type="curve"/>
      <point x="216" y="427"/>
      <point x="237" y="417"/>
      <point x="280" y="417" type="curve" smooth="yes"/>
      <point x="347" y="417"/>
      <point x="386" y="440"/>
      <point x="397" y="485" type="curve"/>
      <point x="216" y="481"/>
      <point x="220" y="452"/>
    </contour>
  </outline>
</glyph>
<glyph name="logicalnot" format="2">
  <advance width="642"/>
  <unicode hex="00AC"/>
  <outline>
    <contour>
      <point x="137" y="340" type="curve"/>
      <point x="135" y="340"/>
      <point x="134" y="339"/>
      <point x="132" y="339" type="curve"/>
      <point x="135" y="354"/>
      <point x="152" y="357"/>
      <point x="165" y="360" type="curve"/>
      <point x="167" y="360"/>
      <point x="170" y="360"/>
      <point x="172" y="360" type="curve" smooth="yes"/>
      <point x="182" y="360"/>
      <point x="193" y="360"/>
      <point x="203" y="360" type="curve" smooth="yes"/>
      <point x="635" y="360" type="line" smooth="yes"/>
      <point x="651" y="360"/>
      <point x="660" y="353"/>
      <point x="660" y="345" type="curve" smooth="yes"/>
      <point x="660" y="341"/>
      <point x="659" y="336"/>
      <point x="658" y="330" type="curve"/>
      <point x="613" y="135" type="line" smooth="yes"/>
      <point x="608" y="114"/>
      <point x="599" y="104"/>
      <point x="586" y="104" type="curve" smooth="yes"/>
      <point x="573" y="104"/>
      <point x="569" y="114"/>
      <point x="574" y="134" type="curve" smooth="yes"/>
      <point x="617" y="320" type="line"/>
      <point x="162" y="320" type="line" smooth="yes"/>
      <point x="142" y="320"/>
      <point x="134" y="327"/>
    </contour>
  </outline>
</glyph>
<glyph name="uni00AD" format="2">
  <advance width="175"/>
  <unicode hex="00AD"/>
  <outline>
    <contour>
      <point x="60" y="211" type="line"/>
      <point x="71" y="261" type="line"/>
      <point x="351" y="261" type="line"/>
      <point x="340" y="211" type="line"/>
    </contour>
  </outline>
</glyph>
<glyph name="registered" format="2">
  <advance width="1091"/>
  <unicode hex="00AE"/>
  <outline>
    <contour>
      <point x="315" y="0" type="line"/>
      <point x="424" y="479" type="line"/>
      <point x="649" y="479" type="line" smooth="yes"/>
      <point x="838" y="479"/>
      <point x="909" y="409"/>
      <point x="894" y="345" type="curve" smooth="yes"/>
      <point x="886" y="311"/>
      <point x="840" y="247"/>
      <point x="685" y="220" type="curve"/>
      <point x="713" y="179"/>
      <point x="817" y="39"/>
      <point x="845" y="-2" type="curve" name=".hr01"/>
      <point x="775" y="-2" type="line"/>
      <point x="623" y="218" type="line"/>
      <point x="434" y="218" type="line"/>
      <point x="384" y="0" type="line" name=".hr02"/>
    </contour>
    <contour>
      <point x="443" y="262" type="curve"/>
      <point x="500" y="262"/>
      <point x="557" y="262"/>
      <point x="614" y="262" type="curve" smooth="yes"/>
      <point x="675" y="262"/>
      <point x="723" y="270"/>
      <point x="761" y="283" type="curve" smooth="yes"/>
      <point x="818" y="303"/>
      <point x="823" y="329"/>
      <point x="827" y="340" type="curve"/>
      <point x="827" y="341"/>
      <point x="828" y="343"/>
      <point x="828" y="344" type="curve"/>
      <point x="836" y="389"/>
      <point x="806" y="426"/>
      <point x="637" y="426" type="curve" smooth="yes"/>
      <point x="481" y="426" type="line"/>
      <point x="468" y="371"/>
      <point x="456" y="317"/>
    </contour>
    <contour>
      <point x="115" y="256" type="curve"/>
      <point x="115" y="256"/>
      <point x="116" y="255"/>
      <point x="116" y="255" type="curve"/>
      <point x="187" y="571"/>
      <point x="485" y="758"/>
      <point x="718" y="758" type="curve" smooth="yes"/>
      <point x="910" y="758"/>
      <point x="1066" y="631"/>
      <point x="1097" y="454" type="curve" smooth="yes"/>
      <point x="1108" y="391"/>
      <point x="1106" y="325"/>
      <point x="1090" y="256" type="curve" smooth="yes"/>
      <point x="1025" y="-21"/>
      <point x="752" y="-247"/>
      <point x="485" y="-247" type="curve" smooth="yes"/>
      <point x="195" y="-247"/>
      <point x="58" y="3"/>
    </contour>
    <contour>
      <point x="156" y="255" type="curve"/>
      <point x="156" y="254"/>
      <point x="157" y="253"/>
      <point x="157" y="252" type="curve"/>
      <point x="142" y="187"/>
      <point x="140" y="125"/>
      <point x="152" y="67" type="curve" smooth="yes"/>
      <point x="187" y="-103"/>
      <point x="325" y="-208"/>
      <point x="498" y="-208" type="curve" smooth="yes"/>
      <point x="738" y="-208"/>
      <point x="993" y="-3"/>
      <point x="1053" y="256" type="curve" smooth="yes"/>
      <point x="1073" y="343"/>
      <point x="1070" y="423"/>
      <point x="1044" y="495" type="curve" smooth="yes"/>
      <point x="992" y="639"/>
      <point x="865" y="720"/>
      <point x="713" y="720" type="curve" smooth="yes"/>
      <point x="473" y="720"/>
      <point x="217" y="518"/>
    </contour>
  </outline>
</glyph>
<glyph name="macron" format="2">
  <advance width="525"/>
  <unicode hex="00AF"/>
  <outline>
    <contour>
      <point x="215" y="620" type="line"/>
      <point x="228" y="674" type="line"/>
      <point x="607" y="674" type="line"/>
      <point x="594" y="620" type="line"/>
    </contour>
  </outline>
</glyph>
<glyph name="degree" format="2">
  <advance width="350"/>
  <unicode hex="00B0"/>
  <outline>
    <contour>
      <point x="191" y="578" type="curve" smooth="yes"/>
      <point x="204" y="641"/>
      <point x="271" y="695"/>
      <point x="333" y="695" type="curve" smooth="yes"/>
      <point x="400" y="695"/>
      <point x="436" y="642"/>
      <point x="423" y="580" type="curve" smooth="yes"/>
      <point x="409" y="515"/>
      <point x="343" y="462"/>
      <point x="281" y="462" type="curve" smooth="yes"/>
      <point x="215" y="462"/>
      <point x="177" y="516"/>
    </contour>
    <contour>
      <point x="231" y="579" type="curve"/>
      <point x="231" y="579"/>
      <point x="232" y="578"/>
      <point x="232" y="578" type="curve"/>
      <point x="222" y="538"/>
      <point x="247" y="502"/>
      <point x="291" y="502" type="curve" smooth="yes"/>
      <point x="333" y="502"/>
      <point x="375" y="537"/>
      <point x="385" y="578" type="curve" smooth="yes"/>
      <point x="395" y="619"/>
      <point x="370" y="655"/>
      <point x="327" y="655" type="curve" smooth="yes"/>
      <point x="285" y="655"/>
      <point x="241" y="620"/>
    </contour>
  </outline>
</glyph>
<glyph name="plusminus" format="2">
  <advance width="642"/>
  <unicode hex="00B1"/>
  <outline>
    <contour>
      <point x="84" y="108" type="curve"/>
      <point x="84" y="109"/>
      <point x="84" y="110"/>
      <point x="84" y="111" type="curve" smooth="yes"/>
      <point x="84" y="112"/>
      <point x="86" y="131"/>
      <point x="106" y="131" type="curve" smooth="yes"/>
      <point x="109" y="131"/>
      <point x="111" y="131"/>
      <point x="112" y="131" type="curve" smooth="yes"/>
      <point x="117" y="131"/>
      <point x="121" y="131"/>
      <point x="126" y="131" type="curve" smooth="yes"/>
      <point x="331" y="131" type="line"/>
      <point x="377" y="333" type="line"/>
      <point x="166" y="333" type="line" smooth="yes"/>
      <point x="145" y="333"/>
      <point x="136" y="340"/>
      <point x="139" y="353" type="curve" smooth="yes"/>
      <point x="142" y="366"/>
      <point x="153" y="373"/>
      <point x="172" y="373" type="curve" smooth="yes"/>
      <point x="180" y="373"/>
      <point x="188" y="373"/>
      <point x="196" y="373" type="curve" smooth="yes"/>
      <point x="386" y="373" type="line"/>
      <point x="425" y="542" type="line"/>
      <point x="434" y="570"/>
      <point x="428" y="615"/>
      <point x="459" y="615" type="curve" smooth="yes"/>
      <point x="470" y="615"/>
      <point x="473" y="605"/>
      <point x="473" y="594" type="curve" smooth="yes"/>
      <point x="473" y="582"/>
      <point x="462" y="545"/>
      <point x="462" y="540" type="curve"/>
      <point x="424" y="372" type="line"/>
      <point x="592" y="372" type="line" smooth="yes"/>
      <point x="606" y="372"/>
      <point x="620" y="372"/>
      <point x="634" y="372" type="curve"/>
      <point x="634" y="372"/>
      <point x="634" y="372"/>
      <point x="634" y="372" type="curve"/>
      <point x="655" y="372"/>
      <point x="664" y="365"/>
      <point x="661" y="352" type="curve" smooth="yes"/>
      <point x="656" y="332"/>
      <point x="638" y="332"/>
      <point x="604" y="332" type="curve" smooth="yes"/>
      <point x="415" y="332" type="line"/>
      <point x="369" y="130" type="line"/>
      <point x="537" y="130" type="line" smooth="yes"/>
      <point x="566" y="130"/>
      <point x="613" y="138"/>
      <point x="604" y="107" type="curve" smooth="yes"/>
      <point x="599" y="90"/>
      <point x="582" y="89"/>
      <point x="536" y="89" type="curve" smooth="yes"/>
      <point x="108" y="89" type="line" smooth="yes"/>
      <point x="89" y="89"/>
      <point x="81" y="95"/>
    </contour>
  </outline>
</glyph>
<glyph name="uni00B2" format="2">
  <advance width="467"/>
  <unicode hex="00B2"/>
  <outline>
    <contour>
      <point x="199" y="677" type="curve"/>
      <point x="200" y="677"/>
      <point x="200" y="678"/>
      <point x="201" y="678" type="curve"/>
      <point x="250" y="727"/>
      <point x="302" y="768"/>
      <point x="396" y="768" type="curve" smooth="yes"/>
      <point x="511" y="768"/>
      <point x="577" y="712"/>
      <point x="558" y="626" type="curve" smooth="yes"/>
      <point x="548" y="581"/>
      <point x="505" y="545"/>
      <point x="464" y="527" type="curve" smooth="yes"/>
      <point x="434" y="514" type="line"/>
      <point x="428" y="512"/>
      <point x="422" y="509"/>
      <point x="416" y="506" type="curve"/>
      <point x="377" y="490"/>
      <point x="412" y="510"/>
      <point x="317" y="464" type="curve" smooth="yes"/>
      <point x="202" y="405" type="line"/>
      <point x="324" y="405" type="line" smooth="yes"/>
      <point x="338" y="405"/>
      <point x="351" y="405"/>
      <point x="365" y="405" type="curve" smooth="yes"/>
      <point x="508" y="405" type="line"/>
      <point x="495" y="349" type="line"/>
      <point x="134" y="349" type="line"/>
      <point x="147" y="405" type="line"/>
      <point x="214" y="440"/>
      <point x="263" y="467"/>
      <point x="294" y="482" type="curve" smooth="yes"/>
      <point x="401" y="531"/>
      <point x="477" y="553"/>
      <point x="491" y="624" type="curve"/>
      <point x="493" y="632"/>
      <point x="493" y="640"/>
      <point x="493" y="647" type="curve"/>
      <point x="491" y="696"/>
      <point x="429" y="715"/>
      <point x="370" y="715" type="curve" smooth="yes"/>
      <point x="282" y="715"/>
      <point x="254" y="670"/>
      <point x="233" y="644" type="curve" smooth="yes"/>
      <point x="221" y="629" type="line"/>
      <point x="210" y="653" type="line"/>
      <point x="207" y="658"/>
      <point x="203" y="666"/>
    </contour>
  </outline>
</glyph>
<glyph name="uni00B3" format="2">
  <advance width="467"/>
  <unicode hex="00B3"/>
  <outline>
    <contour>
      <point x="131" y="382" type="curve"/>
      <point x="146" y="431" type="line"/>
      <point x="205" y="402"/>
      <point x="263" y="388"/>
      <point x="321" y="388" type="curve" smooth="yes"/>
      <point x="405" y="388"/>
      <point x="446" y="425"/>
      <point x="454" y="461" type="curve" smooth="yes"/>
      <point x="466" y="516"/>
      <point x="407" y="535"/>
      <point x="344" y="535" type="curve" smooth="yes"/>
      <point x="294" y="535" type="line"/>
      <point x="305" y="585" type="line"/>
      <point x="432" y="596"/>
      <point x="465" y="619"/>
      <point x="475" y="663" type="curve" smooth="yes"/>
      <point x="480" y="687"/>
      <point x="465" y="715"/>
      <point x="399" y="715" type="curve" smooth="yes"/>
      <point x="344" y="715"/>
      <point x="288" y="695"/>
      <point x="231" y="654" type="curve"/>
      <point x="214" y="701" type="line"/>
      <point x="279" y="744"/>
      <point x="343" y="766"/>
      <point x="407" y="766" type="curve" smooth="yes"/>
      <point x="490" y="766"/>
      <point x="556" y="724"/>
      <point x="542" y="663" type="curve" smooth="yes"/>
      <point x="531" y="614"/>
      <point x="486" y="582"/>
      <point x="457" y="568" type="curve" smooth="yes"/>
      <point x="451" y="565"/>
      <point x="447" y="563"/>
      <point x="444" y="562" type="curve"/>
      <point x="440" y="560" type="line"/>
      <point x="495" y="543"/>
      <point x="524" y="517"/>
      <point x="527" y="481" type="curve"/>
      <point x="543" y="403"/>
      <point x="413" y="339"/>
      <point x="311" y="339" type="curve" smooth="yes"/>
      <point x="250" y="339"/>
      <point x="190" y="353"/>
    </contour>
  </outline>
</glyph>
<glyph name="acute" format="2">
  <advance width="525"/>
  <unicode hex="00B4"/>
  <outline>
    <contour>
      <point x="331" y="538" type="line"/>
      <point x="511" y="668" type="line"/>
      <point x="576" y="668" type="line"/>
      <point x="468" y="596" type="line" smooth="yes"/>
      <point x="377" y="535"/>
      <point x="388" y="538"/>
      <point x="369" y="538" type="curve" smooth="yes"/>
    </contour>
  </outline>
</glyph>
<glyph name="mu" format="2">
  <advance width="517"/>
  <unicode hex="00B5"/>
  <outline>
    <contour>
      <point x="41" y="-167" type="line"/>
      <point x="188" y="471" type="line"/>
      <point x="253" y="471" type="line"/>
      <point x="173" y="123" type="line" smooth="yes"/>
      <point x="170" y="110"/>
      <point x="168" y="100"/>
      <point x="167" y="93" type="curve" smooth="yes"/>
      <point x="162" y="58"/>
      <point x="184" y="39"/>
      <point x="247" y="39" type="curve" smooth="yes"/>
      <point x="326" y="39"/>
      <point x="393" y="94"/>
      <point x="412" y="175" type="curve" smooth="yes"/>
      <point x="481" y="472" type="line"/>
      <point x="545" y="472" type="line"/>
      <point x="436" y="0" type="line" name=".hr01"/>
      <point x="373" y="0" type="line"/>
      <point x="393" y="86" type="line"/>
      <point x="345" y="28"/>
      <point x="267" y="-8" name=".hr02"/>
      <point x="194" y="-8" type="curve" smooth="yes"/>
      <point x="178" y="-8"/>
      <point x="162" y="-5"/>
      <point x="145" y="0" type="curve" name=".hr03"/>
      <point x="106" y="-167" type="line"/>
    </contour>
  </outline>
</glyph>
<glyph name="paragraph" format="2">
  <advance width="642"/>
  <unicode hex="00B6"/>
  <outline>
    <contour>
      <point x="167" y="470" type="curve" smooth="yes"/>
      <point x="192" y="572"/>
      <point x="303" y="693"/>
      <point x="492" y="693" type="curve" smooth="yes"/>
      <point x="740" y="693" type="line" smooth="yes"/>
      <point x="760" y="693"/>
      <point x="769" y="686"/>
      <point x="766" y="672" type="curve" smooth="yes"/>
      <point x="763" y="659"/>
      <point x="753" y="653"/>
      <point x="735" y="653" type="curve" smooth="yes"/>
      <point x="675" y="653" type="line"/>
      <point x="493" y="-138" type="line" smooth="yes"/>
      <point x="488" y="-158"/>
      <point x="479" y="-168"/>
      <point x="466" y="-168" type="curve" smooth="yes"/>
      <point x="453" y="-168"/>
      <point x="449" y="-158"/>
      <point x="454" y="-138" type="curve" smooth="yes"/>
      <point x="636" y="653" type="line"/>
      <point x="563" y="653" type="line"/>
      <point x="381" y="-137" type="line" smooth="yes"/>
      <point x="376" y="-158"/>
      <point x="367" y="-168"/>
      <point x="354" y="-168" type="curve" smooth="yes"/>
      <point x="341" y="-168"/>
      <point x="336" y="-159"/>
      <point x="340" y="-140" type="curve" smooth="yes"/>
      <point x="428" y="242" type="line"/>
      <point x="285" y="246"/>
      <point x="131" y="316"/>
    </contour>
  </outline>
</glyph>
<glyph name="periodcentered" format="2">
  <advance width="258"/>
  <unicode hex="00B7"/>
  <outline>
    <contour>
      <point x="147" y="218" type="line"/>
      <point x="162" y="281" type="line"/>
      <point x="225" y="281" type="line"/>
      <point x="210" y="218" type="line"/>
    </contour>
  </outline>
</glyph>
<glyph name="cedilla" format="2">
  <advance width="467"/>
  <unicode hex="00B8"/>
  <outline>
    <contour>
      <point x="93" y="-163" type="line"/>
      <point x="204" y="-18" type="line"/>
      <point x="254" y="-18" type="line"/>
      <point x="151" y="-163" type="line"/>
    </contour>
  </outline>
</glyph>
<glyph name="uni00B9" format="2">
  <advance width="467"/>
  <unicode hex="00B9"/>
  <outline>
    <contour>
      <point x="224" y="641" type="curve"/>
      <point x="236" y="692" type="line"/>
      <point x="316" y="693"/>
      <point x="384" y="718"/>
      <point x="439" y="767" type="curve"/>
      <point x="455" y="767" type="line"/>
      <point x="370" y="398" type="line"/>
      <point x="485" y="398" type="line"/>
      <point x="473" y="347" type="line"/>
      <point x="166" y="347" type="line"/>
      <point x="178" y="398" type="line"/>
      <point x="305" y="398" type="line"/>
      <point x="369" y="675" type="line"/>
      <point x="324" y="653"/>
      <point x="276" y="642"/>
    </contour>
  </outline>
</glyph>
<glyph name="ordmasculine" format="2">
  <advance width="467"/>
  <unicode hex="00BA"/>
  <outline>
    <contour>
      <point x="104" y="309" type="curve"/>
      <point x="103" y="309"/>
      <point x="103" y="309"/>
      <point x="102" y="309" type="curve"/>
      <point x="109" y="334"/>
      <point x="129" y="335"/>
      <point x="170" y="335" type="curve" smooth="yes"/>
      <point x="473" y="335" type="line" smooth="yes"/>
      <point x="496" y="335"/>
      <point x="505" y="326"/>
      <point x="501" y="309" type="curve" smooth="yes"/>
      <point x="496" y="289"/>
      <point x="482" y="284"/>
      <point x="456" y="284" type="curve" smooth="yes"/>
      <point x="128" y="284" type="line" smooth="yes"/>
      <point x="110" y="284"/>
      <point x="103" y="295"/>
      <point x="103" y="300" type="curve" smooth="yes"/>
      <point x="103" y="303"/>
      <point x="103" y="306"/>
    </contour>
    <contour>
      <point x="168" y="561" type="curve"/>
      <point x="168" y="560"/>
      <point x="168" y="559"/>
      <point x="168" y="558" type="curve"/>
      <point x="193" y="666"/>
      <point x="298" y="760"/>
      <point x="407" y="760" type="curve" smooth="yes"/>
      <point x="510" y="760"/>
      <point x="579" y="674"/>
      <point x="553" y="561" type="curve" smooth="yes"/>
      <point x="529" y="456"/>
      <point x="423" y="367"/>
      <point x="316" y="367" type="curve" smooth="yes"/>
      <point x="213" y="367"/>
      <point x="142" y="451"/>
    </contour>
    <contour>
      <point x="234" y="566" type="curve"/>
      <point x="234" y="566"/>
      <point x="235" y="565"/>
      <point x="235" y="565" type="curve"/>
      <point x="228" y="535"/>
      <point x="226" y="510"/>
      <point x="229" y="489" type="curve" smooth="yes"/>
      <point x="237" y="433"/>
      <point x="289" y="416"/>
      <point x="327" y="416" type="curve" smooth="yes"/>
      <point x="388" y="416"/>
      <point x="461" y="448"/>
      <point x="489" y="568" type="curve" smooth="yes"/>
      <point x="513" y="673"/>
      <point x="459" y="710"/>
      <point x="394" y="710" type="curve" smooth="yes"/>
      <point x="325" y="710"/>
      <point x="258" y="670"/>
    </contour>
  </outline>
</glyph>
<glyph name="guillemotright" format="2">
  <advance width="700"/>
  <unicode hex="00BB"/>
  <outline>
    <contour>
      <point x="105" y="0" type="line"/>
      <point x="402" y="236" type="line"/>
      <point x="214" y="472" type="line"/>
      <point x="270" y="472" type="line"/>
      <point x="462" y="236" type="line"/>
      <point x="161" y="0" type="line"/>
    </contour>
    <contour>
      <point x="280" y="0" type="line"/>
      <point x="577" y="236" type="line"/>
      <point x="389" y="472" type="line"/>
      <point x="445" y="472" type="line"/>
      <point x="637" y="236" type="line"/>
      <point x="336" y="0" type="line"/>
    </contour>
  </outline>
</glyph>
<glyph name="onequarter" format="2">
  <advance width="467"/>
  <unicode hex="00BC"/>
  <outline>
    <contour>
      <point x="78" y="294" type="curve"/>
      <point x="78" y="294"/>
      <point x="77" y="293"/>
      <point x="77" y="293" type="curve"/>
      <point x="86" y="308"/>
      <point x="102" y="313"/>
      <point x="119" y="313" type="curve" smooth="yes"/>
      <point x="126" y="313"/>
      <point x="137" y="311"/>
      <point x="146" y="311" type="curve" smooth="yes"/>
      <point x="479" y="311" type="line" smooth="yes"/>
      <point x="526" y="311"/>
      <point x="516" y="303"/>
      <point x="524" y="295" type="curve"/>
      <point x="517" y="268"/>
      <point x="499" y="271"/>
      <point x="468" y="271" type="curve" smooth="yes"/>
      <point x="100" y="271" type="line" smooth="yes"/>
      <point x="83" y="271"/>
      <point x="77" y="277"/>
      <point x="77" y="284" type="curve" smooth="yes"/>
      <point x="77" y="287"/>
      <point x="78" y="291"/>
    </contour>
    <contour>
      <point x="23" y="-23" type="line"/>
      <point x="295" y="239" type="line"/>
      <point x="377" y="239" type="line"/>
      <point x="317" y="-24" type="line"/>
      <point x="431" y="-24" type="line"/>
      <point x="418" y="-77" type="line"/>
      <point x="304" y="-77" type="line"/>
      <point x="283" y="-168" type="line"/>
      <point x="220" y="-168" type="line" name=".hr01"/>
      <point x="241" y="-77" type="line"/>
      <point x="10" y="-77" type="line" name=".hr02"/>
    </contour>
    <contour>
      <point x="232" y="675" type="curve"/>
      <point x="244" y="725" type="line"/>
      <point x="408" y="729"/>
      <point x="407" y="766"/>
      <point x="455" y="766" type="curve"/>
      <point x="371" y="401" type="line"/>
      <point x="486" y="401" type="line"/>
      <point x="474" y="351" type="line"/>
      <point x="167" y="351" type="line"/>
      <point x="179" y="401" type="line"/>
      <point x="306" y="401" type="line"/>
      <point x="373" y="692" type="line"/>
      <point x="332" y="681"/>
      <point x="285" y="675"/>
    </contour>
    <contour>
      <point x="94" y="-25" type="line"/>
      <point x="257" y="-25" type="line"/>
      <point x="304" y="182" type="line"/>
      <point x="239" y="116" type="line"/>
    </contour>
  </outline>
</glyph>
<glyph name="onehalf" format="2">
  <advance width="467"/>
  <unicode hex="00BD"/>
  <outline>
    <contour>
      <point x="78" y="294" type="curve"/>
      <point x="78" y="294"/>
      <point x="77" y="293"/>
      <point x="77" y="293" type="curve"/>
      <point x="86" y="308"/>
      <point x="102" y="313"/>
      <point x="119" y="313" type="curve" smooth="yes"/>
      <point x="126" y="313"/>
      <point x="137" y="311"/>
      <point x="146" y="311" type="curve" smooth="yes"/>
      <point x="479" y="311" type="line" smooth="yes"/>
      <point x="526" y="311"/>
      <point x="516" y="303"/>
      <point x="524" y="295" type="curve"/>
      <point x="517" y="268"/>
      <point x="499" y="271"/>
      <point x="468" y="271" type="curve" smooth="yes"/>
      <point x="100" y="271" type="line" smooth="yes"/>
      <point x="83" y="271"/>
      <point x="77" y="277"/>
      <point x="77" y="284" type="curve" smooth="yes"/>
      <point x="77" y="287"/>
      <point x="78" y="291"/>
    </contour>
    <contour>
      <point x="83" y="171" type="line"/>
      <point x="83" y="170"/>
      <point x="84" y="169"/>
      <point x="84" y="168" type="curve"/>
      <point x="150" y="224"/>
      <point x="200" y="246"/>
      <point x="277" y="246" type="curve" smooth="yes"/>
      <point x="394" y="246"/>
      <point x="461" y="194"/>
      <point x="443" y="116" type="curve"/>
      <point x="430" y="32"/>
      <point x="323" y="13"/>
      <point x="214" y="-47" type="curve" smooth="yes"/>
      <point x="86" y="-117" type="line"/>
      <point x="187" y="-117" type="line" smooth="yes"/>
      <point x="204" y="-117"/>
      <point x="220" y="-117"/>
      <point x="237" y="-117" type="curve" smooth="yes"/>
      <point x="389" y="-117" type="line"/>
      <point x="376" y="-170" type="line"/>
      <point x="14" y="-170" type="line"/>
      <point x="26" y="-119" type="line"/>
      <point x="172" y="-38" type="line" smooth="yes"/>
      <point x="260" y="11"/>
      <point x="358" y="36"/>
      <point x="373" y="118" type="curve" smooth="yes"/>
      <point x="382" y="168"/>
      <point x="337" y="197"/>
      <point x="251" y="197" type="curve" smooth="yes"/>
      <point x="194" y="197"/>
      <point x="150" y="174"/>
      <point x="130" y="151" type="curve" smooth="yes"/>
      <point x="105" y="123" type="line"/>
    </contour>
    <contour>
      <point x="233" y="672" type="curve"/>
      <point x="245" y="722" type="line"/>
      <point x="409" y="726"/>
      <point x="408" y="763"/>
      <point x="456" y="763" type="curve"/>
      <point x="372" y="398" type="line"/>
      <point x="487" y="398" type="line"/>
      <point x="475" y="348" type="line"/>
      <point x="168" y="348" type="line"/>
      <point x="180" y="398" type="line"/>
      <point x="307" y="398" type="line"/>
      <point x="374" y="689" type="line"/>
      <point x="333" y="678"/>
      <point x="286" y="672"/>
    </contour>
  </outline>
</glyph>
<glyph name="threequarters" format="2">
  <advance width="467"/>
  <unicode hex="00BE"/>
  <outline>
    <contour>
      <point x="78" y="294" type="curve"/>
      <point x="78" y="294"/>
      <point x="77" y="293"/>
      <point x="77" y="293" type="curve"/>
      <point x="86" y="308"/>
      <point x="102" y="313"/>
      <point x="119" y="313" type="curve" smooth="yes"/>
      <point x="126" y="313"/>
      <point x="137" y="311"/>
      <point x="146" y="311" type="curve" smooth="yes"/>
      <point x="479" y="311" type="line" smooth="yes"/>
      <point x="526" y="311"/>
      <point x="516" y="303"/>
      <point x="524" y="295" type="curve"/>
      <point x="517" y="268"/>
      <point x="499" y="271"/>
      <point x="468" y="271" type="curve" smooth="yes"/>
      <point x="100" y="271" type="line" smooth="yes"/>
      <point x="83" y="271"/>
      <point x="77" y="277"/>
      <point x="77" y="284" type="curve" smooth="yes"/>
      <point x="77" y="287"/>
      <point x="78" y="291"/>
    </contour>
    <contour>
      <point x="23" y="-23" type="line"/>
      <point x="295" y="239" type="line"/>
      <point x="377" y="239" type="line"/>
      <point x="317" y="-24" type="line"/>
      <point x="431" y="-24" type="line"/>
      <point x="418" y="-77" type="line"/>
      <point x="304" y="-77" type="line" name=".hr01"/>
      <point x="283" y="-168" type="line"/>
      <point x="220" y="-168" type="line" name=".hr02"/>
      <point x="241" y="-77" type="line"/>
      <point x="10" y="-77" type="line" name=".hr03"/>
    </contour>
    <contour>
      <point x="128" y="369" type="curve"/>
      <point x="141" y="421" type="line"/>
      <point x="199" y="398"/>
      <point x="258" y="386"/>
      <point x="319" y="386" type="curve" smooth="yes"/>
      <point x="414" y="386"/>
      <point x="458" y="435"/>
      <point x="452" y="481" type="curve" smooth="yes"/>
      <point x="448" y="508"/>
      <point x="422" y="536"/>
      <point x="342" y="536" type="curve" smooth="yes"/>
      <point x="293" y="536" type="line"/>
      <point x="305" y="587" type="line"/>
      <point x="408" y="592"/>
      <point x="465" y="618"/>
      <point x="476" y="666" type="curve" smooth="yes"/>
      <point x="482" y="693"/>
      <point x="465" y="717"/>
      <point x="398" y="717" type="curve" smooth="yes"/>
      <point x="347" y="717"/>
      <point x="293" y="699"/>
      <point x="236" y="664" type="curve"/>
      <point x="218" y="711" type="line"/>
      <point x="283" y="749"/>
      <point x="347" y="768"/>
      <point x="410" y="768" type="curve" smooth="yes"/>
      <point x="499" y="768"/>
      <point x="555" y="723"/>
      <point x="542" y="664" type="curve" smooth="yes"/>
      <point x="526" y="596"/>
      <point x="464" y="571"/>
      <point x="439" y="559" type="curve"/>
      <point x="489" y="544"/>
      <point x="518" y="521"/>
      <point x="526" y="490" type="curve"/>
      <point x="529" y="481"/>
      <point x="529" y="471"/>
      <point x="526" y="460" type="curve"/>
      <point x="510" y="388"/>
      <point x="411" y="334"/>
      <point x="311" y="334" type="curve" smooth="yes"/>
      <point x="249" y="334"/>
      <point x="188" y="346"/>
    </contour>
    <contour>
      <point x="88" y="-24" type="line"/>
      <point x="251" y="-24" type="line"/>
      <point x="298" y="183" type="line"/>
      <point x="233" y="117" type="line"/>
    </contour>
  </outline>
</glyph>
<glyph name="questiondown" format="2">
  <advance width="496"/>
  <unicode hex="00BF"/>
  <outline>
    <contour>
      <point x="52" y="-25" type="curve"/>
      <point x="52" y="-30" type="line"/>
      <point x="71" y="51"/>
      <point x="112" y="72"/>
      <point x="132" y="87" type="curve" smooth="yes"/>
      <point x="140" y="93"/>
      <point x="145" y="97"/>
      <point x="147" y="98" type="curve"/>
      <point x="214" y="154"/>
      <point x="257" y="225"/>
      <point x="277" y="311" type="curve" smooth="yes"/>
      <point x="285" y="346" type="line"/>
      <point x="347" y="346" type="line"/>
      <point x="343" y="329" type="line"/>
      <point x="341" y="322"/>
      <point x="339" y="314"/>
      <point x="339" y="311" type="curve"/>
      <point x="309" y="175"/>
      <point x="240" y="111"/>
      <point x="187" y="67" type="curve" smooth="yes"/>
      <point x="164" y="48"/>
      <point x="152" y="38"/>
      <point x="151" y="37" type="curve" smooth="yes"/>
      <point x="134" y="20"/>
      <point x="123" y="-2"/>
      <point x="117" y="-29" type="curve" smooth="yes"/>
      <point x="101" y="-101"/>
      <point x="130" y="-126"/>
      <point x="204" y="-126" type="curve" smooth="yes"/>
      <point x="267" y="-126"/>
      <point x="331" y="-108"/>
      <point x="403" y="-70" type="curve"/>
      <point x="410" y="-123" type="line"/>
      <point x="336" y="-158"/>
      <point x="264" y="-176"/>
      <point x="195" y="-176" type="curve" smooth="yes"/>
      <point x="79" y="-176"/>
      <point x="51" y="-121"/>
      <point x="48" y="-74" type="curve" smooth="yes"/>
      <point x="47" y="-58"/>
      <point x="48" y="-42"/>
    </contour>
    <contour>
      <point x="298" y="445" type="line"/>
      <point x="316" y="523" type="line"/>
      <point x="394" y="523" type="line"/>
      <point x="376" y="445" type="line"/>
    </contour>
  </outline>
</glyph>
<glyph name="Agrave" format="2">
  <advance width="675"/>
  <unicode hex="00C0"/>
  <outline>
    <contour>
      <point x="391" y="850" type="line"/>
      <point x="418" y="850"/>
      <point x="446" y="851"/>
      <point x="473" y="851" type="curve" smooth="yes"/>
      <point x="481" y="851"/>
      <point x="545" y="814"/>
      <point x="634" y="761" type="curve"/>
      <point x="571" y="761" type="line" smooth="yes"/>
      <point x="568" y="761"/>
      <point x="485" y="803"/>
      <point x="433" y="829" type="curve" smooth="yes"/>
    </contour>
    <contour>
      <point x="30" y="1" type="line"/>
      <point x="462" y="704" type="line"/>
      <point x="538" y="704" type="line"/>
      <point x="646" y="1" type="line"/>
      <point x="573" y="1" type="line"/>
      <point x="540" y="211" type="line"/>
      <point x="223" y="211" type="line"/>
      <point x="95" y="1" type="line"/>
    </contour>
    <contour>
      <point x="257" y="264" type="curve"/>
      <point x="534" y="262" type="line"/>
      <point x="514" y="397"/>
      <point x="482" y="630"/>
      <point x="479" y="630" type="curve"/>
      <point x="433" y="555"/>
      <point x="359" y="433"/>
    </contour>
  </outline>
</glyph>
<glyph name="Aacute" format="2">
  <advance width="675"/>
  <unicode hex="00C1"/>
  <outline>
    <contour>
      <point x="390" y="760" type="curve"/>
      <point x="560" y="840" type="line"/>
      <point x="585" y="850" type="line"/>
      <point x="585" y="850"/>
      <point x="585" y="850"/>
      <point x="585" y="850" type="curve"/>
      <point x="591" y="850" type="line"/>
      <point x="591" y="850"/>
      <point x="591" y="850"/>
      <point x="591" y="850" type="curve"/>
      <point x="599" y="850" type="line"/>
      <point x="676" y="850" type="line"/>
      <point x="468" y="762"/>
      <point x="451" y="760"/>
      <point x="449" y="760" type="curve" smooth="yes"/>
      <point x="429" y="760"/>
      <point x="410" y="760"/>
    </contour>
    <contour>
      <point x="30" y="1" type="line"/>
      <point x="462" y="704" type="line"/>
      <point x="538" y="704" type="line"/>
      <point x="646" y="1" type="line"/>
      <point x="573" y="1" type="line"/>
      <point x="540" y="211" type="line"/>
      <point x="223" y="211" type="line"/>
      <point x="95" y="1" type="line"/>
    </contour>
    <contour>
      <point x="257" y="264" type="curve"/>
      <point x="534" y="262" type="line"/>
      <point x="514" y="397"/>
      <point x="482" y="630"/>
      <point x="479" y="630" type="curve"/>
      <point x="433" y="555"/>
      <point x="359" y="433"/>
    </contour>
  </outline>
</glyph>
<glyph name="Acircumflex" format="2">
  <advance width="675"/>
  <unicode hex="00C2"/>
  <outline>
    <contour>
      <point x="343" y="727" type="line"/>
      <point x="513" y="897" type="line"/>
      <point x="576" y="897" type="line"/>
      <point x="656" y="727" type="line"/>
      <point x="605" y="727" type="line"/>
      <point x="529" y="857" type="line"/>
      <point x="462" y="792" type="line" smooth="yes"/>
      <point x="432" y="763"/>
      <point x="409" y="741"/>
      <point x="394" y="727" type="curve"/>
    </contour>
    <contour>
      <point x="29" y="0" type="line"/>
      <point x="461" y="703" type="line"/>
      <point x="537" y="703" type="line"/>
      <point x="645" y="0" type="line"/>
      <point x="572" y="0" type="line"/>
      <point x="539" y="210" type="line"/>
      <point x="222" y="210" type="line"/>
      <point x="94" y="0" type="line"/>
    </contour>
    <contour>
      <point x="256" y="263" type="curve"/>
      <point x="533" y="261" type="line"/>
      <point x="513" y="396"/>
      <point x="481" y="629"/>
      <point x="478" y="629" type="curve"/>
      <point x="432" y="554"/>
      <point x="358" y="432"/>
    </contour>
  </outline>
</glyph>
<glyph name="Atilde" format="2">
  <advance width="675"/>
  <unicode hex="00C3"/>
  <outline>
    <contour>
      <point x="29" y="0" type="line"/>
      <point x="461" y="703" type="line"/>
      <point x="537" y="703" type="line"/>
      <point x="645" y="0" type="line"/>
      <point x="572" y="0" type="line"/>
      <point x="539" y="210" type="line"/>
      <point x="222" y="210" type="line"/>
      <point x="94" y="0" type="line"/>
    </contour>
    <contour>
      <point x="256" y="263" type="curve"/>
      <point x="533" y="261" type="line"/>
      <point x="513" y="396"/>
      <point x="481" y="629"/>
      <point x="478" y="629" type="curve"/>
      <point x="432" y="554"/>
      <point x="358" y="432"/>
    </contour>
    <contour>
      <point x="331" y="725" type="line"/>
      <point x="331" y="724"/>
      <point x="330" y="723"/>
      <point x="330" y="722" type="curve"/>
      <point x="332" y="730"/>
      <point x="334" y="738"/>
      <point x="336" y="746" type="curve"/>
      <point x="364" y="829"/>
      <point x="411" y="885"/>
      <point x="466" y="885" type="curve" smooth="yes"/>
      <point x="531" y="885"/>
      <point x="525" y="771"/>
      <point x="592" y="771" type="curve" smooth="yes"/>
      <point x="645" y="771"/>
      <point x="657" y="852"/>
      <point x="668" y="883" type="curve"/>
      <point x="718" y="883" type="line"/>
      <point x="696" y="789"/>
      <point x="642" y="721"/>
      <point x="582" y="721" type="curve" smooth="yes"/>
      <point x="517" y="721"/>
      <point x="522" y="835"/>
      <point x="457" y="835" type="curve" smooth="yes"/>
      <point x="446" y="835"/>
      <point x="436" y="832"/>
      <point x="427" y="826" type="curve" smooth="yes"/>
      <point x="406" y="812"/>
      <point x="381" y="748"/>
      <point x="381" y="725" type="curve"/>
    </contour>
  </outline>
</glyph>
<glyph name="Adieresis" format="2">
  <advance width="675"/>
  <unicode hex="00C4"/>
  <outline>
    <contour>
      <point x="392" y="816" type="line"/>
      <point x="407" y="879" type="line"/>
      <point x="470" y="879" type="line"/>
      <point x="455" y="816" type="line"/>
    </contour>
    <contour>
      <point x="596" y="816" type="line"/>
      <point x="611" y="879" type="line"/>
      <point x="674" y="879" type="line"/>
      <point x="659" y="816" type="line"/>
    </contour>
    <contour>
      <point x="29" y="0" type="line"/>
      <point x="461" y="703" type="line"/>
      <point x="537" y="703" type="line"/>
      <point x="645" y="0" type="line"/>
      <point x="572" y="0" type="line"/>
      <point x="539" y="210" type="line"/>
      <point x="222" y="210" type="line"/>
      <point x="94" y="0" type="line"/>
    </contour>
    <contour>
      <point x="256" y="263" type="curve"/>
      <point x="533" y="261" type="line"/>
      <point x="513" y="396"/>
      <point x="481" y="629"/>
      <point x="478" y="629" type="curve"/>
      <point x="432" y="554"/>
      <point x="358" y="432"/>
    </contour>
  </outline>
</glyph>
<glyph name="Aring" format="2">
  <advance width="675"/>
  <unicode hex="00C5"/>
  <outline>
    <contour>
      <point x="29" y="0" type="line"/>
      <point x="440" y="664" type="line"/>
      <point x="413" y="680"/>
      <point x="397" y="702"/>
      <point x="393" y="729" type="curve" smooth="yes"/>
      <point x="382" y="802"/>
      <point x="451" y="895"/>
      <point x="536" y="895" type="curve" smooth="yes"/>
      <point x="605" y="895"/>
      <point x="642" y="839"/>
      <point x="627" y="774" type="curve" smooth="yes"/>
      <point x="617" y="730"/>
      <point x="580" y="686"/>
      <point x="543" y="668" type="curve"/>
      <point x="645" y="0" type="line"/>
      <point x="572" y="0" type="line"/>
      <point x="539" y="210" type="line"/>
      <point x="222" y="210" type="line"/>
      <point x="94" y="0" type="line"/>
    </contour>
    <contour>
      <point x="259" y="264" type="curve"/>
      <point x="535" y="262" type="line"/>
      <point x="529" y="297"/>
      <point x="520" y="351"/>
      <point x="511" y="423" type="curve" smooth="yes"/>
      <point x="494" y="543" type="line" smooth="yes"/>
      <point x="492" y="559"/>
      <point x="489" y="572"/>
      <point x="487" y="584" type="curve"/>
      <point x="484" y="606" type="line" smooth="yes"/>
      <point x="483" y="615"/>
      <point x="482" y="623"/>
      <point x="481" y="630" type="curve"/>
      <point x="435" y="555"/>
      <point x="361" y="433"/>
    </contour>
    <contour>
      <point x="455" y="774" type="curve"/>
      <point x="453" y="772" type="line"/>
      <point x="450" y="759"/>
      <point x="448" y="748"/>
      <point x="448" y="739" type="curve" smooth="yes"/>
      <point x="448" y="721"/>
      <point x="460" y="701"/>
      <point x="495" y="701" type="curve" smooth="yes"/>
      <point x="541" y="701"/>
      <point x="567" y="734"/>
      <point x="576" y="797" type="curve" smooth="yes"/>
      <point x="580" y="824"/>
      <point x="567" y="843"/>
      <point x="530" y="843" type="curve" smooth="yes"/>
      <point x="491" y="843"/>
      <point x="466" y="820"/>
    </contour>
  </outline>
</glyph>
<glyph name="AE" format="2">
  <advance width="892"/>
  <unicode hex="00C6"/>
  <outline>
    <contour>
      <point x="29" y="0" type="line"/>
      <point x="485" y="695" type="line"/>
      <point x="993" y="695" type="line"/>
      <point x="981" y="641" type="line"/>
      <point x="645" y="641" type="line"/>
      <point x="587" y="388" type="line"/>
      <point x="894" y="388" type="line"/>
      <point x="881" y="335" type="line"/>
      <point x="574" y="335" type="line"/>
      <point x="510" y="56" type="line"/>
      <point x="773" y="56" type="line" smooth="yes"/>
      <point x="802" y="56"/>
      <point x="832" y="56"/>
      <point x="861" y="56" type="curve"/>
      <point x="848" y="0" type="line"/>
      <point x="428" y="0" type="line"/>
      <point x="480" y="225" type="line"/>
      <point x="242" y="225" type="line"/>
      <point x="95" y="0" type="line"/>
    </contour>
    <contour>
      <point x="277" y="278" type="curve"/>
      <point x="349" y="278"/>
      <point x="421" y="279"/>
      <point x="493" y="279" type="curve"/>
      <point x="577" y="642" type="line"/>
      <point x="517" y="642" type="line"/>
      <point x="473" y="575"/>
      <point x="321" y="344"/>
    </contour>
  </outline>
</glyph>
<glyph name="Ccedilla" format="2">
  <advance width="671"/>
  <unicode hex="00C7"/>
  <outline>
    <contour>
      <point x="161" y="347" type="curve"/>
      <point x="159" y="347"/>
      <point x="157" y="347"/>
      <point x="155" y="347" type="curve"/>
      <point x="200" y="538"/>
      <point x="377" y="711"/>
      <point x="573" y="711" type="curve" smooth="yes"/>
      <point x="635" y="711"/>
      <point x="697" y="700"/>
      <point x="758" y="677" type="curve"/>
      <point x="729" y="608" type="line"/>
      <point x="682" y="636"/>
      <point x="649" y="659"/>
      <point x="561" y="659" type="curve" smooth="yes"/>
      <point x="408" y="659"/>
      <point x="266" y="511"/>
      <point x="229" y="348" type="curve" smooth="yes"/>
      <point x="191" y="183"/>
      <point x="266" y="36"/>
      <point x="420" y="36" type="curve" smooth="yes"/>
      <point x="450" y="36"/>
      <point x="480" y="39"/>
      <point x="506" y="45" type="curve" smooth="yes"/>
      <point x="563" y="59"/>
      <point x="569" y="63"/>
      <point x="622" y="92" type="curve" smooth="yes"/>
      <point x="633" y="98" type="line"/>
      <point x="625" y="40" type="line"/>
      <point x="563" y="8"/>
      <point x="547" y="-3"/>
      <point x="471" y="-11" type="curve" smooth="yes"/>
      <point x="452" y="-13"/>
      <point x="431" y="-15"/>
      <point x="409" y="-15" type="curve" smooth="yes"/>
      <point x="281" y="-15"/>
      <point x="191" y="60"/>
      <point x="161" y="170" type="curve" smooth="yes"/>
      <point x="146" y="225"/>
      <point x="146" y="284"/>
    </contour>
    <contour>
      <point x="234" y="-193" type="line"/>
      <point x="345" y="-48" type="line"/>
      <point x="362" y="-48"/>
      <point x="378" y="-48"/>
      <point x="395" y="-48" type="curve"/>
      <point x="292" y="-193" type="line"/>
    </contour>
  </outline>
</glyph>
<glyph name="Egrave" format="2">
  <advance width="625"/>
  <unicode hex="00C8"/>
  <outline>
    <contour>
      <point x="345" y="850" type="line"/>
      <point x="372" y="850"/>
      <point x="400" y="851"/>
      <point x="427" y="851" type="curve" smooth="yes"/>
      <point x="435" y="851"/>
      <point x="499" y="814"/>
      <point x="588" y="761" type="curve"/>
      <point x="525" y="761" type="line" smooth="yes"/>
      <point x="522" y="761"/>
      <point x="439" y="803"/>
      <point x="387" y="829" type="curve" smooth="yes"/>
    </contour>
    <contour>
      <point x="99" y="1" type="line"/>
      <point x="259" y="694" type="line" name=".hr01"/>
      <point x="727" y="694" type="line"/>
      <point x="715" y="641" type="line"/>
      <point x="317" y="641" type="line"/>
      <point x="258" y="388" type="line"/>
      <point x="627" y="388" type="line"/>
      <point x="615" y="335" type="line"/>
      <point x="246" y="335" type="line"/>
      <point x="182" y="57" type="line"/>
      <point x="595" y="57" type="line"/>
      <point x="582" y="1" type="line"/>
    </contour>
  </outline>
</glyph>
<glyph name="Eacute" format="2">
  <advance width="625"/>
  <unicode hex="00C9"/>
  <outline>
    <contour>
      <point x="387" y="760" type="line"/>
      <point x="557" y="840" type="line"/>
      <point x="582" y="850" type="line"/>
      <point x="584" y="850"/>
      <point x="587" y="850"/>
      <point x="590" y="850" type="curve" smooth="yes"/>
      <point x="596" y="850" type="line"/>
      <point x="673" y="850" type="line"/>
      <point x="552" y="799" type="line" smooth="yes"/>
      <point x="491" y="773"/>
      <point x="456" y="760"/>
      <point x="446" y="760" type="curve" smooth="yes"/>
    </contour>
    <contour>
      <point x="99" y="1" type="line"/>
      <point x="259" y="694" type="line" name=".hr01"/>
      <point x="727" y="694" type="line"/>
      <point x="715" y="641" type="line"/>
      <point x="317" y="641" type="line"/>
      <point x="258" y="388" type="line"/>
      <point x="627" y="388" type="line"/>
      <point x="615" y="335" type="line"/>
      <point x="246" y="335" type="line"/>
      <point x="182" y="57" type="line"/>
      <point x="595" y="57" type="line"/>
      <point x="582" y="1" type="line"/>
    </contour>
  </outline>
</glyph>
<glyph name="Ecircumflex" format="2">
  <advance width="625"/>
  <unicode hex="00CA"/>
  <outline>
    <contour>
      <point x="303" y="727" type="line"/>
      <point x="473" y="897" type="line"/>
      <point x="524" y="897" type="line"/>
      <point x="616" y="727" type="line"/>
      <point x="565" y="727" type="line"/>
      <point x="489" y="857" type="line"/>
      <point x="422" y="792" type="line" smooth="yes"/>
      <point x="392" y="763"/>
      <point x="369" y="741"/>
      <point x="354" y="727" type="curve"/>
    </contour>
    <contour>
      <point x="98" y="0" type="line"/>
      <point x="258" y="693" type="line"/>
      <point x="726" y="693" type="line"/>
      <point x="714" y="640" type="line"/>
      <point x="316" y="640" type="line"/>
      <point x="257" y="387" type="line"/>
      <point x="626" y="387" type="line"/>
      <point x="614" y="334" type="line"/>
      <point x="245" y="334" type="line"/>
      <point x="181" y="56" type="line"/>
      <point x="594" y="56" type="line"/>
      <point x="581" y="0" type="line"/>
    </contour>
  </outline>
</glyph>
<glyph name="Edieresis" format="2">
  <advance width="625"/>
  <unicode hex="00CB"/>
  <outline>
    <contour>
      <point x="550" y="815" type="line"/>
      <point x="565" y="878" type="line"/>
      <point x="628" y="878" type="line"/>
      <point x="613" y="815" type="line"/>
    </contour>
    <contour>
      <point x="346" y="815" type="line"/>
      <point x="361" y="878" type="line"/>
      <point x="424" y="878" type="line"/>
      <point x="409" y="815" type="line"/>
    </contour>
    <contour>
      <point x="98" y="0" type="line"/>
      <point x="258" y="693" type="line"/>
      <point x="726" y="693" type="line"/>
      <point x="714" y="640" type="line"/>
      <point x="316" y="640" type="line"/>
      <point x="257" y="387" type="line"/>
      <point x="626" y="387" type="line"/>
      <point x="614" y="334" type="line"/>
      <point x="245" y="334" type="line"/>
      <point x="181" y="56" type="line"/>
      <point x="594" y="56" type="line"/>
      <point x="581" y="0" type="line"/>
    </contour>
  </outline>
</glyph>
<glyph name="Igrave" format="2">
  <advance width="267"/>
  <unicode hex="00CC"/>
  <outline>
    <contour>
      <point x="173" y="850" type="line"/>
      <point x="200" y="850"/>
      <point x="228" y="851"/>
      <point x="255" y="851" type="curve" smooth="yes"/>
      <point x="258" y="851"/>
      <point x="334" y="813"/>
      <point x="417" y="761" type="curve"/>
      <point x="353" y="761" type="line" smooth="yes"/>
      <point x="350" y="761"/>
      <point x="267" y="803"/>
      <point x="215" y="829" type="curve" smooth="yes"/>
    </contour>
    <contour>
      <point x="100" y="1" type="line"/>
      <point x="260" y="696" type="line"/>
      <point x="330" y="696" type="line"/>
      <point x="170" y="1" type="line"/>
    </contour>
  </outline>
</glyph>
<glyph name="Iacute" format="2">
  <advance width="267"/>
  <unicode hex="00CD"/>
  <outline>
    <contour>
      <point x="229" y="760" type="line"/>
      <point x="229" y="761"/>
      <point x="228" y="761"/>
      <point x="228" y="762" type="curve"/>
      <point x="456" y="867"/>
      <point x="418" y="851"/>
      <point x="435" y="851" type="curve" smooth="yes"/>
      <point x="480" y="851" type="line" smooth="yes"/>
      <point x="496" y="851"/>
      <point x="507" y="851"/>
      <point x="515" y="850" type="curve"/>
      <point x="394" y="799" type="line" smooth="yes"/>
      <point x="333" y="773"/>
      <point x="298" y="760"/>
      <point x="288" y="760" type="curve" smooth="yes"/>
    </contour>
    <contour>
      <point x="97" y="2" type="line"/>
      <point x="257" y="697" type="line"/>
      <point x="327" y="697" type="line"/>
      <point x="167" y="2" type="line"/>
    </contour>
  </outline>
</glyph>
<glyph name="Icircumflex" format="2">
  <advance width="267"/>
  <unicode hex="00CE"/>
  <outline>
    <contour>
      <point x="145" y="727" type="line"/>
      <point x="317" y="897" type="line"/>
      <point x="368" y="897" type="line"/>
      <point x="460" y="727" type="line"/>
      <point x="410" y="727" type="line"/>
      <point x="333" y="857" type="line"/>
      <point x="264" y="792" type="line" smooth="yes"/>
      <point x="233" y="763"/>
      <point x="210" y="741"/>
      <point x="195" y="727" type="curve"/>
    </contour>
    <contour>
      <point x="100" y="0" type="line"/>
      <point x="260" y="695" type="line"/>
      <point x="330" y="695" type="line"/>
      <point x="170" y="0" type="line"/>
    </contour>
  </outline>
</glyph>
<glyph name="Eth" format="2">
  <advance width="746"/>
  <unicode hex="00D0"/>
  <outline>
    <contour>
      <point x="61" y="315" type="line"/>
      <point x="72" y="366" type="line"/>
      <point x="183" y="366" type="line"/>
      <point x="259" y="695" type="line"/>
      <point x="508" y="695" type="line" smooth="yes"/>
      <point x="517" y="695"/>
      <point x="526" y="695"/>
      <point x="535" y="695" type="curve" smooth="yes"/>
      <point x="705" y="695"/>
      <point x="810" y="529"/>
      <point x="767" y="342" type="curve" smooth="yes"/>
      <point x="721" y="144"/>
      <point x="538" y="0"/>
      <point x="349" y="0" type="curve" smooth="yes"/>
      <point x="99" y="0" type="line"/>
      <point x="172" y="315" type="line"/>
    </contour>
    <contour>
      <point x="180" y="53" type="line"/>
      <point x="306" y="53" type="line"/>
      <point x="348" y="53" type="line" smooth="yes"/>
      <point x="433" y="53"/>
      <point x="511" y="81"/>
      <point x="561" y="121" type="curve" smooth="yes"/>
      <point x="586" y="141"/>
      <point x="608" y="164"/>
      <point x="627" y="190" type="curve" smooth="yes"/>
      <point x="685" y="269"/>
      <point x="709" y="359"/>
      <point x="707" y="442" type="curve" smooth="yes"/>
      <point x="704" y="547"/>
      <point x="651" y="641"/>
      <point x="484" y="641" type="curve" smooth="yes"/>
      <point x="316" y="641" type="line"/>
      <point x="252" y="366" type="line"/>
      <point x="451" y="366" type="line"/>
      <point x="440" y="315" type="line"/>
      <point x="241" y="315" type="line"/>
    </contour>
  </outline>
</glyph>
<glyph name="Ntilde" format="2">
  <advance width="708"/>
  <unicode hex="00D1"/>
  <outline>
    <contour>
      <point x="100" y="0" type="line"/>
      <point x="260" y="695" type="line"/>
      <point x="358" y="695" type="line"/>
      <point x="558" y="58" type="line"/>
      <point x="705" y="695" type="line"/>
      <point x="768" y="695" type="line"/>
      <point x="608" y="0" type="line"/>
      <point x="510" y="0" type="line"/>
      <point x="310" y="637" type="line"/>
      <point x="163" y="0" type="line"/>
    </contour>
    <contour>
      <point x="347" y="727" type="line"/>
      <point x="345" y="721" type="line"/>
      <point x="366" y="817"/>
      <point x="421" y="884"/>
      <point x="481" y="884" type="curve" smooth="yes"/>
      <point x="502" y="884"/>
      <point x="522" y="869"/>
      <point x="530" y="856" type="curve"/>
      <point x="562" y="800"/>
      <point x="573" y="774"/>
      <point x="608" y="774" type="curve" smooth="yes"/>
      <point x="662" y="774"/>
      <point x="673" y="857"/>
      <point x="684" y="886" type="curve"/>
      <point x="734" y="886" type="line"/>
      <point x="712" y="790"/>
      <point x="657" y="723"/>
      <point x="598" y="723" type="curve" smooth="yes"/>
      <point x="533" y="723"/>
      <point x="538" y="837"/>
      <point x="473" y="837" type="curve" smooth="yes"/>
      <point x="446" y="837"/>
      <point x="397" y="782"/>
      <point x="397" y="727" type="curve"/>
    </contour>
  </outline>
</glyph>
<glyph name="Ograve" format="2">
  <advance width="783"/>
  <unicode hex="00D2"/>
  <outline>
    <contour>
      <point x="445" y="850" type="line"/>
      <point x="472" y="850"/>
      <point x="500" y="851"/>
      <point x="527" y="851" type="curve" smooth="yes"/>
      <point x="535" y="851"/>
      <point x="599" y="814"/>
      <point x="688" y="761" type="curve"/>
      <point x="625" y="761" type="line" smooth="yes"/>
      <point x="622" y="761"/>
      <point x="539" y="803"/>
      <point x="487" y="829" type="curve" smooth="yes"/>
    </contour>
    <contour>
      <point x="139" y="348" type="curve"/>
      <point x="139" y="347"/>
      <point x="139" y="347"/>
      <point x="139" y="346" type="curve"/>
      <point x="186" y="550"/>
      <point x="375" y="711"/>
      <point x="555" y="711" type="curve" smooth="yes"/>
      <point x="736" y="711"/>
      <point x="850" y="551"/>
      <point x="803" y="347" type="curve" smooth="yes"/>
      <point x="756" y="144"/>
      <point x="567" y="-17"/>
      <point x="387" y="-17" type="curve" smooth="yes"/>
      <point x="205" y="-17"/>
      <point x="91" y="143"/>
    </contour>
    <contour>
      <point x="209" y="346" type="curve"/>
      <point x="209" y="346"/>
      <point x="208" y="346"/>
      <point x="208" y="346" type="curve"/>
      <point x="186" y="256"/>
      <point x="196" y="184"/>
      <point x="232" y="127" type="curve" smooth="yes"/>
      <point x="270" y="66"/>
      <point x="324" y="35"/>
      <point x="399" y="35" type="curve" smooth="yes"/>
      <point x="548" y="35"/>
      <point x="695" y="179"/>
      <point x="734" y="346" type="curve" smooth="yes"/>
      <point x="756" y="441"/>
      <point x="748" y="517"/>
      <point x="711" y="574" type="curve"/>
      <point x="711" y="574"/>
      <point x="711" y="574"/>
      <point x="711" y="574" type="curve"/>
      <point x="674" y="631"/>
      <point x="618" y="659"/>
      <point x="543" y="659" type="curve" smooth="yes"/>
      <point x="393" y="659"/>
      <point x="253" y="535"/>
    </contour>
  </outline>
</glyph>
<glyph name="Ocircumflex" format="2">
  <advance width="783"/>
  <unicode hex="00D4"/>
  <outline>
    <contour>
      <point x="403" y="727" type="line"/>
      <point x="573" y="897" type="line"/>
      <point x="624" y="897" type="line"/>
      <point x="716" y="727" type="line"/>
      <point x="665" y="727" type="line"/>
      <point x="589" y="857" type="line"/>
      <point x="522" y="792" type="line" smooth="yes"/>
      <point x="492" y="763"/>
      <point x="469" y="741"/>
      <point x="454" y="727" type="curve"/>
    </contour>
    <contour>
      <point x="138" y="347" type="curve"/>
      <point x="138" y="346"/>
      <point x="138" y="346"/>
      <point x="138" y="345" type="curve"/>
      <point x="185" y="549"/>
      <point x="374" y="710"/>
      <point x="554" y="710" type="curve" smooth="yes"/>
      <point x="735" y="710"/>
      <point x="849" y="550"/>
      <point x="802" y="346" type="curve" smooth="yes"/>
      <point x="755" y="143"/>
      <point x="566" y="-18"/>
      <point x="386" y="-18" type="curve" smooth="yes"/>
      <point x="204" y="-18"/>
      <point x="90" y="142"/>
    </contour>
    <contour>
      <point x="208" y="345" type="curve"/>
      <point x="208" y="345"/>
      <point x="207" y="345"/>
      <point x="207" y="345" type="curve"/>
      <point x="185" y="255"/>
      <point x="195" y="183"/>
      <point x="231" y="126" type="curve" smooth="yes"/>
      <point x="269" y="65"/>
      <point x="323" y="34"/>
      <point x="398" y="34" type="curve" smooth="yes"/>
      <point x="547" y="34"/>
      <point x="694" y="178"/>
      <point x="733" y="345" type="curve" smooth="yes"/>
      <point x="755" y="440"/>
      <point x="747" y="516"/>
      <point x="710" y="573" type="curve"/>
      <point x="710" y="573"/>
      <point x="710" y="573"/>
      <point x="710" y="573" type="curve"/>
      <point x="673" y="630"/>
      <point x="617" y="658"/>
      <point x="542" y="658" type="curve" smooth="yes"/>
      <point x="392" y="658"/>
      <point x="252" y="534"/>
    </contour>
  </outline>
</glyph>
<glyph name="Otilde" format="2">
  <advance width="783"/>
  <unicode hex="00D5"/>
  <outline>
    <contour>
      <point x="138" y="347" type="curve"/>
      <point x="137" y="346"/>
      <point x="137" y="346"/>
      <point x="136" y="345" type="curve"/>
      <point x="183" y="549"/>
      <point x="372" y="710"/>
      <point x="552" y="710" type="curve" smooth="yes"/>
      <point x="735" y="710"/>
      <point x="850" y="550"/>
      <point x="802" y="346" type="curve" smooth="yes"/>
      <point x="755" y="143"/>
      <point x="566" y="-18"/>
      <point x="386" y="-18" type="curve" smooth="yes"/>
      <point x="204" y="-18"/>
      <point x="90" y="142"/>
    </contour>
    <contour>
      <point x="206" y="345" type="curve"/>
      <point x="206" y="345"/>
      <point x="205" y="345"/>
      <point x="205" y="345" type="curve"/>
      <point x="183" y="255"/>
      <point x="193" y="183"/>
      <point x="229" y="126" type="curve" smooth="yes"/>
      <point x="267" y="65"/>
      <point x="321" y="34"/>
      <point x="396" y="34" type="curve" smooth="yes"/>
      <point x="545" y="34"/>
      <point x="692" y="178"/>
      <point x="731" y="345" type="curve" smooth="yes"/>
      <point x="753" y="440"/>
      <point x="745" y="516"/>
      <point x="708" y="573" type="curve"/>
      <point x="708" y="573"/>
      <point x="708" y="573"/>
      <point x="708" y="573" type="curve"/>
      <point x="671" y="630"/>
      <point x="615" y="658"/>
      <point x="540" y="658" type="curve" smooth="yes"/>
      <point x="390" y="658"/>
      <point x="250" y="534"/>
    </contour>
    <contour>
      <point x="385" y="745" type="line"/>
      <point x="385" y="744"/>
      <point x="385" y="744"/>
      <point x="385" y="743" type="curve"/>
      <point x="406" y="839"/>
      <point x="461" y="906"/>
      <point x="522" y="906" type="curve" smooth="yes"/>
      <point x="589" y="906"/>
      <point x="577" y="792"/>
      <point x="646" y="792" type="curve" smooth="yes"/>
      <point x="699" y="792"/>
      <point x="711" y="873"/>
      <point x="722" y="904" type="curve"/>
      <point x="772" y="904" type="line"/>
      <point x="750" y="808"/>
      <point x="695" y="741"/>
      <point x="636" y="741" type="curve" smooth="yes"/>
      <point x="573" y="741"/>
      <point x="579" y="855"/>
      <point x="513" y="855" type="curve" smooth="yes"/>
      <point x="491" y="855"/>
      <point x="472" y="841"/>
      <point x="462" y="822" type="curve" smooth="yes"/>
      <point x="452" y="803"/>
      <point x="440" y="750"/>
      <point x="435" y="745" type="curve"/>
    </contour>
  </outline>
</glyph>
<glyph name="multiply" format="2">
  <advance width="642"/>
  <unicode hex="00D7"/>
  <outline>
    <contour>
      <point x="151" y="93" type="curve"/>
      <point x="150" y="91"/>
      <point x="148" y="89"/>
      <point x="147" y="87" type="curve"/>
      <point x="147" y="88"/>
      <point x="149" y="91"/>
      <point x="153" y="97" type="curve"/>
      <point x="242" y="169"/>
      <point x="307" y="223"/>
      <point x="349" y="259" type="curve"/>
      <point x="332" y="281"/>
      <point x="313" y="304"/>
      <point x="297" y="327" type="curve"/>
      <point x="286" y="340" type="line"/>
      <point x="251" y="385"/>
      <point x="231" y="412"/>
      <point x="227" y="421" type="curve"/>
      <point x="222" y="439"/>
      <point x="241" y="451"/>
      <point x="251" y="451" type="curve" smooth="yes"/>
      <point x="266" y="451"/>
      <point x="342" y="345"/>
      <point x="386" y="288" type="curve"/>
      <point x="434" y="327"/>
      <point x="524" y="402"/>
      <point x="565" y="433" type="curve" smooth="yes"/>
      <point x="579" y="444"/>
      <point x="588" y="449"/>
      <point x="591" y="450" type="curve"/>
      <point x="612" y="450"/>
      <point x="610" y="435"/>
      <point x="610" y="434" type="curve" smooth="yes"/>
      <point x="610" y="431"/>
      <point x="477" y="326"/>
      <point x="408" y="262" type="curve"/>
      <point x="428" y="235"/>
      <point x="449" y="203"/>
      <point x="471" y="181" type="curve"/>
      <point x="500" y="143"/>
      <point x="518" y="120"/>
      <point x="524" y="112" type="curve" smooth="yes"/>
      <point x="530" y="104"/>
      <point x="532" y="98"/>
      <point x="531" y="93" type="curve" smooth="yes"/>
      <point x="527" y="75"/>
      <point x="512" y="74"/>
      <point x="507" y="74" type="curve" smooth="yes"/>
      <point x="496" y="74"/>
      <point x="418" y="179"/>
      <point x="373" y="236" type="curve"/>
      <point x="280" y="160" type="line"/>
      <point x="259" y="139"/>
      <point x="203" y="92"/>
      <point x="185" y="81" type="curve" smooth="yes"/>
      <point x="180" y="78"/>
      <point x="175" y="75"/>
      <point x="171" y="74" type="curve"/>
      <point x="156" y="74"/>
      <point x="149" y="80"/>
    </contour>
  </outline>
</glyph>
<glyph name="Oslash" format="2">
  <advance width="817"/>
  <unicode hex="00D8"/>
  <outline>
    <contour>
      <point x="138" y="346" type="curve"/>
      <point x="138" y="346"/>
      <point x="137" y="346"/>
      <point x="137" y="346" type="curve"/>
      <point x="184" y="550"/>
      <point x="383" y="711"/>
      <point x="571" y="711" type="curve" smooth="yes"/>
      <point x="634" y="711"/>
      <point x="691" y="693"/>
      <point x="741" y="658" type="curve"/>
      <point x="825" y="750" type="line"/>
      <point x="861" y="721" type="line"/>
      <point x="776" y="628" type="line"/>
      <point x="809" y="592"/>
      <point x="830" y="549"/>
      <point x="840" y="499" type="curve" smooth="yes"/>
      <point x="894" y="229"/>
      <point x="628" y="-17"/>
      <point x="403" y="-17" type="curve" smooth="yes"/>
      <point x="338" y="-17"/>
      <point x="281" y="1"/>
      <point x="233" y="36" type="curve"/>
      <point x="224" y="25"/>
      <point x="210" y="10"/>
      <point x="192" y="-10" type="curve" smooth="yes"/>
      <point x="150" y="-56" type="line"/>
      <point x="114" y="-27" type="line"/>
      <point x="199" y="67" type="line"/>
      <point x="170" y="96"/>
      <point x="149" y="135"/>
      <point x="136" y="184" type="curve" smooth="yes"/>
      <point x="123" y="233"/>
      <point x="124" y="287"/>
    </contour>
    <contour>
      <point x="203" y="347" type="curve"/>
      <point x="203" y="346"/>
      <point x="202" y="346"/>
      <point x="202" y="345" type="curve"/>
      <point x="179" y="244"/>
      <point x="191" y="165"/>
      <point x="238" y="108" type="curve"/>
      <point x="289" y="164"/>
      <point x="366" y="248"/>
      <point x="469" y="361" type="curve" smooth="yes"/>
      <point x="700" y="616" type="line"/>
      <point x="659" y="645"/>
      <point x="612" y="660"/>
      <point x="559" y="660" type="curve" smooth="yes"/>
      <point x="391" y="660"/>
      <point x="244" y="527"/>
    </contour>
    <contour>
      <point x="271" y="75" type="line"/>
      <point x="271" y="76"/>
      <point x="270" y="76"/>
      <point x="270" y="77" type="curve"/>
      <point x="312" y="48"/>
      <point x="360" y="34"/>
      <point x="413" y="34" type="curve" smooth="yes"/>
      <point x="580" y="34"/>
      <point x="727" y="165"/>
      <point x="769" y="345" type="curve" smooth="yes"/>
      <point x="791" y="441"/>
      <point x="779" y="520"/>
      <point x="734" y="583" type="curve"/>
      <point x="683" y="527"/>
      <point x="606" y="443"/>
      <point x="503" y="330" type="curve" smooth="yes"/>
    </contour>
  </outline>
</glyph>
<glyph name="Ugrave" format="2">
  <advance width="692"/>
  <unicode hex="00D9"/>
  <outline>
    <contour>
      <point x="399" y="850" type="line"/>
      <point x="426" y="850"/>
      <point x="453" y="851"/>
      <point x="480" y="851" type="curve" smooth="yes"/>
      <point x="487" y="851"/>
      <point x="585" y="798"/>
      <point x="642" y="761" type="curve"/>
      <point x="579" y="761" type="line" smooth="yes"/>
      <point x="576" y="761"/>
      <point x="493" y="803"/>
      <point x="441" y="829" type="curve" smooth="yes"/>
    </contour>
    <contour>
      <point x="154" y="248" type="curve" smooth="yes"/>
      <point x="255" y="698" type="line"/>
      <point x="325" y="698" type="line"/>
      <point x="220" y="240" type="line" smooth="yes"/>
      <point x="211" y="202"/>
      <point x="209" y="169"/>
      <point x="214" y="141" type="curve" smooth="yes"/>
      <point x="224" y="84"/>
      <point x="260" y="60"/>
      <point x="296" y="48" type="curve" smooth="yes"/>
      <point x="314" y="42"/>
      <point x="333" y="39"/>
      <point x="354" y="39" type="curve" smooth="yes"/>
      <point x="435" y="39"/>
      <point x="547" y="81"/>
      <point x="582" y="242" type="curve" smooth="yes"/>
      <point x="687" y="697" type="line" name=".hr01"/>
      <point x="752" y="697" type="line"/>
      <point x="648" y="244" type="line" smooth="yes"/>
      <point x="611" y="82"/>
      <point x="465" y="-15"/>
      <point x="342" y="-15" type="curve" smooth="yes"/>
      <point x="197" y="-15"/>
      <point x="120" y="99"/>
    </contour>
  </outline>
</glyph>
<glyph name="Uacute" format="2">
  <advance width="692"/>
  <unicode hex="00DA"/>
  <outline>
    <contour>
      <point x="441" y="760" type="curve"/>
      <point x="611" y="840" type="line"/>
      <point x="636" y="850" type="line"/>
      <point x="640" y="850" type="line"/>
      <point x="650" y="850" type="line"/>
      <point x="727" y="850" type="line"/>
      <point x="606" y="799" type="line" smooth="yes"/>
      <point x="545" y="773"/>
      <point x="510" y="760"/>
      <point x="500" y="760" type="curve" smooth="yes"/>
      <point x="480" y="760"/>
      <point x="461" y="760"/>
    </contour>
    <contour>
      <point x="156" y="248" type="curve" smooth="yes"/>
      <point x="257" y="698" type="line"/>
      <point x="327" y="698" type="line"/>
      <point x="222" y="240" type="line" smooth="yes"/>
      <point x="213" y="202"/>
      <point x="211" y="169"/>
      <point x="216" y="141" type="curve" smooth="yes"/>
      <point x="226" y="84"/>
      <point x="262" y="60"/>
      <point x="298" y="48" type="curve" smooth="yes"/>
      <point x="316" y="42"/>
      <point x="335" y="39"/>
      <point x="356" y="39" type="curve" smooth="yes"/>
      <point x="437" y="39"/>
      <point x="549" y="81"/>
      <point x="584" y="242" type="curve" smooth="yes"/>
      <point x="689" y="697" type="line"/>
      <point x="754" y="697" type="line" name=".hr01"/>
      <point x="650" y="244" type="line" smooth="yes"/>
      <point x="613" y="82"/>
      <point x="467" y="-15"/>
      <point x="344" y="-15" type="curve" smooth="yes"/>
      <point x="199" y="-15"/>
      <point x="122" y="99"/>
    </contour>
  </outline>
</glyph>
<glyph name="Ucircumflex" format="2">
  <advance width="692"/>
  <unicode hex="00DB"/>
  <outline>
    <contour>
      <point x="358" y="727" type="line"/>
      <point x="530" y="897" type="line"/>
      <point x="579" y="897" type="line"/>
      <point x="673" y="727" type="line"/>
      <point x="623" y="727" type="line"/>
      <point x="547" y="857" type="line"/>
      <point x="478" y="792" type="line" smooth="yes"/>
      <point x="447" y="763"/>
      <point x="424" y="741"/>
      <point x="409" y="727" type="curve"/>
    </contour>
    <contour>
      <point x="157" y="247" type="curve" smooth="yes"/>
      <point x="258" y="697" type="line"/>
      <point x="328" y="697" type="line"/>
      <point x="223" y="239" type="line" smooth="yes"/>
      <point x="214" y="201"/>
      <point x="212" y="168"/>
      <point x="217" y="140" type="curve" smooth="yes"/>
      <point x="227" y="83"/>
      <point x="263" y="59"/>
      <point x="299" y="47" type="curve" smooth="yes"/>
      <point x="317" y="41"/>
      <point x="336" y="38"/>
      <point x="357" y="38" type="curve" smooth="yes"/>
      <point x="438" y="38"/>
      <point x="550" y="80"/>
      <point x="585" y="241" type="curve" smooth="yes"/>
      <point x="690" y="696" type="line" name=".hr01"/>
      <point x="755" y="696" type="line"/>
      <point x="651" y="243" type="line" smooth="yes"/>
      <point x="614" y="81"/>
      <point x="468" y="-16"/>
      <point x="345" y="-16" type="curve" smooth="yes"/>
      <point x="200" y="-16"/>
      <point x="123" y="98"/>
    </contour>
  </outline>
</glyph>
<glyph name="Udieresis" format="2">
  <advance width="692"/>
  <unicode hex="00DC"/>
  <outline>
    <contour>
      <point x="604" y="815" type="line"/>
      <point x="619" y="878" type="line"/>
      <point x="682" y="878" type="line"/>
      <point x="667" y="815" type="line"/>
    </contour>
    <contour>
      <point x="400" y="815" type="line"/>
      <point x="415" y="878" type="line"/>
      <point x="478" y="878" type="line"/>
      <point x="463" y="815" type="line"/>
    </contour>
    <contour>
      <point x="155" y="247" type="curve" smooth="yes"/>
      <point x="256" y="697" type="line"/>
      <point x="326" y="697" type="line"/>
      <point x="221" y="239" type="line" smooth="yes"/>
      <point x="212" y="201"/>
      <point x="210" y="168"/>
      <point x="215" y="140" type="curve" smooth="yes"/>
      <point x="225" y="83"/>
      <point x="261" y="59"/>
      <point x="297" y="47" type="curve" smooth="yes"/>
      <point x="315" y="41"/>
      <point x="334" y="38"/>
      <point x="355" y="38" type="curve" smooth="yes"/>
      <point x="436" y="38"/>
      <point x="548" y="80"/>
      <point x="583" y="241" type="curve" smooth="yes"/>
      <point x="688" y="696" type="line" name=".hr01"/>
      <point x="753" y="696" type="line"/>
      <point x="649" y="243" type="line" smooth="yes"/>
      <point x="612" y="81"/>
      <point x="466" y="-16"/>
      <point x="343" y="-16" type="curve" smooth="yes"/>
      <point x="198" y="-16"/>
      <point x="121" y="98"/>
    </contour>
  </outline>
</glyph>
<glyph name="Yacute" format="2">
  <advance width="675"/>
  <unicode hex="00DD"/>
  <outline>
    <contour>
      <point x="433" y="760" type="curve"/>
      <point x="603" y="840" type="line"/>
      <point x="628" y="850" type="line"/>
      <point x="632" y="850" type="line"/>
      <point x="642" y="850" type="line"/>
      <point x="719" y="850" type="line"/>
      <point x="598" y="799" type="line" smooth="yes"/>
      <point x="537" y="773"/>
      <point x="502" y="760"/>
      <point x="492" y="760" type="curve" smooth="yes"/>
      <point x="472" y="760"/>
      <point x="453" y="760"/>
    </contour>
    <contour>
      <point x="163" y="696" type="line"/>
      <point x="248" y="696" type="line"/>
      <point x="283" y="625" type="line"/>
      <point x="286" y="617"/>
      <point x="292" y="605"/>
      <point x="300" y="590" type="curve" smooth="yes"/>
      <point x="308" y="575"/>
      <point x="314" y="563"/>
      <point x="318" y="555" type="curve" smooth="yes"/>
      <point x="369" y="449" type="line" smooth="yes"/>
      <point x="392" y="402"/>
      <point x="409" y="367"/>
      <point x="420" y="343" type="curve"/>
      <point x="441" y="365"/>
      <point x="553" y="483"/>
      <point x="756" y="696" type="curve"/>
      <point x="832" y="696" type="line"/>
      <point x="436" y="279" type="line"/>
      <point x="372" y="1" type="line"/>
      <point x="303" y="1" type="line"/>
      <point x="367" y="279" type="line"/>
    </contour>
  </outline>
</glyph>
<glyph name="Thorn" format="2">
  <advance width="600"/>
  <unicode hex="00DE"/>
  <outline>
    <contour>
      <point x="99" y="0" type="line"/>
      <point x="256" y="695" type="line"/>
      <point x="323" y="695" type="line"/>
      <point x="295" y="570" type="line" name=".hr01"/>
      <point x="443" y="570" type="line"/>
      <point x="486" y="568"/>
      <point x="519" y="562"/>
      <point x="542" y="551" type="curve" smooth="yes"/>
      <point x="601" y="523"/>
      <point x="645" y="458"/>
      <point x="627" y="375" type="curve"/>
      <point x="600" y="287"/>
      <point x="515" y="180"/>
      <point x="350" y="180" type="curve" smooth="yes"/>
      <point x="208" y="180" type="line"/>
      <point x="166" y="0" type="line"/>
    </contour>
    <contour>
      <point x="217" y="234" type="line"/>
      <point x="255" y="234"/>
      <point x="293" y="233"/>
      <point x="331" y="233" type="curve" smooth="yes"/>
      <point x="463" y="233"/>
      <point x="542" y="307"/>
      <point x="558" y="375" type="curve" smooth="yes"/>
      <point x="573" y="441"/>
      <point x="521" y="516"/>
      <point x="387" y="516" type="curve" smooth="yes"/>
      <point x="282" y="516" type="line"/>
      <point x="278" y="497" type="line" smooth="yes"/>
      <point x="276" y="488"/>
      <point x="274" y="482"/>
      <point x="273" y="478" type="curve" smooth="yes"/>
    </contour>
  </outline>
</glyph>
<glyph name="germandbls" format="2">
  <advance width="492"/>
  <unicode hex="00DF"/>
  <outline>
    <contour>
      <point x="80" y="0" type="line"/>
      <point x="209" y="562" type="line" smooth="yes"/>
      <point x="228" y="646"/>
      <point x="319" y="703"/>
      <point x="417" y="703" type="curve" smooth="yes"/>
      <point x="513" y="703"/>
      <point x="581" y="647"/>
      <point x="565" y="576" type="curve" smooth="yes"/>
      <point x="553" y="523"/>
      <point x="496" y="469"/>
      <point x="420" y="444" type="curve"/>
      <point x="457" y="419"/>
      <point x="484" y="384"/>
      <point x="500" y="338" type="curve" smooth="yes"/>
      <point x="516" y="292"/>
      <point x="518" y="243"/>
      <point x="506" y="191" type="curve" smooth="yes"/>
      <point x="481" y="83"/>
      <point x="379" y="-8" name=".hr01"/>
      <point x="269" y="-8" type="curve" smooth="yes"/>
      <point x="238" y="-8"/>
      <point x="207" y="-3"/>
      <point x="175" y="7" type="curve"/>
      <point x="203" y="55" type="line"/>
      <point x="229" y="46"/>
      <point x="255" y="42"/>
      <point x="282" y="42" type="curve" smooth="yes"/>
      <point x="357" y="42"/>
      <point x="420" y="103"/>
      <point x="441" y="191" type="curve" smooth="yes"/>
      <point x="455" y="251"/>
      <point x="450" y="305"/>
      <point x="426" y="350" type="curve" smooth="yes"/>
      <point x="402" y="395"/>
      <point x="360" y="419"/>
      <point x="299" y="421" type="curve"/>
      <point x="311" y="471" type="line"/>
      <point x="425" y="473"/>
      <point x="491" y="523"/>
      <point x="502" y="573" type="curve" smooth="yes"/>
      <point x="512" y="621"/>
      <point x="474" y="652"/>
      <point x="407" y="652" type="curve" smooth="yes"/>
      <point x="333" y="652"/>
      <point x="286" y="621"/>
      <point x="272" y="560" type="curve" smooth="yes"/>
      <point x="143" y="0" type="line" name=".hr02"/>
    </contour>
  </outline>
</glyph>
<glyph name="agrave" format="2">
  <advance width="492"/>
  <unicode hex="00E0"/>
  <outline>
    <contour>
      <point x="82" y="115" type="curve"/>
      <point x="81" y="115"/>
      <point x="80" y="114"/>
      <point x="79" y="114" type="curve"/>
      <point x="94" y="179"/>
      <point x="177" y="255"/>
      <point x="405" y="263" type="curve"/>
      <point x="415" y="305" type="line" smooth="yes"/>
      <point x="421" y="332"/>
      <point x="422" y="355"/>
      <point x="418" y="374" type="curve" smooth="yes"/>
      <point x="410" y="412"/>
      <point x="386" y="426"/>
      <point x="369" y="432" type="curve" smooth="yes"/>
      <point x="360" y="435"/>
      <point x="352" y="437"/>
      <point x="344" y="437" type="curve" smooth="yes"/>
      <point x="293" y="437"/>
      <point x="247" y="424"/>
      <point x="206" y="402" type="curve" smooth="yes"/>
      <point x="175" y="385" type="line"/>
      <point x="183" y="441" type="line"/>
      <point x="242" y="470"/>
      <point x="301" y="484"/>
      <point x="360" y="484" type="curve" smooth="yes"/>
      <point x="468" y="484"/>
      <point x="501" y="398"/>
      <point x="479" y="300" type="curve" smooth="yes"/>
      <point x="410" y="-1" type="line"/>
      <point x="347" y="-1" type="line"/>
      <point x="363" y="68" type="line"/>
      <point x="309" y="17"/>
      <point x="242" y="-9" name=".hr01"/>
      <point x="163" y="-9" type="curve" smooth="yes"/>
      <point x="92" y="-9"/>
      <point x="78" y="42"/>
      <point x="78" y="79" type="curve" smooth="yes"/>
      <point x="78" y="92"/>
      <point x="79" y="104"/>
    </contour>
    <contour>
      <point x="141" y="116" type="curve"/>
      <point x="141" y="116"/>
      <point x="140" y="115"/>
      <point x="140" y="115" type="curve"/>
      <point x="131" y="75"/>
      <point x="154" y="51"/>
      <point x="210" y="42" type="curve" smooth="yes"/>
      <point x="216" y="41"/>
      <point x="221" y="41"/>
      <point x="227" y="41" type="curve" smooth="yes"/>
      <point x="290" y="41"/>
      <point x="359" y="72"/>
      <point x="376" y="144" type="curve" smooth="yes"/>
      <point x="397" y="233" type="line"/>
      <point x="265" y="231"/>
      <point x="157" y="186"/>
    </contour>
    <contour>
      <point x="310" y="665" type="line"/>
      <point x="332" y="665"/>
      <point x="353" y="664"/>
      <point x="375" y="664" type="curve"/>
      <point x="495" y="535" type="line"/>
      <point x="457" y="535" type="line" smooth="yes"/>
      <point x="440" y="535"/>
      <point x="450" y="530"/>
      <point x="391" y="587" type="curve" smooth="yes"/>
      <point x="345" y="631" type="line"/>
      <point x="345" y="631"/>
      <point x="345" y="631"/>
      <point x="345" y="631" type="curve"/>
    </contour>
  </outline>
</glyph>
<glyph name="acircumflex" format="2">
  <advance width="492"/>
  <unicode hex="00E2"/>
  <outline>
    <contour>
      <point x="219" y="537" type="line"/>
      <point x="382" y="675" type="line"/>
      <point x="457" y="675" type="line"/>
      <point x="532" y="537" type="line"/>
      <point x="481" y="537" type="line"/>
      <point x="399" y="643" type="line"/>
      <point x="384" y="632"/>
      <point x="362" y="614"/>
      <point x="333" y="590" type="curve" smooth="yes"/>
      <point x="269" y="537" type="line"/>
    </contour>
    <contour>
      <point x="83" y="115" type="curve"/>
      <point x="82" y="115"/>
      <point x="81" y="114"/>
      <point x="80" y="114" type="curve"/>
      <point x="95" y="179"/>
      <point x="178" y="255"/>
      <point x="406" y="263" type="curve"/>
      <point x="416" y="305" type="line" smooth="yes"/>
      <point x="422" y="332"/>
      <point x="423" y="355"/>
      <point x="419" y="374" type="curve" smooth="yes"/>
      <point x="411" y="412"/>
      <point x="387" y="426"/>
      <point x="370" y="432" type="curve" smooth="yes"/>
      <point x="361" y="435"/>
      <point x="353" y="437"/>
      <point x="345" y="437" type="curve" smooth="yes"/>
      <point x="294" y="437"/>
      <point x="248" y="424"/>
      <point x="207" y="402" type="curve" smooth="yes"/>
      <point x="176" y="385" type="line"/>
      <point x="184" y="441" type="line"/>
      <point x="243" y="470"/>
      <point x="302" y="484"/>
      <point x="361" y="484" type="curve" smooth="yes"/>
      <point x="469" y="484"/>
      <point x="502" y="398"/>
      <point x="480" y="300" type="curve" smooth="yes"/>
      <point x="411" y="-1" type="line"/>
      <point x="348" y="-1" type="line"/>
      <point x="364" y="68" type="line"/>
      <point x="310" y="17"/>
      <point x="243" y="-9" name=".hr01"/>
      <point x="164" y="-9" type="curve" smooth="yes"/>
      <point x="93" y="-9"/>
      <point x="79" y="42"/>
      <point x="79" y="79" type="curve" smooth="yes"/>
      <point x="79" y="92"/>
      <point x="80" y="104"/>
    </contour>
    <contour>
      <point x="142" y="116" type="curve"/>
      <point x="142" y="116"/>
      <point x="141" y="115"/>
      <point x="141" y="115" type="curve"/>
      <point x="132" y="75"/>
      <point x="155" y="51"/>
      <point x="211" y="42" type="curve" smooth="yes"/>
      <point x="217" y="41"/>
      <point x="222" y="41"/>
      <point x="228" y="41" type="curve" smooth="yes"/>
      <point x="291" y="41"/>
      <point x="360" y="72"/>
      <point x="377" y="144" type="curve" smooth="yes"/>
      <point x="398" y="233" type="line"/>
      <point x="266" y="231"/>
      <point x="158" y="186"/>
    </contour>
  </outline>
</glyph>
<glyph name="atilde" format="2">
  <advance width="492"/>
  <unicode hex="00E3"/>
  <outline>
    <contour>
      <point x="224" y="574" type="line"/>
      <point x="221" y="576" type="line"/>
      <point x="239" y="637"/>
      <point x="293" y="674"/>
      <point x="345" y="674" type="curve" smooth="yes"/>
      <point x="379" y="674"/>
      <point x="451" y="626" name=".hr01"/>
      <point x="482" y="626" type="curve" smooth="yes"/>
      <point x="487" y="626"/>
      <point x="493" y="627"/>
      <point x="498" y="628" type="curve" smooth="yes"/>
      <point x="519" y="632"/>
      <point x="537" y="650"/>
      <point x="546" y="675" type="curve"/>
      <point x="596" y="675" type="line"/>
      <point x="578" y="614"/>
      <point x="524" y="575"/>
      <point x="471" y="575" type="curve" smooth="yes"/>
      <point x="465" y="575"/>
      <point x="459" y="576"/>
      <point x="452" y="578" type="curve" smooth="yes"/>
      <point x="418" y="588"/>
      <point x="361" y="623" name=".hr02"/>
      <point x="337" y="623" type="curve" smooth="yes"/>
      <point x="306" y="623"/>
      <point x="285" y="607"/>
      <point x="274" y="574" type="curve"/>
    </contour>
    <contour>
      <point x="79" y="117" type="curve"/>
      <point x="78" y="117"/>
      <point x="77" y="116"/>
      <point x="76" y="116" type="curve"/>
      <point x="91" y="181"/>
      <point x="174" y="257"/>
      <point x="402" y="265" type="curve"/>
      <point x="412" y="307" type="line" smooth="yes"/>
      <point x="418" y="334"/>
      <point x="419" y="357"/>
      <point x="415" y="376" type="curve" smooth="yes"/>
      <point x="407" y="414"/>
      <point x="383" y="428"/>
      <point x="366" y="434" type="curve" smooth="yes"/>
      <point x="357" y="437"/>
      <point x="349" y="439"/>
      <point x="341" y="439" type="curve" smooth="yes"/>
      <point x="290" y="439"/>
      <point x="244" y="426"/>
      <point x="203" y="404" type="curve" smooth="yes"/>
      <point x="172" y="387" type="line"/>
      <point x="180" y="443" type="line"/>
      <point x="239" y="472"/>
      <point x="298" y="486"/>
      <point x="357" y="486" type="curve" smooth="yes"/>
      <point x="465" y="486"/>
      <point x="498" y="400"/>
      <point x="476" y="302" type="curve" smooth="yes"/>
      <point x="407" y="1" type="line"/>
      <point x="344" y="1" type="line"/>
      <point x="360" y="70" type="line"/>
      <point x="306" y="19"/>
      <point x="239" y="-7" name=".hr03"/>
      <point x="160" y="-7" type="curve" smooth="yes"/>
      <point x="89" y="-7"/>
      <point x="75" y="44"/>
      <point x="75" y="81" type="curve" smooth="yes"/>
      <point x="75" y="94"/>
      <point x="76" y="106"/>
    </contour>
    <contour>
      <point x="138" y="118" type="curve"/>
      <point x="138" y="118"/>
      <point x="137" y="117"/>
      <point x="137" y="117" type="curve"/>
      <point x="128" y="77"/>
      <point x="151" y="53"/>
      <point x="207" y="44" type="curve" smooth="yes"/>
      <point x="213" y="43"/>
      <point x="218" y="43"/>
      <point x="224" y="43" type="curve" smooth="yes"/>
      <point x="287" y="43"/>
      <point x="356" y="74"/>
      <point x="373" y="146" type="curve" smooth="yes"/>
      <point x="394" y="235" type="line"/>
      <point x="262" y="233"/>
      <point x="154" y="188"/>
    </contour>
  </outline>
</glyph>
